<svg xmlns="http://www.w3.org/2000/svg" viewBox="0 0 1128 191" width="1128" height="191">
  <defs>
    <radialGradient id="glow" cx="50%" cy="50%" r="50%">
      <stop offset="0%" stop-color="#F97316" stop-opacity="0.10"/>
      <stop offset="100%" stop-color="#F97316" stop-opacity="0"/>
    </radialGradient>
  </defs>
  <rect width="1128" height="191" fill="#0A0A0A"/>
  <circle cx="980" cy="96" r="240" fill="url(#glow)"/>

  <!-- Mark on left -->
  <g transform="translate(70 36)">
    <rect width="120" height="120" rx="26" fill="#0A0A0A" stroke="#1F1F1F" stroke-width="1"/>
    <circle cx="60" cy="60" r="46" fill="none" stroke="#F97316" stroke-width="1.2" opacity="0.18"/>
    <circle cx="60" cy="60" r="32" fill="none" stroke="#06B6D4" stroke-width="1.2" opacity="0.16"/>
    <g stroke="#FAFAFA" stroke-width="11" stroke-linecap="square" fill="none">
      <line x1="36" y1="36" x2="84" y2="84"/>
      <line x1="84" y1="36" x2="36" y2="84"/>
    </g>
    <circle cx="84" cy="36" r="4" fill="#F97316"/>
  </g>

  <!-- Headline -->
  <g transform="translate(230 78)" fill="#FAFAFA"><path d="M10.12 11.21L10.12 11.21Q7.40 11.21 5.38 10.39Q3.35 9.57 2.23 7.90Q1.10 6.23 1.05 3.71L1.05 3.71L6.02 3.71Q6.09 4.76 6.60 5.48Q7.10 6.20 7.99 6.56Q8.88 6.91 10.06 6.91L10.06 6.91Q11.13 6.91 11.91 6.62Q12.69 6.33 13.10 5.80Q13.52 5.27 13.52 4.57L13.52 4.57Q13.52 3.94 13.13 3.50Q12.74 3.06 11.97 2.72Q11.19 2.39 9.99 2.12L9.99 2.12L7.68 1.58Q4.85 0.94 3.24-0.53Q1.63-1.99 1.63-4.45L1.63-4.45Q1.63-6.47 2.72-8.00Q3.82-9.52 5.73-10.36Q7.65-11.21 10.12-11.21L10.12-11.21Q12.66-11.21 14.52-10.35Q16.38-9.49 17.40-7.96Q18.43-6.43 18.46-4.41L18.46-4.41L13.49-4.41Q13.39-5.60 12.52-6.25Q11.66-6.91 10.11-6.91L10.11-6.91Q9.08-6.91 8.38-6.64Q7.68-6.37 7.32-5.90Q6.97-5.42 6.97-4.80L6.97-4.80Q6.97-4.13 7.37-3.67Q7.76-3.21 8.50-2.90Q9.23-2.59 10.20-2.37L10.20-2.37L12.08-1.93Q13.67-1.60 14.90-1.02Q16.14-0.44 17.00 0.37Q17.86 1.17 18.30 2.23Q18.75 3.28 18.75 4.58L18.75 4.58Q18.75 6.65 17.72 8.14Q16.68 9.62 14.76 10.42Q12.83 11.21 10.12 11.21ZM29.09 11.22L29.09 11.22Q26.53 11.22 24.68 10.16Q22.84 9.10 21.85 7.20Q20.86 5.30 20.86 2.78L20.86 2.78Q20.86 0.25 21.85-1.65Q22.84-3.54 24.68-4.61Q26.53-5.67 29.09-5.67L29.09-5.67Q31.66-5.67 33.50-4.61Q35.35-3.54 36.33-1.65Q37.31 0.25 37.31 2.78L37.31 2.78Q37.31 5.30 36.33 7.20Q35.35 9.10 33.50 10.16Q31.66 11.22 29.09 11.22ZM29.09 7.31L29.09 7.31Q30.07 7.31 30.75 6.74Q31.42 6.17 31.77 5.14Q32.11 4.12 32.11 2.75L32.11 2.75Q32.11 1.39 31.77 0.37Q31.42-0.64 30.75-1.20Q30.07-1.76 29.09-1.76L29.09-1.76Q28.11-1.76 27.44-1.20Q26.76-0.64 26.42 0.37Q26.07 1.39 26.07 2.75L26.07 2.75Q26.07 4.12 26.42 5.14Q26.76 6.17 27.44 6.74Q28.11 7.31 29.09 7.31ZM38.67-5.46L49.79-5.46L49.79-1.67L38.67-1.67L38.67-5.46ZM46.51 10.91L41.43 10.91L41.43-6.34Q41.43-8.22 42.13-9.46Q42.83-10.71 44.09-11.32Q45.35-11.94 46.99-11.94L46.99-11.94Q48.08-11.94 49.04-11.77Q50.00-11.60 50.43-11.47L50.43-11.47L49.61-7.73Q49.32-7.81 48.93-7.87Q48.53-7.94 48.13-7.94L48.13-7.94Q47.23-7.94 46.87-7.52Q46.51-7.10 46.51-6.39L46.51-6.39L46.51 10.91ZM50.96-5.46L61.19-5.46L61.19-1.67L50.96-1.67L50.96-5.46ZM53.13 6.36L53.13-9.36L58.24-9.36L58.24 5.90Q58.24 6.55 58.55 6.86Q58.86 7.18 59.55 7.18L59.55 7.18Q59.81 7.18 60.29 7.12Q60.76 7.06 60.97 7.00L60.97 7.00L61.63 10.72Q60.76 10.97 59.96 11.06Q59.15 11.15 58.43 11.15L58.43 11.15Q55.83 11.15 54.48 9.92Q53.13 8.70 53.13 6.36L53.13 6.36ZM72.33 10.91L67.12 10.91L62.34-5.46L67.69-5.46L68.89 0.15Q69.23 1.83 69.64 3.77Q70.05 5.71 70.37 8.01L70.37 8.01L69.84 8.01Q70.21 5.73 70.66 3.79Q71.12 1.85 71.50 0.15L71.50 0.15L72.80-5.46L77.34-5.46L78.60 0.15Q78.97 1.85 79.42 3.78Q79.88 5.71 80.24 8.01L80.24 8.01L79.75 8.01Q80.05 5.73 80.43 3.79Q80.82 1.86 81.17 0.15L81.17 0.15L82.35-5.46L87.79-5.46L82.97 10.91L77.75 10.91L76.05 5.04Q75.82 4.17 75.57 3.03Q75.32 1.89 75.09 0.71Q74.85-0.47 74.62-1.41L74.62-1.41L75.47-1.41Q75.25-0.47 75.01 0.71Q74.77 1.89 74.52 3.04Q74.28 4.19 74.03 5.04L74.03 5.04L72.33 10.91ZM94.28 11.21L94.28 11.21Q92.71 11.21 91.49 10.67Q90.26 10.14 89.58 9.06Q88.89 7.98 88.89 6.37L88.89 6.37Q88.89 5.01 89.36 4.07Q89.84 3.13 90.69 2.55Q91.54 1.96 92.64 1.66Q93.74 1.35 94.98 1.25L94.98 1.25Q96.37 1.13 97.22 0.99Q98.07 0.85 98.47 0.57Q98.86 0.29 98.86-0.21L98.86-0.21L98.86-0.26Q98.86-0.83 98.60-1.23Q98.33-1.63 97.84-1.83Q97.34-2.04 96.64-2.04L96.64-2.04Q95.93-2.04 95.38-1.83Q94.83-1.63 94.48-1.25Q94.13-0.86 93.98-0.35L93.98-0.35L89.36-0.95Q89.68-2.36 90.62-3.42Q91.57-4.48 93.10-5.08Q94.63-5.67 96.68-5.67L96.68-5.67Q98.20-5.67 99.53-5.31Q100.85-4.95 101.85-4.26Q102.85-3.56 103.40-2.54Q103.96-1.52 103.96-0.21L103.96-0.21L103.96 10.91L99.16 10.91L99.16 8.61L99.02 8.61Q98.58 9.46 97.90 10.03Q97.22 10.61 96.32 10.91Q95.42 11.21 94.28 11.21ZM95.83 7.82L95.83 7.82Q96.69 7.82 97.39 7.47Q98.09 7.12 98.50 6.50Q98.91 5.89 98.91 5.08L98.91 5.08L98.91 3.52Q98.69 3.63 98.36 3.74Q98.03 3.84 97.63 3.92Q97.24 4.00 96.84 4.06Q96.45 4.13 96.08 4.19L96.08 4.19Q95.33 4.29 94.80 4.54Q94.28 4.79 94.00 5.19Q93.72 5.58 93.72 6.14L93.72 6.14Q93.72 6.68 94.00 7.05Q94.28 7.43 94.75 7.62Q95.21 7.82 95.83 7.82ZM112.46 10.91L107.34 10.91L107.34-5.46L112.31-5.46L112.31-2.48L112.49-2.48Q112.92-4.10 113.94-4.89Q114.96-5.67 116.31-5.67L116.31-5.67Q116.66-5.67 117.05-5.63Q117.44-5.58 117.76-5.49L117.76-5.49L117.76-1.04Q117.39-1.17 116.80-1.24Q116.21-1.30 115.74-1.30L115.74-1.30Q114.80-1.30 114.05-0.89Q113.31-0.47 112.88 0.26Q112.46 1.00 112.46 1.98L112.46 1.98L112.46 10.91ZM127.57 11.22L127.57 11.22Q125.01 11.22 123.15 10.20Q121.29 9.18 120.30 7.29Q119.31 5.41 119.31 2.78L119.31 2.78Q119.31 0.26 120.30-1.64Q121.29-3.54 123.11-4.61Q124.92-5.67 127.38-5.67L127.38-5.67Q129.11-5.67 130.55-5.13Q132.00-4.58 133.06-3.52Q134.12-2.46 134.70-0.91Q135.28 0.64 135.28 2.68L135.28 2.68L135.28 3.97L121.13 3.97L121.13 1.00L132.85 1.00L130.46 1.70Q130.46 0.56 130.11-0.26Q129.77-1.08 129.10-1.52Q128.42-1.96 127.43-1.96L127.43-1.96Q126.43-1.96 125.74-1.52Q125.05-1.07 124.69-0.27Q124.34 0.53 124.34 1.60L124.34 1.60L124.34 3.74Q124.34 5.00 124.75 5.84Q125.17 6.68 125.92 7.10Q126.67 7.51 127.66 7.51L127.66 7.51Q128.35 7.51 128.91 7.32Q129.48 7.13 129.88 6.75Q130.28 6.37 130.49 5.83L130.49 5.83L135.04 6.58Q134.63 7.98 133.63 9.03Q132.63 10.08 131.10 10.65Q129.57 11.22 127.57 11.22ZM143.13-5.46L154.25-5.46L154.25-1.67L143.13-1.67L143.13-5.46ZM150.97 10.91L145.88 10.91L145.88-6.34Q145.88-8.22 146.59-9.46Q147.29-10.71 148.55-11.32Q149.81-11.94 151.45-11.94L151.45-11.94Q152.53-11.94 153.49-11.77Q154.45-11.60 154.89-11.47L154.89-11.47L154.07-7.73Q153.78-7.81 153.38-7.87Q152.99-7.94 152.59-7.94L152.59-7.94Q151.68-7.94 151.33-7.52Q150.97-7.10 150.97-6.39L150.97-6.39L150.97 10.91ZM164.41 11.22L164.41 11.22Q161.85 11.22 160.00 10.16Q158.16 9.10 157.17 7.20Q156.18 5.30 156.18 2.78L156.18 2.78Q156.18 0.25 157.17-1.65Q158.16-3.54 160.00-4.61Q161.85-5.67 164.41-5.67L164.41-5.67Q166.98-5.67 168.82-4.61Q170.67-3.54 171.65-1.65Q172.63 0.25 172.63 2.78L172.63 2.78Q172.63 5.30 171.65 7.20Q170.67 9.10 168.82 10.16Q166.98 11.22 164.41 11.22ZM164.41 7.31L164.41 7.31Q165.40 7.31 166.07 6.74Q166.74 6.17 167.09 5.14Q167.43 4.12 167.43 2.75L167.43 2.75Q167.43 1.39 167.09 0.37Q166.74-0.64 166.07-1.20Q165.40-1.76 164.41-1.76L164.41-1.76Q163.43-1.76 162.76-1.20Q162.08-0.64 161.74 0.37Q161.40 1.39 161.40 2.75L161.40 2.75Q161.40 4.12 161.74 5.14Q162.08 6.17 162.76 6.74Q163.43 7.31 164.41 7.31ZM180.50 10.91L175.39 10.91L175.39-5.46L180.35-5.46L180.35-2.48L180.53-2.48Q180.97-4.10 181.98-4.89Q183.00-5.67 184.35-5.67L184.35-5.67Q184.70-5.67 185.09-5.63Q185.48-5.58 185.80-5.49L185.80-5.49L185.80-1.04Q185.43-1.17 184.84-1.24Q184.25-1.30 183.78-1.30L183.78-1.30Q182.84-1.30 182.09-0.89Q181.35-0.47 180.92 0.26Q180.50 1.00 180.50 1.98L180.50 1.98L180.50 10.91ZM193.15-5.46L203.38-5.46L203.38-1.67L193.15-1.67L193.15-5.46ZM195.32 6.36L195.32-9.36L200.43-9.36L200.43 5.90Q200.43 6.55 200.74 6.86Q201.05 7.18 201.74 7.18L201.74 7.18Q202.00 7.18 202.48 7.12Q202.95 7.06 203.16 7.00L203.16 7.00L203.82 10.72Q202.95 10.97 202.15 11.06Q201.34 11.15 200.63 11.15L200.63 11.15Q198.02 11.15 196.67 9.92Q195.32 8.70 195.32 6.36L195.32 6.36ZM211.11 1.57L211.11 1.57L211.11 10.91L206.00 10.91L206.00-10.91L211.01-10.91L211.01-1.33L210.69-1.33Q211.29-3.28 212.57-4.48Q213.85-5.67 216.02-5.67L216.02-5.67Q217.73-5.67 219.01-4.91Q220.28-4.15 220.99-2.75Q221.69-1.36 221.69 0.48L221.69 0.48L221.69 10.91L216.58 10.91L216.58 1.48Q216.58 0.10 215.87-0.68Q215.17-1.46 213.91-1.46L213.91-1.46Q213.09-1.46 212.45-1.11Q211.82-0.75 211.46-0.07Q211.11 0.60 211.11 1.57ZM232.69 11.22L232.69 11.22Q230.13 11.22 228.27 10.20Q226.41 9.18 225.42 7.29Q224.43 5.41 224.43 2.78L224.43 2.78Q224.43 0.26 225.42-1.64Q226.41-3.54 228.22-4.61Q230.04-5.67 232.50-5.67L232.50-5.67Q234.23-5.67 235.67-5.13Q237.11-4.58 238.18-3.52Q239.24-2.46 239.82-0.91Q240.40 0.64 240.40 2.68L240.40 2.68L240.40 3.97L226.25 3.97L226.25 1.00L237.96 1.00L235.58 1.70Q235.58 0.56 235.23-0.26Q234.89-1.08 234.21-1.52Q233.54-1.96 232.54-1.96L232.54-1.96Q231.55-1.96 230.86-1.52Q230.17-1.07 229.81-0.27Q229.45 0.53 229.45 1.60L229.45 1.60L229.45 3.74Q229.45 5.00 229.87 5.84Q230.29 6.68 231.04 7.10Q231.78 7.51 232.78 7.51L232.78 7.51Q233.47 7.51 234.03 7.32Q234.59 7.13 235.00 6.75Q235.40 6.37 235.61 5.83L235.61 5.83L240.16 6.58Q239.75 7.98 238.75 9.03Q237.74 10.08 236.21 10.65Q234.68 11.22 232.69 11.22ZM254.75 10.91L249.64 10.91L249.64-5.46L254.75-5.46L254.75 10.91ZM252.19-7.38L252.19-7.38Q251.10-7.38 250.33-8.11Q249.55-8.83 249.55-9.84L249.55-9.84Q249.55-10.87 250.33-11.59Q251.10-12.30 252.19-12.30L252.19-12.30Q253.29-12.30 254.06-11.59Q254.84-10.88 254.84-9.84L254.84-9.84Q254.84-8.82 254.06-8.10Q253.29-7.38 252.19-7.38ZM263.25 1.57L263.25 1.57L263.25 10.91L258.13 10.91L258.13-5.46L262.94-5.46L263.04-1.33L262.82-1.33Q263.42-3.28 264.70-4.48Q265.99-5.67 268.15-5.67L268.15-5.67Q269.87-5.67 271.14-4.91Q272.42-4.15 273.12-2.75Q273.82-1.36 273.82 0.48L273.82 0.48L273.82 10.91L268.71 10.91L268.71 1.48Q268.71 0.10 268.01-0.68Q267.30-1.46 266.04-1.46L266.04-1.46Q265.22-1.46 264.59-1.11Q263.95-0.75 263.60-0.07Q263.25 0.60 263.25 1.57ZM283.13 11.15L283.13 11.15Q281.31 11.15 279.81 10.20Q278.32 9.26 277.44 7.39Q276.56 5.52 276.56 2.74L276.56 2.74Q276.56-0.13 277.48-2.00Q278.39-3.87 279.88-4.77Q281.37-5.67 283.08-5.67L283.08-5.67Q284.38-5.67 285.31-5.22Q286.23-4.78 286.82-4.09Q287.42-3.40 287.72-2.65L287.72-2.65L287.84-2.65L287.84-10.91L292.94-10.91L292.94 10.91L287.90 10.91L287.90 8.26L287.72 8.26Q287.40 8.99 286.79 9.65Q286.19 10.31 285.29 10.73Q284.38 11.15 283.13 11.15ZM284.87 7.16L284.87 7.16Q285.83 7.16 286.53 6.61Q287.23 6.06 287.59 5.07Q287.96 4.07 287.96 2.74L287.96 2.74Q287.96 1.38 287.59 0.39Q287.23-0.60 286.53-1.14Q285.83-1.67 284.87-1.67L284.87-1.67Q283.89-1.67 283.21-1.12Q282.52-0.57 282.17 0.42Q281.82 1.41 281.82 2.74L281.82 2.74Q281.82 4.06 282.17 5.06Q282.52 6.06 283.21 6.61Q283.89 7.16 284.87 7.16ZM302.01 11.12L302.01 11.12Q300.29 11.12 299.01 10.36Q297.73 9.59 297.03 8.20Q296.32 6.81 296.32 4.97L296.32 4.97L296.32-5.46L301.44-5.46L301.44 3.97Q301.44 5.35 302.15 6.13Q302.86 6.91 304.10 6.91L304.10 6.91Q304.95 6.91 305.57 6.56Q306.20 6.20 306.55 5.52Q306.90 4.83 306.90 3.88L306.90 3.88L306.90-5.46L312.01-5.46L312.01 10.91L307.21 10.91L307.12 6.78L307.34 6.78Q306.72 8.75 305.43 9.93Q304.15 11.12 302.01 11.12ZM322.28 11.22L322.28 11.22Q320.19 11.22 318.57 10.63Q316.96 10.03 315.95 8.91Q314.94 7.79 314.65 6.23L314.65 6.23L319.39 5.48Q319.70 6.55 320.43 7.09Q321.17 7.63 322.47 7.63L322.47 7.63Q323.54 7.63 324.16 7.26Q324.77 6.88 324.77 6.27L324.77 6.27Q324.77 5.70 324.28 5.35Q323.79 5.01 322.76 4.80L322.76 4.80L319.91 4.25Q317.48 3.78 316.27 2.60Q315.06 1.42 315.06-0.47L315.06-0.47Q315.06-2.11 315.94-3.27Q316.83-4.42 318.45-5.05Q320.07-5.67 322.27-5.67L322.27-5.67Q324.32-5.67 325.83-5.12Q327.35-4.57 328.28-3.55Q329.21-2.53 329.49-1.13L329.49-1.13L324.98-0.41Q324.76-1.23 324.07-1.69Q323.39-2.15 322.35-2.15L322.35-2.15Q321.43-2.15 320.79-1.78Q320.16-1.41 320.16-0.78L320.16-0.78Q320.16-0.28 320.55 0.10Q320.95 0.47 322.00 0.67L322.00 0.67L325.14 1.26Q327.57 1.73 328.76 2.81Q329.96 3.90 329.96 5.68L329.96 5.68Q329.96 7.37 328.97 8.61Q327.98 9.86 326.25 10.54Q324.52 11.22 322.28 11.22ZM331.19-5.46L341.41-5.46L341.41-1.67L331.19-1.67L331.19-5.46ZM333.35 6.36L333.35-9.36L338.47-9.36L338.47 5.90Q338.47 6.55 338.77 6.86Q339.08 7.18 339.77 7.18L339.77 7.18Q340.03 7.18 340.51 7.12Q340.99 7.06 341.19 7.00L341.19 7.00L341.85 10.72Q340.99 10.97 340.18 11.06Q339.38 11.15 338.66 11.15L338.66 11.15Q336.05 11.15 334.70 9.92Q333.35 8.70 333.35 6.36L333.35 6.36ZM349.15 10.91L344.03 10.91L344.03-5.46L349.00-5.46L349.00-2.48L349.17-2.48Q349.61-4.10 350.63-4.89Q351.65-5.67 353.00-5.67L353.00-5.67Q353.35-5.67 353.74-5.63Q354.13-5.58 354.45-5.49L354.45-5.49L354.45-1.04Q354.08-1.17 353.49-1.24Q352.90-1.30 352.43-1.30L352.43-1.30Q351.49-1.30 350.74-0.89Q350.00-0.47 349.57 0.26Q349.15 1.00 349.15 1.98L349.15 1.98L349.15 10.91ZM361.74 10.91L356.63 10.91L356.63-5.46L361.74-5.46L361.74 10.91ZM359.18-7.38L359.18-7.38Q358.10-7.38 357.32-8.11Q356.54-8.83 356.54-9.84L356.54-9.84Q356.54-10.87 357.32-11.59Q358.10-12.30 359.18-12.30L359.18-12.30Q360.28-12.30 361.05-11.59Q361.83-10.88 361.83-9.84L361.83-9.84Q361.83-8.82 361.05-8.10Q360.28-7.38 359.18-7.38ZM372.76 11.22L372.76 11.22Q370.20 11.22 368.33 10.20Q366.47 9.18 365.49 7.29Q364.50 5.41 364.50 2.78L364.50 2.78Q364.50 0.26 365.49-1.64Q366.47-3.54 368.29-4.61Q370.11-5.67 372.57-5.67L372.57-5.67Q374.30-5.67 375.74-5.13Q377.18-4.58 378.24-3.52Q379.31-2.46 379.89-0.91Q380.46 0.64 380.46 2.68L380.46 2.68L380.46 3.97L366.31 3.97L366.31 1.00L378.03 1.00L375.64 1.70Q375.64 0.56 375.30-0.26Q374.96-1.08 374.28-1.52Q373.61-1.96 372.61-1.96L372.61-1.96Q371.62-1.96 370.93-1.52Q370.24-1.07 369.88-0.27Q369.52 0.53 369.52 1.60L369.52 1.60L369.52 3.74Q369.52 5.00 369.94 5.84Q370.36 6.68 371.10 7.10Q371.85 7.51 372.85 7.51L372.85 7.51Q373.54 7.51 374.10 7.32Q374.66 7.13 375.07 6.75Q375.47 6.37 375.67 5.83L375.67 5.83L380.23 6.58Q379.82 7.98 378.82 9.03Q377.81 10.08 376.28 10.65Q374.75 11.22 372.76 11.22ZM390.04 11.22L390.04 11.22Q387.95 11.22 386.34 10.63Q384.73 10.03 383.72 8.91Q382.71 7.79 382.41 6.23L382.41 6.23L387.16 5.48Q387.47 6.55 388.20 7.09Q388.93 7.63 390.23 7.63L390.23 7.63Q391.30 7.63 391.92 7.26Q392.53 6.88 392.53 6.27L392.53 6.27Q392.53 5.70 392.04 5.35Q391.55 5.01 390.53 4.80L390.53 4.80L387.67 4.25Q385.24 3.78 384.03 2.60Q382.82 1.42 382.82-0.47L382.82-0.47Q382.82-2.11 383.71-3.27Q384.59-4.42 386.21-5.05Q387.83-5.67 390.03-5.67L390.03-5.67Q392.08-5.67 393.60-5.12Q395.11-4.57 396.04-3.55Q396.97-2.53 397.25-1.13L397.25-1.13L392.74-0.41Q392.52-1.23 391.84-1.69Q391.16-2.15 390.12-2.15L390.12-2.15Q389.19-2.15 388.56-1.78Q387.92-1.41 387.92-0.78L387.92-0.78Q387.92-0.28 388.32 0.10Q388.71 0.47 389.77 0.67L389.77 0.67L392.90 1.26Q395.33 1.73 396.53 2.81Q397.72 3.90 397.72 5.68L397.72 5.68Q397.72 7.37 396.73 8.61Q395.74 9.86 394.01 10.54Q392.29 11.22 390.04 11.22Z"/></g>
  <g transform="translate(230 114)" fill="#FAFAFA"><path d="M0.29-5.46L10.52-5.46L10.52-1.67L0.29-1.67L0.29-5.46ZM2.46 6.36L2.46-9.36L7.57-9.36L7.57 5.90Q7.57 6.55 7.88 6.86Q8.19 7.18 8.88 7.18L8.88 7.18Q9.14 7.18 9.62 7.12Q10.09 7.06 10.30 7.00L10.30 7.00L10.96 10.72Q10.09 10.97 9.29 11.06Q8.48 11.15 7.76 11.15L7.76 11.15Q5.16 11.15 3.81 9.92Q2.46 8.70 2.46 6.36L2.46 6.36ZM18.25 1.57L18.25 1.57L18.25 10.91L13.14 10.91L13.14-10.91L18.15-10.91L18.15-1.33L17.83-1.33Q18.43-3.28 19.71-4.48Q20.99-5.67 23.16-5.67L23.16-5.67Q24.87-5.67 26.15-4.91Q27.42-4.15 28.13-2.75Q28.83-1.36 28.83 0.48L28.83 0.48L28.83 10.91L23.72 10.91L23.72 1.48Q23.72 0.10 23.01-0.68Q22.31-1.46 21.05-1.46L21.05-1.46Q20.23-1.46 19.59-1.11Q18.96-0.75 18.60-0.07Q18.25 0.60 18.25 1.57ZM36.78 11.21L36.78 11.21Q35.21 11.21 33.99 10.67Q32.77 10.14 32.08 9.06Q31.39 7.98 31.39 6.37L31.39 6.37Q31.39 5.01 31.87 4.07Q32.34 3.13 33.19 2.55Q34.04 1.96 35.14 1.66Q36.24 1.35 37.49 1.25L37.49 1.25Q38.88 1.13 39.73 0.99Q40.58 0.85 40.97 0.57Q41.37 0.29 41.37-0.21L41.37-0.21L41.37-0.26Q41.37-0.83 41.10-1.23Q40.84-1.63 40.34-1.83Q39.84-2.04 39.14-2.04L39.14-2.04Q38.44-2.04 37.89-1.83Q37.34-1.63 36.99-1.25Q36.64-0.86 36.49-0.35L36.49-0.35L31.86-0.95Q32.18-2.36 33.13-3.42Q34.07-4.48 35.60-5.08Q37.13-5.67 39.18-5.67L39.18-5.67Q40.71-5.67 42.03-5.31Q43.36-4.95 44.36-4.26Q45.35-3.56 45.91-2.54Q46.46-1.52 46.46-0.21L46.46-0.21L46.46 10.91L41.66 10.91L41.66 8.61L41.53 8.61Q41.09 9.46 40.41 10.03Q39.73 10.61 38.83 10.91Q37.92 11.21 36.78 11.21ZM38.33 7.82L38.33 7.82Q39.20 7.82 39.90 7.47Q40.59 7.12 41.00 6.50Q41.41 5.89 41.41 5.08L41.41 5.08L41.41 3.52Q41.19 3.63 40.86 3.74Q40.53 3.84 40.14 3.92Q39.74 4.00 39.35 4.06Q38.95 4.13 38.58 4.19L38.58 4.19Q37.84 4.29 37.31 4.54Q36.78 4.79 36.50 5.19Q36.23 5.58 36.23 6.14L36.23 6.14Q36.23 6.68 36.50 7.05Q36.78 7.43 37.25 7.62Q37.72 7.82 38.33 7.82ZM48.46-5.46L58.68-5.46L58.68-1.67L48.46-1.67L48.46-5.46ZM50.63 6.36L50.63-9.36L55.74-9.36L55.74 5.90Q55.74 6.55 56.04 6.86Q56.35 7.18 57.04 7.18L57.04 7.18Q57.30 7.18 57.78 7.12Q58.26 7.06 58.46 7.00L58.46 7.00L59.12 10.72Q58.26 10.97 57.45 11.06Q56.65 11.15 55.93 11.15L55.93 11.15Q53.32 11.15 51.97 9.92Q50.63 8.70 50.63 6.36L50.63 6.36ZM72.98 10.91L67.87 10.91L67.87-5.46L72.57-5.46L72.86-1.22L72.51-1.22Q72.89-2.81 73.65-3.79Q74.40-4.78 75.40-5.23Q76.41-5.68 77.52-5.68L77.52-5.68Q79.28-5.68 80.35-4.56Q81.43-3.43 82.02-0.86L82.02-0.86L81.45-0.86Q81.84-2.58 82.69-3.65Q83.54-4.72 84.68-5.20Q85.83-5.68 87.06-5.68L87.06-5.68Q88.59-5.68 89.77-5.02Q90.95-4.35 91.63-3.11Q92.30-1.88 92.30-0.13L92.30-0.13L92.30 10.91L87.20 10.91L87.20 1.03Q87.20-0.22 86.55-0.86Q85.90-1.51 84.89-1.51L84.89-1.51Q84.17-1.51 83.64-1.19Q83.10-0.86 82.82-0.29Q82.54 0.29 82.54 1.08L82.54 1.08L82.54 10.91L77.64 10.91L77.64 0.95Q77.64-0.18 77.01-0.84Q76.38-1.51 75.35-1.51L75.35-1.51Q74.65-1.51 74.11-1.19Q73.58-0.86 73.28-0.27Q72.98 0.32 72.98 1.19L72.98 1.19L72.98 10.91ZM103.29 11.22L103.29 11.22Q100.72 11.22 98.88 10.16Q97.03 9.10 96.04 7.20Q95.05 5.30 95.05 2.78L95.05 2.78Q95.05 0.25 96.04-1.65Q97.03-3.54 98.88-4.61Q100.72-5.67 103.29-5.67L103.29-5.67Q105.85-5.67 107.70-4.61Q109.54-3.54 110.52-1.65Q111.50 0.25 111.50 2.78L111.50 2.78Q111.50 5.30 110.52 7.20Q109.54 9.10 107.70 10.16Q105.85 11.22 103.29 11.22ZM103.29 7.31L103.29 7.31Q104.27 7.31 104.94 6.74Q105.62 6.17 105.96 5.14Q106.30 4.12 106.30 2.75L106.30 2.75Q106.30 1.39 105.96 0.37Q105.62-0.64 104.94-1.20Q104.27-1.76 103.29-1.76L103.29-1.76Q102.30-1.76 101.63-1.20Q100.96-0.64 100.61 0.37Q100.27 1.39 100.27 2.75L100.27 2.75Q100.27 4.12 100.61 5.14Q100.96 6.17 101.63 6.74Q102.30 7.31 103.29 7.31ZM124.75 10.91L118.83 10.91L112.90-5.46L118.29-5.46L120.73 2.55Q121.23 4.16 121.60 5.84Q121.96 7.53 122.34 9.40L122.34 9.40L121.41 9.40Q121.77 7.53 122.13 5.85Q122.49 4.17 122.97 2.55L122.97 2.55L125.38-5.46L130.71-5.46L124.75 10.91ZM140.35 11.22L140.35 11.22Q137.78 11.22 135.92 10.20Q134.06 9.18 133.07 7.29Q132.08 5.41 132.08 2.78L132.08 2.78Q132.08 0.26 133.07-1.64Q134.06-3.54 135.88-4.61Q137.70-5.67 140.16-5.67L140.16-5.67Q141.88-5.67 143.33-5.13Q144.77-4.58 145.83-3.52Q146.89-2.46 147.47-0.91Q148.05 0.64 148.05 2.68L148.05 2.68L148.05 3.97L133.90 3.97L133.90 1.00L145.62 1.00L143.23 1.70Q143.23 0.56 142.89-0.26Q142.54-1.08 141.87-1.52Q141.20-1.96 140.20-1.96L140.20-1.96Q139.20-1.96 138.52-1.52Q137.83-1.07 137.47-0.27Q137.11 0.53 137.11 1.60L137.11 1.60L137.11 3.74Q137.11 5.00 137.53 5.84Q137.94 6.68 138.69 7.10Q139.44 7.51 140.43 7.51L140.43 7.51Q141.12 7.51 141.69 7.32Q142.25 7.13 142.65 6.75Q143.06 6.37 143.26 5.83L143.26 5.83L147.82 6.58Q147.41 7.98 146.40 9.03Q145.40 10.08 143.87 10.65Q142.34 11.22 140.35 11.22ZM155.90-5.46L166.13-5.46L166.13-1.67L155.90-1.67L155.90-5.46ZM158.07 6.36L158.07-9.36L163.18-9.36L163.18 5.90Q163.18 6.55 163.49 6.86Q163.80 7.18 164.49 7.18L164.49 7.18Q164.75 7.18 165.23 7.12Q165.70 7.06 165.91 7.00L165.91 7.00L166.57 10.72Q165.70 10.97 164.90 11.06Q164.09 11.15 163.37 11.15L163.37 11.15Q160.77 11.15 159.42 9.92Q158.07 8.70 158.07 6.36L158.07 6.36ZM173.86 1.57L173.86 1.57L173.86 10.91L168.75 10.91L168.75-10.91L173.76-10.91L173.76-1.33L173.44-1.33Q174.04-3.28 175.32-4.48Q176.60-5.67 178.77-5.67L178.77-5.67Q180.48-5.67 181.76-4.91Q183.03-4.15 183.74-2.75Q184.44-1.36 184.44 0.48L184.44 0.48L184.44 10.91L179.33 10.91L179.33 1.48Q179.33 0.10 178.62-0.68Q177.92-1.46 176.66-1.46L176.66-1.46Q175.84-1.46 175.20-1.11Q174.57-0.75 174.21-0.07Q173.86 0.60 173.86 1.57ZM195.44 11.22L195.44 11.22Q192.88 11.22 191.02 10.20Q189.16 9.18 188.17 7.29Q187.18 5.41 187.18 2.78L187.18 2.78Q187.18 0.26 188.17-1.64Q189.16-3.54 190.97-4.61Q192.79-5.67 195.25-5.67L195.25-5.67Q196.98-5.67 198.42-5.13Q199.86-4.58 200.93-3.52Q201.99-2.46 202.57-0.91Q203.14 0.64 203.14 2.68L203.14 2.68L203.14 3.97L188.99 3.97L188.99 1.00L200.71 1.00L198.33 1.70Q198.33 0.56 197.98-0.26Q197.64-1.08 196.96-1.52Q196.29-1.96 195.29-1.96L195.29-1.96Q194.30-1.96 193.61-1.52Q192.92-1.07 192.56-0.27Q192.20 0.53 192.20 1.60L192.20 1.60L192.20 3.74Q192.20 5.00 192.62 5.84Q193.04 6.68 193.78 7.10Q194.53 7.51 195.53 7.51L195.53 7.51Q196.22 7.51 196.78 7.32Q197.34 7.13 197.75 6.75Q198.15 6.37 198.35 5.83L198.35 5.83L202.91 6.58Q202.50 7.98 201.50 9.03Q200.49 10.08 198.96 10.65Q197.43 11.22 195.44 11.22ZM220.91 10.91L215.70 10.91L210.92-5.46L216.27-5.46L217.47 0.15Q217.81 1.83 218.22 3.77Q218.63 5.71 218.95 8.01L218.95 8.01L218.42 8.01Q218.79 5.73 219.24 3.79Q219.70 1.85 220.08 0.15L220.08 0.15L221.38-5.46L225.92-5.46L227.18 0.15Q227.55 1.85 228.00 3.78Q228.46 5.71 228.82 8.01L228.82 8.01L228.33 8.01Q228.63 5.73 229.01 3.79Q229.39 1.86 229.75 0.15L229.75 0.15L230.93-5.46L236.37-5.46L231.55 10.91L226.33 10.91L224.63 5.04Q224.40 4.17 224.15 3.03Q223.90 1.89 223.67 0.71Q223.43-0.47 223.20-1.41L223.20-1.41L224.05-1.41Q223.83-0.47 223.59 0.71Q223.34 1.89 223.10 3.04Q222.86 4.19 222.61 5.04L222.61 5.04L220.91 10.91ZM245.87 11.22L245.87 11.22Q243.31 11.22 241.46 10.16Q239.62 9.10 238.63 7.20Q237.64 5.30 237.64 2.78L237.64 2.78Q237.64 0.25 238.63-1.65Q239.62-3.54 241.46-4.61Q243.31-5.67 245.87-5.67L245.87-5.67Q248.44-5.67 250.28-4.61Q252.13-3.54 253.11-1.65Q254.09 0.25 254.09 2.78L254.09 2.78Q254.09 5.30 253.11 7.20Q252.13 9.10 250.28 10.16Q248.44 11.22 245.87 11.22ZM245.87 7.31L245.87 7.31Q246.86 7.31 247.53 6.74Q248.20 6.17 248.55 5.14Q248.89 4.12 248.89 2.75L248.89 2.75Q248.89 1.39 248.55 0.37Q248.20-0.64 247.53-1.20Q246.86-1.76 245.87-1.76L245.87-1.76Q244.89-1.76 244.22-1.20Q243.54-0.64 243.20 0.37Q242.86 1.39 242.86 2.75L242.86 2.75Q242.86 4.12 243.20 5.14Q243.54 6.17 244.22 6.74Q244.89 7.31 245.87 7.31ZM261.96 10.91L256.85 10.91L256.85-5.46L261.81-5.46L261.81-2.48L261.99-2.48Q262.43-4.10 263.44-4.89Q264.46-5.67 265.81-5.67L265.81-5.67Q266.16-5.67 266.55-5.63Q266.94-5.58 267.26-5.49L267.26-5.49L267.26-1.04Q266.89-1.17 266.30-1.24Q265.71-1.30 265.24-1.30L265.24-1.30Q264.30-1.30 263.55-0.89Q262.81-0.47 262.38 0.26Q261.96 1.00 261.96 1.98L261.96 1.98L261.96 10.91ZM269.44-10.91L274.56-10.91L274.56 10.91L269.44 10.91L269.44-10.91ZM283.87 11.15L283.87 11.15Q282.06 11.15 280.56 10.20Q279.07 9.26 278.19 7.39Q277.31 5.52 277.31 2.74L277.31 2.74Q277.31-0.13 278.23-2.00Q279.14-3.87 280.63-4.77Q282.11-5.67 283.83-5.67L283.83-5.67Q285.13-5.67 286.05-5.22Q286.98-4.78 287.57-4.09Q288.16-3.40 288.47-2.65L288.47-2.65L288.59-2.65L288.59-10.91L293.69-10.91L293.69 10.91L288.65 10.91L288.65 8.26L288.47 8.26Q288.15 8.99 287.54 9.65Q286.93 10.31 286.03 10.73Q285.13 11.15 283.87 11.15ZM285.62 7.16L285.62 7.16Q286.58 7.16 287.28 6.61Q287.97 6.06 288.34 5.07Q288.71 4.07 288.71 2.74L288.71 2.74Q288.71 1.38 288.34 0.39Q287.97-0.60 287.28-1.14Q286.58-1.67 285.62-1.67L285.62-1.67Q284.63-1.67 283.95-1.12Q283.27-0.57 282.92 0.42Q282.57 1.41 282.57 2.74L282.57 2.74Q282.57 4.06 282.92 5.06Q283.27 6.06 283.95 6.61Q284.63 7.16 285.62 7.16ZM300.67 11.22L300.67 11.22Q299.50 11.22 298.70 10.44Q297.91 9.65 297.91 8.50L297.91 8.50Q297.91 7.32 298.70 6.54Q299.50 5.76 300.67 5.76L300.67 5.76Q301.85 5.76 302.64 6.54Q303.44 7.32 303.44 8.50L303.44 8.50Q303.44 9.65 302.64 10.44Q301.85 11.22 300.67 11.22Z"/></g>

  <!-- Subline -->
  <g transform="translate(230 150)" fill="#F97316"><path d="M3.96 4.00L0.89 4.00L0.89-4.00L3.83-4.00Q4.69-4.00 5.25-3.72Q5.81-3.44 6.08-2.97Q6.35-2.49 6.35-1.90L6.35-1.90Q6.35-1.40 6.17-1.06Q5.99-0.72 5.68-0.51Q5.37-0.31 5.00-0.21L5.00-0.21L5.00-0.13Q5.40-0.11 5.78 0.13Q6.17 0.37 6.42 0.80Q6.67 1.23 6.67 1.85L6.67 1.85Q6.67 2.45 6.38 2.94Q6.09 3.43 5.49 3.72Q4.90 4.00 3.96 4.00L3.96 4.00ZM2.11 0.41L2.11 2.95L3.84 2.95Q4.70 2.95 5.08 2.62Q5.45 2.28 5.45 1.79L5.45 1.79Q5.45 1.40 5.26 1.09Q5.07 0.78 4.72 0.59Q4.37 0.41 3.89 0.41L3.89 0.41L2.11 0.41ZM2.11-2.95L2.11-0.54L3.72-0.54Q4.12-0.54 4.45-0.69Q4.77-0.85 4.96-1.13Q5.15-1.42 5.15-1.80L5.15-1.80Q5.15-2.29 4.81-2.62Q4.46-2.95 3.75-2.95L3.75-2.95L2.11-2.95ZM14.23 4.13L14.23 4.13Q13.27 4.13 12.55 3.75Q11.83 3.38 11.44 2.74Q11.04 2.09 11.04 1.25L11.04 1.25L11.04-4.00L12.27-4.00L12.27 1.15Q12.27 1.69 12.51 2.11Q12.75 2.53 13.19 2.77Q13.63 3.01 14.23 3.01L14.23 3.01Q14.83 3.01 15.27 2.77Q15.71 2.53 15.95 2.11Q16.18 1.69 16.18 1.15L16.18 1.15L16.18-4.00L17.41-4.00L17.41 1.25Q17.41 2.09 17.02 2.74Q16.62 3.38 15.91 3.75Q15.19 4.13 14.23 4.13ZM22.12-4.00L23.34-4.00L23.34 4.00L22.12 4.00L22.12-4.00ZM32.90 4.00L28.05 4.00L28.05-4.00L29.27-4.00L29.27 2.95L32.90 2.95L32.90 4.00ZM39.80 4.00L39.80 4.00L37.82 4.00L37.82 2.93L39.74 2.93Q40.64 2.93 41.24 2.59Q41.85 2.25 42.15 1.59Q42.45 0.93 42.45-0.01L42.45-0.01Q42.45-0.95 42.15-1.60Q41.85-2.25 41.26-2.59Q40.68-2.93 39.80-2.93L39.80-2.93L37.78-2.93L37.78-4.00L39.88-4.00Q41.06-4.00 41.91-3.52Q42.75-3.05 43.20-2.15Q43.65-1.26 43.65-0.01L43.65-0.01Q43.65 1.24 43.20 2.14Q42.74 3.03 41.88 3.52Q41.02 4.00 39.80 4.00ZM37.20-4.00L38.42-4.00L38.42 4.00L37.20 4.00L37.20-4.00ZM48.07-4.00L49.30-4.00L49.30 4.00L48.07 4.00L48.07-4.00ZM55.24 4.00L54.00 4.00L54.00-4.00L55.41-4.00L58.43 0.76Q58.58 1.00 58.77 1.33Q58.95 1.65 59.16 2.07Q59.37 2.48 59.58 2.96L59.58 2.96L59.43 2.96Q59.38 2.50 59.35 2.05Q59.33 1.61 59.32 1.21Q59.31 0.82 59.31 0.55L59.31 0.55L59.31-4.00L60.55-4.00L60.55 4.00L59.13 4.00L56.43-0.26Q56.21-0.61 56.01-0.96Q55.80-1.32 55.55-1.78Q55.30-2.25 54.94-2.91L54.94-2.91L55.13-2.91Q55.16-2.32 55.19-1.81Q55.21-1.29 55.23-0.90Q55.24-0.50 55.24-0.27L55.24-0.27L55.24 4.00ZM68.62 4.11L68.62 4.11Q67.53 4.11 66.71 3.61Q65.89 3.11 65.43 2.19Q64.97 1.27 64.97 0.01L64.97 0.01Q64.97-1.27 65.44-2.19Q65.90-3.12 66.71-3.61Q67.53-4.11 68.56-4.11L68.56-4.11Q69.21-4.11 69.77-3.92Q70.33-3.73 70.77-3.38Q71.22-3.02 71.50-2.54Q71.79-2.05 71.89-1.47L71.89-1.47L70.63-1.47Q70.52-1.82 70.33-2.10Q70.15-2.38 69.89-2.58Q69.63-2.78 69.30-2.89Q68.96-2.99 68.57-2.99L68.57-2.99Q67.90-2.99 67.36-2.65Q66.82-2.30 66.50-1.64Q66.19-0.97 66.19 0L66.19 0Q66.19 0.97 66.50 1.63Q66.82 2.30 67.36 2.65Q67.91 2.99 68.62 2.99L68.62 2.99Q69.27 2.99 69.75 2.73Q70.23 2.47 70.49 1.99Q70.76 1.51 70.76 0.85L70.76 0.85L71.08 0.91L68.80 0.91L68.80-0.10L71.96-0.10L71.96 0.82Q71.96 1.83 71.52 2.56Q71.09 3.30 70.34 3.71Q69.59 4.11 68.62 4.11ZM84.96 4.14L84.96 4.14Q84.06 4.14 83.40 3.85Q82.74 3.57 82.37 3.04Q82.00 2.51 81.96 1.78L81.96 1.78L83.19 1.78Q83.23 2.21 83.47 2.50Q83.71 2.78 84.11 2.92Q84.50 3.06 84.95 3.06L84.95 3.06Q85.46 3.06 85.86 2.90Q86.25 2.74 86.49 2.45Q86.72 2.16 86.72 1.77L86.72 1.77Q86.72 1.42 86.51 1.20Q86.31 0.98 85.97 0.83Q85.63 0.68 85.20 0.57L85.20 0.57L84.26 0.31Q83.28 0.05 82.73-0.47Q82.18-0.98 82.18-1.80L82.18-1.80Q82.18-2.50 82.55-3.02Q82.92-3.53 83.57-3.82Q84.21-4.11 85.01-4.11L85.01-4.11Q85.84-4.11 86.46-3.82Q87.09-3.53 87.44-3.03Q87.80-2.54 87.82-1.90L87.82-1.90L86.63-1.90Q86.57-2.44 86.12-2.74Q85.67-3.05 84.99-3.05L84.99-3.05Q84.50-3.05 84.15-2.90Q83.79-2.74 83.59-2.48Q83.40-2.21 83.40-1.87L83.40-1.87Q83.40-1.49 83.63-1.26Q83.86-1.03 84.20-0.89Q84.54-0.75 84.84-0.67L84.84-0.67L85.62-0.47Q86.00-0.37 86.41-0.21Q86.81-0.04 87.16 0.22Q87.50 0.48 87.71 0.86Q87.92 1.25 87.92 1.79L87.92 1.79Q87.92 2.47 87.58 3.00Q87.23 3.53 86.56 3.83Q85.90 4.14 84.96 4.14ZM92.31-4.00L93.54-4.00L93.54 4.00L92.31 4.00L92.31-4.00ZM99.48 4.00L98.24 4.00L98.24-4.00L99.66-4.00L102.67 0.76Q102.82 1.00 103.01 1.33Q103.19 1.65 103.40 2.07Q103.61 2.48 103.82 2.96L103.82 2.96L103.67 2.96Q103.62 2.50 103.59 2.05Q103.57 1.61 103.56 1.21Q103.55 0.82 103.55 0.55L103.55 0.55L103.55-4.00L104.79-4.00L104.79 4.00L103.37 4.00L100.67-0.26Q100.46-0.61 100.25-0.96Q100.04-1.32 99.79-1.78Q99.54-2.25 99.18-2.91L99.18-2.91L99.38-2.91Q99.40-2.32 99.43-1.81Q99.46-1.29 99.47-0.90Q99.48-0.50 99.48-0.27L99.48-0.27L99.48 4.00ZM112.82 4.11L112.82 4.11Q111.78 4.11 110.97 3.62Q110.15 3.13 109.68 2.20Q109.22 1.28 109.22 0.01L109.22 0.01Q109.22-1.28 109.68-2.20Q110.15-3.12 110.97-3.61Q111.78-4.11 112.82-4.11L112.82-4.11Q113.45-4.11 114.01-3.93Q114.57-3.74 115.00-3.39Q115.44-3.05 115.73-2.55Q116.02-2.05 116.12-1.41L116.12-1.41L114.89-1.41Q114.81-1.79 114.62-2.09Q114.43-2.38 114.16-2.58Q113.88-2.79 113.54-2.89Q113.21-2.99 112.83-2.99L112.83-2.99Q112.14-2.99 111.60-2.65Q111.05-2.30 110.74-1.63Q110.43-0.96 110.43 0.01L110.43 0.01Q110.43 0.97 110.75 1.64Q111.06 2.31 111.61 2.65Q112.15 2.99 112.83 2.99L112.83 2.99Q113.21 2.99 113.54 2.89Q113.88 2.78 114.15 2.58Q114.43 2.38 114.62 2.08Q114.81 1.79 114.89 1.41L114.89 1.41L116.12 1.41Q116.03 2.00 115.75 2.49Q115.47 2.99 115.04 3.35Q114.60 3.72 114.04 3.91Q113.48 4.11 112.82 4.11ZM125.57 4.00L120.50 4.00L120.50-4.00L125.53-4.00L125.53-2.95L121.72-2.95L121.72-0.56L125.26-0.56L125.26 0.48L121.72 0.48L121.72 2.95L125.57 2.95L125.57 4.00ZM141.10 4.00L135.81 4.00L135.81 3.12L138.53 0.31Q138.95-0.13 139.23-0.47Q139.51-0.81 139.65-1.12Q139.80-1.43 139.80-1.79L139.80-1.79Q139.80-2.19 139.61-2.48Q139.43-2.77 139.11-2.93Q138.79-3.08 138.38-3.08L138.38-3.08Q137.96-3.08 137.64-2.91Q137.32-2.73 137.15-2.42Q136.98-2.10 136.98-1.67L136.98-1.67L135.80-1.67Q135.80-2.40 136.14-2.95Q136.48-3.50 137.06-3.81Q137.65-4.11 138.40-4.11L138.40-4.11Q139.17-4.11 139.74-3.81Q140.32-3.51 140.65-2.99Q140.98-2.48 140.98-1.83L140.98-1.83Q140.98-1.39 140.81-0.97Q140.65-0.55 140.24-0.03Q139.83 0.50 139.08 1.25L139.08 1.25L137.51 2.89L137.51 2.95L141.10 2.95L141.10 4.00ZM148.30 4.11L148.30 4.11Q147.37 4.11 146.71 3.63Q146.06 3.14 145.71 2.23Q145.36 1.31 145.36 0.01L145.36 0.01Q145.36-1.29 145.71-2.21Q146.06-3.13 146.71-3.62Q147.37-4.11 148.30-4.11L148.30-4.11Q149.23-4.11 149.89-3.62Q150.55-3.13 150.90-2.21Q151.24-1.29 151.24 0.01L151.24 0.01Q151.24 1.31 150.90 2.22Q150.55 3.14 149.89 3.63Q149.24 4.11 148.30 4.11ZM148.30 3.06L148.30 3.06Q148.85 3.06 149.24 2.70Q149.63 2.34 149.83 1.65Q150.03 0.97 150.03 0.01L150.03 0.01Q150.03-0.97 149.83-1.65Q149.63-2.34 149.24-2.70Q148.85-3.07 148.30-3.07L148.30-3.07Q147.75-3.07 147.36-2.70Q146.97-2.34 146.77-1.65Q146.57-0.97 146.57 0.01L146.57 0.01Q146.57 0.97 146.77 1.65Q146.97 2.34 147.36 2.70Q147.75 3.06 148.30 3.06ZM157.05-4.00L158.46-4.00L158.46 4.00L157.25 4.00L157.25-2.89L157.20-2.89L155.29-1.50L155.29-2.73L157.05-4.00ZM165.54 4.11L165.54 4.11Q164.80 4.11 164.21 3.82Q163.63 3.54 163.28 3.04Q162.93 2.54 162.91 1.91L162.91 1.91L164.10 1.91Q164.12 2.25 164.32 2.51Q164.52 2.78 164.84 2.93Q165.16 3.08 165.54 3.08L165.54 3.08Q166.00 3.08 166.35 2.87Q166.71 2.66 166.91 2.29Q167.11 1.91 167.11 1.43L167.11 1.43Q167.11 0.95 166.90 0.57Q166.69 0.18 166.33-0.03Q165.96-0.25 165.49-0.25L165.49-0.25Q165.12-0.25 164.76-0.12Q164.39 0.01 164.17 0.20L164.17 0.20L163.04 0.04L163.49-4.00L167.91-4.00L167.91-2.95L164.52-2.95L164.26-0.72L164.31-0.72Q164.54-0.95 164.94-1.10Q165.33-1.25 165.77-1.25L165.77-1.25Q166.32-1.25 166.78-1.06Q167.25-0.86 167.59-0.50Q167.93-0.14 168.12 0.35Q168.31 0.83 168.31 1.41L168.31 1.41Q168.31 2.19 167.95 2.80Q167.60 3.41 166.97 3.76Q166.35 4.11 165.54 4.11ZM179.38 0.99L179.38 0.99Q179.05 0.99 178.82 0.76Q178.59 0.53 178.59 0.20L178.59 0.20Q178.59-0.13 178.82-0.36Q179.05-0.59 179.38-0.59L179.38-0.59Q179.71-0.59 179.94-0.36Q180.17-0.13 180.17 0.20L180.17 0.20Q180.17 0.53 179.94 0.76Q179.71 0.99 179.38 0.99ZM191.96 4.00L190.73 4.00L190.73-4.00L191.96-4.00L191.96-0.62L195.92-0.62L195.92-4.00L197.15-4.00L197.15 4.00L195.92 4.00L195.92 0.44L191.96 0.44L191.96 4.00ZM205.42 4.00L204.19 4.00L204.19 0.82L201.24-4.00L202.67-4.00L204.18-1.45Q204.43-1.03 204.62-0.64Q204.81-0.26 205.01 0.31L205.01 0.31L204.62 0.31Q204.83-0.27 205.02-0.66Q205.21-1.05 205.44-1.45L205.44-1.45L206.93-4.00L208.36-4.00L205.42 0.82L205.42 4.00ZM215.05 4.00L215.05 4.00L213.07 4.00L213.07 2.93L214.98 2.93Q215.89 2.93 216.49 2.59Q217.09 2.25 217.40 1.59Q217.70 0.93 217.70-0.01L217.70-0.01Q217.70-0.95 217.40-1.60Q217.10-2.25 216.51-2.59Q215.92-2.93 215.05-2.93L215.05-2.93L213.03-2.93L213.03-4.00L215.13-4.00Q216.31-4.00 217.15-3.52Q218.00-3.05 218.45-2.15Q218.90-1.26 218.90-0.01L218.90-0.01Q218.90 1.24 218.45 2.14Q217.99 3.03 217.13 3.52Q216.27 4.00 215.05 4.00ZM212.45-4.00L213.67-4.00L213.67 4.00L212.45 4.00L212.45-4.00ZM228.39 4.00L223.32 4.00L223.32-4.00L228.36-4.00L228.36-2.95L224.54-2.95L224.54-0.56L228.08-0.56L228.08 0.48L224.54 0.48L224.54 2.95L228.39 2.95L228.39 4.00ZM234.11 4.00L232.89 4.00L232.89-4.00L235.75-4.00Q236.68-4.00 237.29-3.68Q237.91-3.36 238.22-2.79Q238.52-2.22 238.52-1.49L238.52-1.49Q238.52-0.75 238.22-0.19Q237.91 0.37 237.29 0.67Q236.67 0.98 235.74 0.98L235.74 0.98L233.59 0.98L233.59-0.07L235.62-0.07Q236.22-0.07 236.58-0.24Q236.94-0.41 237.11-0.73Q237.28-1.04 237.28-1.49L237.28-1.49Q237.28-1.94 237.11-2.27Q236.94-2.59 236.58-2.77Q236.21-2.95 235.61-2.95L235.61-2.95L234.11-2.95L234.11 4.00ZM238.83 4.00L237.43 4.00L235.50 0.39L236.85 0.39L238.83 4.00ZM243.66 4.00L242.33 4.00L245.18-4.00L246.68-4.00L249.58 4.00L248.26 4.00L246.70-0.45Q246.52-0.99 246.30-1.73Q246.08-2.47 245.80-3.50L245.80-3.50L246.04-3.50Q245.77-2.45 245.55-1.71Q245.34-0.97 245.17-0.45L245.17-0.45L243.66 4.00ZM248.04 1.89L243.87 1.89L243.87 0.87L248.04 0.87L248.04 1.89ZM256.75 4.00L253.68 4.00L253.68-4.00L256.63-4.00Q257.48-4.00 258.04-3.72Q258.60-3.44 258.87-2.97Q259.14-2.49 259.14-1.90L259.14-1.90Q259.14-1.40 258.96-1.06Q258.78-0.72 258.47-0.51Q258.16-0.31 257.79-0.21L257.79-0.21L257.79-0.13Q258.19-0.11 258.58 0.13Q258.96 0.37 259.21 0.80Q259.46 1.23 259.46 1.85L259.46 1.85Q259.46 2.45 259.17 2.94Q258.88 3.43 258.29 3.72Q257.69 4.00 256.75 4.00L256.75 4.00ZM254.90 0.41L254.90 2.95L256.63 2.95Q257.49 2.95 257.87 2.62Q258.24 2.28 258.24 1.79L258.24 1.79Q258.24 1.40 258.05 1.09Q257.86 0.78 257.51 0.59Q257.16 0.41 256.68 0.41L256.68 0.41L254.90 0.41ZM254.90-2.95L254.90-0.54L256.51-0.54Q256.91-0.54 257.24-0.69Q257.57-0.85 257.75-1.13Q257.94-1.42 257.94-1.80L257.94-1.80Q257.94-2.29 257.60-2.62Q257.25-2.95 256.54-2.95L256.54-2.95L254.90-2.95ZM264.55 4.00L263.22 4.00L266.07-4.00L267.57-4.00L270.47 4.00L269.15 4.00L267.59-0.45Q267.41-0.99 267.19-1.73Q266.97-2.47 266.69-3.50L266.69-3.50L266.93-3.50Q266.66-2.45 266.44-1.71Q266.22-0.97 266.06-0.45L266.06-0.45L264.55 4.00ZM268.93 1.89L264.76 1.89L264.76 0.87L268.93 0.87L268.93 1.89ZM277.16 4.00L277.16 4.00L275.19 4.00L275.19 2.93L277.10 2.93Q278.01 2.93 278.61 2.59Q279.21 2.25 279.51 1.59Q279.81 0.93 279.81-0.01L279.81-0.01Q279.81-0.95 279.51-1.60Q279.22-2.25 278.63-2.59Q278.04-2.93 277.16-2.93L277.16-2.93L275.15-2.93L275.15-4.00L277.25-4.00Q278.43-4.00 279.27-3.52Q280.11-3.05 280.56-2.15Q281.02-1.26 281.02-0.01L281.02-0.01Q281.02 1.24 280.56 2.14Q280.11 3.03 279.25 3.52Q278.38 4.00 277.16 4.00ZM274.56-4.00L275.79-4.00L275.79 4.00L274.56 4.00L274.56-4.00Z"/></g>

  <!-- Right decorative orbits -->
  <g transform="translate(1010 95)" fill="none" opacity="0.35">
    <circle r="58" stroke="#F97316" stroke-width="1"/>
    <circle r="38" stroke="#06B6D4" stroke-width="1"/>
    <circle r="18" stroke="#FAFAFA" stroke-width="0.6" opacity="0.4"/>
    <circle cx="58" cy="0" r="3" fill="#F97316"/>
  </g>
</svg>