<svg xmlns="http://www.w3.org/2000/svg" viewBox="0 0 1128 191" width="1128" height="191">
  <defs>
    <linearGradient id="bgGrad" x1="0%" y1="0%" x2="100%" y2="0%">
      <stop offset="0%" stop-color="#0A0A0A"/>
      <stop offset="100%" stop-color="#141414"/>
    </linearGradient>
  </defs>
  <rect width="1128" height="191" fill="url(#bgGrad)"/>

  <!-- Vertical accent bar -->
  <rect x="60" y="40" width="3" height="111" fill="#F97316"/>

  <!-- Headline -->
  <g transform="translate(90 72)" fill="#FAFAFA"><path d="M14.04 12.37L7.39 12.37L0.78-12.37L7.27-12.37L9.71-1.43Q10.08 0.23 10.37 2.17Q10.66 4.10 10.94 6.03Q11.22 7.97 11.50 9.70L11.50 9.70L10.41 9.70Q10.74 7.97 11.04 6.03Q11.34 4.10 11.67 2.17Q12.00 0.23 12.40-1.43L12.40-1.43L15.02-12.37L20.98-12.37L23.59-1.43Q23.99 0.23 24.32 2.17Q24.65 4.10 24.96 6.03Q25.27 7.97 25.58 9.70L25.58 9.70L24.47 9.70Q24.77 7.97 25.04 6.03Q25.32 4.10 25.62 2.17Q25.93 0.23 26.28-1.43L26.28-1.43L28.72-12.37L35.21-12.37L28.60 12.37L21.96 12.37L19.08 0.95Q18.49-1.39 18.12-4.13Q17.75-6.86 17.25-9.55L17.25-9.55L18.74-9.55Q18.18-6.89 17.86-4.18Q17.55-1.48 16.93 0.95L16.93 0.95L14.04 12.37ZM46.55 12.72L46.55 12.72Q43.65 12.72 41.54 11.56Q39.43 10.41 38.31 8.27Q37.19 6.13 37.19 3.15L37.19 3.15Q37.19 0.30 38.31-1.86Q39.43-4.02 41.49-5.22Q43.55-6.42 46.33-6.42L46.33-6.42Q48.29-6.42 49.93-5.81Q51.56-5.20 52.77-3.99Q53.97-2.79 54.63-1.03Q55.28 0.73 55.28 3.04L55.28 3.04L55.28 4.50L39.25 4.50L39.25 1.13L52.53 1.13L49.82 1.93Q49.82 0.63 49.43-0.30Q49.04-1.23 48.28-1.73Q47.51-2.22 46.38-2.22L46.38-2.22Q45.26-2.22 44.48-1.72Q43.70-1.21 43.29-0.31Q42.88 0.60 42.88 1.81L42.88 1.81L42.88 4.23Q42.88 5.66 43.35 6.62Q43.83 7.57 44.67 8.04Q45.52 8.52 46.65 8.52L46.65 8.52Q47.43 8.52 48.07 8.30Q48.71 8.08 49.17 7.65Q49.62 7.22 49.85 6.61L49.85 6.61L55.02 7.45Q54.55 9.05 53.42 10.23Q52.28 11.42 50.54 12.07Q48.81 12.72 46.55 12.72ZM76.90 12.63L76.90 12.63Q75.49 12.63 74.45 12.16Q73.41 11.69 72.73 10.94Q72.05 10.19 71.69 9.36L71.69 9.36L71.49 9.36L71.49 12.37L65.76 12.37L65.76-12.37L71.55-12.37L71.55-3.00L71.69-3.00Q72.03-3.85 72.71-4.63Q73.38-5.41 74.42-5.92Q75.45-6.42 76.93-6.42L76.93-6.42Q78.89-6.42 80.58-5.40Q82.26-4.38 83.30-2.27Q84.34-0.15 84.34 3.10L84.34 3.10Q84.34 6.26 83.34 8.38Q82.34 10.49 80.65 11.56Q78.96 12.63 76.90 12.63ZM74.92 8.12L74.92 8.12Q76.04 8.12 76.81 7.50Q77.58 6.87 77.98 5.74Q78.38 4.60 78.38 3.10L78.38 3.10Q78.38 1.59 77.98 0.47Q77.58-0.65 76.82-1.27Q76.05-1.89 74.92-1.89L74.92-1.89Q73.81-1.89 73.03-1.29Q72.25-0.68 71.83 0.44Q71.42 1.56 71.42 3.10L71.42 3.10Q71.42 4.62 71.83 5.74Q72.25 6.87 73.04 7.50Q73.83 8.12 74.92 8.12ZM93.88 12.60L93.88 12.60Q91.94 12.60 90.49 11.74Q89.03 10.87 88.24 9.30Q87.44 7.72 87.44 5.63L87.44 5.63L87.44-6.19L93.23-6.19L93.23 4.50Q93.23 6.06 94.04 6.95Q94.84 7.84 96.26 7.84L96.26 7.84Q97.22 7.84 97.92 7.43Q98.63 7.02 99.03 6.25Q99.43 5.48 99.43 4.40L99.43 4.40L99.43-6.19L105.22-6.19L105.22 12.37L99.78 12.37L99.68 7.69L99.92 7.69Q99.23 9.91 97.77 11.26Q96.31 12.60 93.88 12.60ZM114.83 12.37L109.04 12.37L109.04-6.19L114.83-6.19L114.83 12.37ZM111.93-8.37L111.93-8.37Q110.70-8.37 109.82-9.19Q108.94-10.01 108.94-11.16L108.94-11.16Q108.94-12.32 109.82-13.13Q110.70-13.95 111.93-13.95L111.93-13.95Q113.17-13.95 114.05-13.14Q114.93-12.33 114.93-11.16L114.93-11.16Q114.93-9.99 114.05-9.18Q113.17-8.37 111.93-8.37ZM118.67-12.37L124.46-12.37L124.46 12.37L118.67 12.37L118.67-12.37ZM135.02 12.63L135.02 12.63Q132.96 12.63 131.27 11.56Q129.58 10.49 128.58 8.38Q127.58 6.26 127.58 3.10L127.58 3.10Q127.58-0.15 128.62-2.27Q129.66-4.38 131.34-5.40Q133.03-6.42 134.97-6.42L134.97-6.42Q136.45-6.42 137.49-5.92Q138.54-5.41 139.21-4.63Q139.88-3.85 140.23-3.00L140.23-3.00L140.37-3.00L140.37-12.37L146.14-12.37L146.14 12.37L140.43 12.37L140.43 9.36L140.23 9.36Q139.87 10.19 139.18 10.94Q138.49 11.69 137.47 12.16Q136.45 12.63 135.02 12.63ZM137.00 8.12L137.00 8.12Q138.09 8.12 138.88 7.50Q139.67 6.87 140.08 5.74Q140.50 4.62 140.50 3.10L140.50 3.10Q140.50 1.56 140.08 0.44Q139.67-0.68 138.88-1.29Q138.09-1.89 137.00-1.89L137.00-1.89Q135.88-1.89 135.11-1.27Q134.34-0.65 133.94 0.47Q133.54 1.59 133.54 3.10L133.54 3.10Q133.54 4.60 133.94 5.74Q134.34 6.87 135.11 7.50Q135.88 8.12 137.00 8.12ZM165.24 12.72L165.24 12.72Q162.86 12.72 161.04 12.04Q159.21 11.37 158.06 10.10Q156.92 8.83 156.59 7.06L156.59 7.06L161.96 6.21Q162.31 7.42 163.14 8.04Q163.97 8.65 165.45 8.65L165.45 8.65Q166.66 8.65 167.36 8.23Q168.06 7.80 168.06 7.11L168.06 7.11Q168.06 6.46 167.50 6.07Q166.95 5.68 165.78 5.45L165.78 5.45L162.55 4.81Q159.79 4.28 158.42 2.95Q157.05 1.61 157.05-0.53L157.05-0.53Q157.05-2.39 158.06-3.70Q159.06-5.01 160.89-5.72Q162.73-6.42 165.22-6.42L165.22-6.42Q167.54-6.42 169.26-5.80Q170.98-5.18 172.03-4.03Q173.09-2.87 173.40-1.28L173.40-1.28L168.29-0.46Q168.04-1.39 167.27-1.92Q166.50-2.44 165.32-2.44L165.32-2.44Q164.27-2.44 163.55-2.02Q162.83-1.59 162.83-0.88L162.83-0.88Q162.83-0.32 163.28 0.11Q163.72 0.53 164.92 0.76L164.92 0.76L168.47 1.43Q171.23 1.96 172.58 3.19Q173.93 4.42 173.93 6.44L173.93 6.44Q173.93 8.35 172.81 9.76Q171.69 11.17 169.73 11.94Q167.78 12.72 165.24 12.72ZM185.52 12.72L185.52 12.72Q182.62 12.72 180.53 11.51Q178.43 10.31 177.31 8.16Q176.19 6.01 176.19 3.15L176.19 3.15Q176.19 0.28 177.31-1.87Q178.43-4.02 180.53-5.22Q182.62-6.42 185.52-6.42L185.52-6.42Q188.43-6.42 190.52-5.22Q192.61-4.02 193.72-1.87Q194.84 0.28 194.84 3.15L194.84 3.15Q194.84 6.01 193.72 8.16Q192.61 10.31 190.52 11.51Q188.43 12.72 185.52 12.72ZM185.52 8.28L185.52 8.28Q186.63 8.28 187.40 7.64Q188.16 6.99 188.55 5.83Q188.94 4.67 188.94 3.12L188.94 3.12Q188.94 1.58 188.55 0.42Q188.16-0.73 187.40-1.36Q186.63-1.99 185.52-1.99L185.52-1.99Q184.41-1.99 183.65-1.36Q182.88-0.73 182.49 0.42Q182.10 1.58 182.10 3.12L182.10 3.12Q182.10 4.67 182.49 5.83Q182.88 6.99 183.65 7.64Q184.41 8.28 185.52 8.28ZM196.38-6.19L208.98-6.19L208.98-1.89L196.38-1.89L196.38-6.19ZM205.26 12.37L199.50 12.37L199.50-7.19Q199.50-9.31 200.30-10.72Q201.09-12.14 202.52-12.83Q203.95-13.53 205.81-13.53L205.81-13.53Q207.04-13.53 208.13-13.34Q209.21-13.15 209.71-13.00L209.71-13.00L208.78-8.77Q208.45-8.85 208.00-8.92Q207.55-9.00 207.10-9.00L207.10-9.00Q206.08-9.00 205.67-8.52Q205.26-8.05 205.26-7.24L205.26-7.24L205.26 12.37ZM210.31-6.19L221.90-6.19L221.90-1.89L210.31-1.89L210.31-6.19ZM212.77 7.21L212.77-10.61L218.56-10.61L218.56 6.69Q218.56 7.42 218.91 7.78Q219.26 8.13 220.04 8.13L220.04 8.13Q220.34 8.13 220.88 8.07Q221.42 8.00 221.65 7.94L221.65 7.94L222.39 12.15Q221.42 12.43 220.50 12.53Q219.59 12.63 218.78 12.63L218.78 12.63Q215.82 12.63 214.29 11.25Q212.77 9.86 212.77 7.21L212.77 7.21ZM234.53 12.37L228.62 12.37L223.21-6.19L229.27-6.19L230.63 0.17Q231.01 2.08 231.48 4.27Q231.94 6.47 232.31 9.08L232.31 9.08L231.71 9.08Q232.12 6.49 232.64 4.29Q233.15 2.09 233.58 0.17L233.58 0.17L235.06-6.19L240.21-6.19L241.64 0.17Q242.05 2.09 242.57 4.28Q243.08 6.47 243.50 9.08L243.50 9.08L242.93 9.08Q243.28 6.49 243.71 4.30Q244.14 2.11 244.54 0.17L244.54 0.17L245.89-6.19L252.04-6.19L246.58 12.37L240.67 12.37L238.75 5.71Q238.48 4.73 238.20 3.44Q237.92 2.14 237.65 0.81Q237.39-0.53 237.12-1.59L237.12-1.59L238.08-1.59Q237.83-0.53 237.56 0.81Q237.29 2.14 237.01 3.44Q236.74 4.75 236.46 5.71L236.46 5.71L234.53 12.37ZM259.40 12.70L259.40 12.70Q257.62 12.70 256.24 12.09Q254.85 11.49 254.07 10.27Q253.29 9.05 253.29 7.22L253.29 7.22Q253.29 5.68 253.83 4.62Q254.37 3.55 255.33 2.89Q256.29 2.22 257.54 1.88Q258.79 1.53 260.20 1.41L260.20 1.41Q261.77 1.28 262.74 1.12Q263.70 0.96 264.15 0.65Q264.60 0.33 264.60-0.23L264.60-0.23L264.60-0.30Q264.60-0.95 264.30-1.39Q264.00-1.84 263.43-2.08Q262.87-2.31 262.07-2.31L262.07-2.31Q261.28-2.31 260.65-2.08Q260.03-1.84 259.63-1.41Q259.23-0.98 259.07-0.40L259.07-0.40L253.82-1.08Q254.19-2.67 255.26-3.88Q256.33-5.08 258.06-5.75Q259.80-6.42 262.12-6.42L262.12-6.42Q263.85-6.42 265.35-6.02Q266.85-5.61 267.98-4.82Q269.11-4.03 269.74-2.88Q270.37-1.73 270.37-0.23L270.37-0.23L270.37 12.37L264.93 12.37L264.93 9.76L264.78 9.76Q264.28 10.72 263.51 11.37Q262.74 12.02 261.72 12.36Q260.69 12.70 259.40 12.70ZM261.16 8.87L261.16 8.87Q262.14 8.87 262.93 8.47Q263.72 8.07 264.18 7.37Q264.65 6.67 264.65 5.76L264.65 5.76L264.65 3.98Q264.40 4.12 264.02 4.23Q263.65 4.35 263.20 4.44Q262.75 4.53 262.30 4.61Q261.86 4.68 261.44 4.75L261.44 4.75Q260.59 4.86 260.00 5.15Q259.40 5.43 259.08 5.88Q258.77 6.33 258.77 6.96L258.77 6.96Q258.77 7.57 259.08 7.99Q259.40 8.42 259.93 8.64Q260.46 8.87 261.16 8.87ZM280.00 12.37L274.21 12.37L274.21-6.19L279.84-6.19L279.84-2.81L280.04-2.81Q280.53-4.65 281.69-5.54Q282.84-6.42 284.37-6.42L284.37-6.42Q284.77-6.42 285.21-6.38Q285.65-6.33 286.01-6.23L286.01-6.23L286.01-1.18Q285.60-1.33 284.92-1.40Q284.25-1.48 283.72-1.48L283.72-1.48Q282.66-1.48 281.81-1.00Q280.96-0.53 280.48 0.30Q280.00 1.13 280.00 2.24L280.00 2.24L280.00 12.37ZM297.13 12.72L297.13 12.72Q294.23 12.72 292.12 11.56Q290.01 10.41 288.89 8.27Q287.77 6.13 287.77 3.15L287.77 3.15Q287.77 0.30 288.89-1.86Q290.01-4.02 292.07-5.22Q294.13-6.42 296.92-6.42L296.92-6.42Q298.88-6.42 300.51-5.81Q302.15-5.20 303.35-3.99Q304.56-2.79 305.21-1.03Q305.87 0.73 305.87 3.04L305.87 3.04L305.87 4.50L289.83 4.50L289.83 1.13L303.11 1.13L300.41 1.93Q300.41 0.63 300.02-0.30Q299.63-1.23 298.86-1.73Q298.10-2.22 296.97-2.22L296.97-2.22Q295.84-2.22 295.06-1.72Q294.28-1.21 293.87-0.31Q293.47 0.60 293.47 1.81L293.47 1.81L293.47 4.23Q293.47 5.66 293.94 6.62Q294.41 7.57 295.26 8.04Q296.11 8.52 297.23 8.52L297.23 8.52Q298.01 8.52 298.65 8.30Q299.29 8.08 299.75 7.65Q300.21 7.22 300.44 6.61L300.44 6.61L305.60 7.45Q305.14 9.05 304.00 10.23Q302.86 11.42 301.13 12.07Q299.39 12.72 297.13 12.72Z"/></g>
  <g transform="translate(90 112)" fill="#FAFAFA"><path d="M0.33-6.19L11.92-6.19L11.92-1.89L0.33-1.89L0.33-6.19ZM2.79 7.21L2.79-10.61L8.58-10.61L8.58 6.69Q8.58 7.42 8.93 7.78Q9.28 8.13 10.06 8.13L10.06 8.13Q10.36 8.13 10.90 8.07Q11.44 8.00 11.67 7.94L11.67 7.94L12.42 12.15Q11.44 12.43 10.53 12.53Q9.61 12.63 8.80 12.63L8.80 12.63Q5.84 12.63 4.32 11.25Q2.79 9.86 2.79 7.21L2.79 7.21ZM20.69 1.78L20.69 1.78L20.69 12.37L14.89 12.37L14.89-12.37L20.57-12.37L20.57-1.51L20.20-1.51Q20.88-3.72 22.34-5.07Q23.79-6.42 26.25-6.42L26.25-6.42Q28.19-6.42 29.63-5.56Q31.08-4.70 31.88-3.12Q32.67-1.54 32.67 0.55L32.67 0.55L32.67 12.37L26.88 12.37L26.88 1.68Q26.88 0.12 26.08-0.77Q25.28-1.66 23.86-1.66L23.86-1.66Q22.93-1.66 22.20-1.25Q21.48-0.85 21.08-0.08Q20.69 0.68 20.69 1.78ZM41.69 12.70L41.69 12.70Q39.91 12.70 38.52 12.09Q37.14 11.49 36.36 10.27Q35.58 9.05 35.58 7.22L35.58 7.22Q35.58 5.68 36.12 4.62Q36.66 3.55 37.62 2.89Q38.58 2.22 39.83 1.88Q41.07 1.53 42.48 1.41L42.48 1.41Q44.06 1.28 45.02 1.12Q45.99 0.96 46.43 0.65Q46.88 0.33 46.88-0.23L46.88-0.23L46.88-0.30Q46.88-0.95 46.58-1.39Q46.29-1.84 45.72-2.08Q45.16-2.31 44.36-2.31L44.36-2.31Q43.56-2.31 42.94-2.08Q42.32-1.84 41.92-1.41Q41.52-0.98 41.35-0.40L41.35-0.40L36.11-1.08Q36.47-2.67 37.54-3.88Q38.62-5.08 40.35-5.75Q42.08-6.42 44.41-6.42L44.41-6.42Q46.14-6.42 47.64-6.02Q49.14-5.61 50.27-4.82Q51.40-4.03 52.03-2.88Q52.66-1.73 52.66-0.23L52.66-0.23L52.66 12.37L47.21 12.37L47.21 9.76L47.07 9.76Q46.57 10.72 45.80 11.37Q45.02 12.02 44.00 12.36Q42.98 12.70 41.69 12.70ZM43.45 8.87L43.45 8.87Q44.43 8.87 45.21 8.47Q46.00 8.07 46.47 7.37Q46.93 6.67 46.93 5.76L46.93 5.76L46.93 3.98Q46.68 4.12 46.31 4.23Q45.94 4.35 45.49 4.44Q45.04 4.53 44.59 4.61Q44.14 4.68 43.73 4.75L43.73 4.75Q42.88 4.86 42.28 5.15Q41.69 5.43 41.37 5.88Q41.06 6.33 41.06 6.96L41.06 6.96Q41.06 7.57 41.37 7.99Q41.69 8.42 42.22 8.64Q42.75 8.87 43.45 8.87ZM54.92-6.19L66.51-6.19L66.51-1.89L54.92-1.89L54.92-6.19ZM57.38 7.21L57.38-10.61L63.17-10.61L63.17 6.69Q63.17 7.42 63.52 7.78Q63.87 8.13 64.65 8.13L64.65 8.13Q64.95 8.13 65.48 8.07Q66.02 8.00 66.26 7.94L66.26 7.94L67.00 12.15Q66.02 12.43 65.11 12.53Q64.20 12.63 63.38 12.63L63.38 12.63Q60.43 12.63 58.90 11.25Q57.38 9.86 57.38 7.21L57.38 7.21ZM85.56 12.72L85.56 12.72Q82.66 12.72 80.55 11.56Q78.44 10.41 77.32 8.27Q76.20 6.13 76.20 3.15L76.20 3.15Q76.20 0.30 77.32-1.86Q78.44-4.02 80.50-5.22Q82.56-6.42 85.35-6.42L85.35-6.42Q87.31-6.42 88.94-5.81Q90.58-5.20 91.78-3.99Q92.99-2.79 93.64-1.03Q94.30 0.73 94.30 3.04L94.30 3.04L94.30 4.50L78.26 4.50L78.26 1.13L91.54 1.13L88.83 1.93Q88.83 0.63 88.44-0.30Q88.05-1.23 87.29-1.73Q86.53-2.22 85.40-2.22L85.40-2.22Q84.27-2.22 83.49-1.72Q82.71-1.21 82.30-0.31Q81.90 0.60 81.90 1.81L81.90 1.81L81.90 4.23Q81.90 5.66 82.37 6.62Q82.84 7.57 83.69 8.04Q84.54 8.52 85.66 8.52L85.66 8.52Q86.44 8.52 87.08 8.30Q87.72 8.08 88.18 7.65Q88.64 7.22 88.87 6.61L88.87 6.61L94.03 7.45Q93.57 9.05 92.43 10.23Q91.29 11.42 89.56 12.07Q87.82 12.72 85.56 12.72ZM102.53 12.70L102.53 12.70Q100.75 12.70 99.37 12.09Q97.98 11.49 97.20 10.27Q96.42 9.05 96.42 7.22L96.42 7.22Q96.42 5.68 96.96 4.62Q97.50 3.55 98.46 2.89Q99.43 2.22 100.67 1.88Q101.92 1.53 103.33 1.41L103.33 1.41Q104.91 1.28 105.87 1.12Q106.83 0.96 107.28 0.65Q107.73 0.33 107.73-0.23L107.73-0.23L107.73-0.30Q107.73-0.95 107.43-1.39Q107.13-1.84 106.57-2.08Q106.00-2.31 105.20-2.31L105.20-2.31Q104.41-2.31 103.78-2.08Q103.16-1.84 102.76-1.41Q102.37-0.98 102.20-0.40L102.20-0.40L96.95-1.08Q97.32-2.67 98.39-3.88Q99.46-5.08 101.19-5.75Q102.93-6.42 105.25-6.42L105.25-6.42Q106.98-6.42 108.48-6.02Q109.99-5.61 111.11-4.82Q112.24-4.03 112.87-2.88Q113.50-1.73 113.50-0.23L113.50-0.23L113.50 12.37L108.06 12.37L108.06 9.76L107.91 9.76Q107.41 10.72 106.64 11.37Q105.87 12.02 104.85 12.36Q103.83 12.70 102.53 12.70ZM104.29 8.87L104.29 8.87Q105.27 8.87 106.06 8.47Q106.85 8.07 107.31 7.37Q107.78 6.67 107.78 5.76L107.78 5.76L107.78 3.98Q107.53 4.12 107.15 4.23Q106.78 4.35 106.33 4.44Q105.88 4.53 105.44 4.61Q104.99 4.68 104.57 4.75L104.57 4.75Q103.73 4.86 103.13 5.15Q102.53 5.43 102.22 5.88Q101.90 6.33 101.90 6.96L101.90 6.96Q101.90 7.57 102.22 7.99Q102.53 8.42 103.06 8.64Q103.59 8.87 104.29 8.87ZM123.13 12.37L117.34 12.37L117.34-6.19L122.97-6.19L122.97-2.81L123.17-2.81Q123.67-4.65 124.82-5.54Q125.97-6.42 127.50-6.42L127.50-6.42Q127.90-6.42 128.34-6.38Q128.78-6.33 129.14-6.23L129.14-6.23L129.14-1.18Q128.73-1.33 128.06-1.40Q127.38-1.48 126.85-1.48L126.85-1.48Q125.79-1.48 124.94-1.00Q124.10-0.53 123.62 0.30Q123.13 1.13 123.13 2.24L123.13 2.24L123.13 12.37ZM137.41 1.78L137.41 1.78L137.41 12.37L131.62 12.37L131.62-6.19L137.06-6.19L137.18-1.51L136.93-1.51Q137.61-3.72 139.06-5.07Q140.52-6.42 142.97-6.42L142.97-6.42Q144.92-6.42 146.36-5.56Q147.80-4.70 148.60-3.12Q149.40-1.54 149.40 0.55L149.40 0.55L149.40 12.37L143.60 12.37L143.60 1.68Q143.60 0.12 142.81-0.77Q142.01-1.66 140.58-1.66L140.58-1.66Q139.65-1.66 138.93-1.25Q138.21-0.85 137.81-0.08Q137.41 0.68 137.41 1.78ZM161.04 12.72L161.04 12.72Q158.66 12.72 156.83 12.04Q155.01 11.37 153.86 10.10Q152.72 8.83 152.39 7.06L152.39 7.06L157.76 6.21Q158.11 7.42 158.94 8.04Q159.77 8.65 161.25 8.65L161.25 8.65Q162.46 8.65 163.16 8.23Q163.86 7.80 163.86 7.11L163.86 7.11Q163.86 6.46 163.30 6.07Q162.75 5.68 161.58 5.45L161.58 5.45L158.35 4.81Q155.59 4.28 154.22 2.95Q152.85 1.61 152.85-0.53L152.85-0.53Q152.85-2.39 153.85-3.70Q154.86-5.01 156.69-5.72Q158.53-6.42 161.02-6.42L161.02-6.42Q163.34-6.42 165.06-5.80Q166.78-5.18 167.83-4.03Q168.89-2.87 169.20-1.28L169.20-1.28L164.09-0.46Q163.84-1.39 163.07-1.92Q162.30-2.44 161.12-2.44L161.12-2.44Q160.07-2.44 159.35-2.02Q158.63-1.59 158.63-0.88L158.63-0.88Q158.63-0.32 159.08 0.11Q159.52 0.53 160.72 0.76L160.72 0.76L164.27 1.43Q167.03 1.96 168.38 3.19Q169.73 4.42 169.73 6.44L169.73 6.44Q169.73 8.35 168.61 9.76Q167.49 11.17 165.53 11.94Q163.58 12.72 161.04 12.72ZM185.94 12.37L180.14 12.37L180.14-6.19L185.94-6.19L185.94 12.37ZM183.03-8.37L183.03-8.37Q181.80-8.37 180.92-9.19Q180.04-10.01 180.04-11.16L180.04-11.16Q180.04-12.32 180.92-13.13Q181.80-13.95 183.03-13.95L183.03-13.95Q184.28-13.95 185.16-13.14Q186.04-12.33 186.04-11.16L186.04-11.16Q186.04-9.99 185.16-9.18Q184.28-8.37 183.03-8.37ZM188.20-6.19L199.78-6.19L199.78-1.89L188.20-1.89L188.20-6.19ZM190.65 7.21L190.65-10.61L196.45-10.61L196.45 6.69Q196.45 7.42 196.79 7.78Q197.14 8.13 197.92 8.13L197.92 8.13Q198.22 8.13 198.76 8.07Q199.30 8.00 199.53 7.94L199.53 7.94L200.28 12.15Q199.30 12.43 198.39 12.53Q197.48 12.63 196.66 12.63L196.66 12.63Q193.71 12.63 192.18 11.25Q190.65 9.86 190.65 7.21L190.65 7.21ZM210.57 12.72L210.57 12.72Q208.20 12.72 206.37 12.04Q204.55 11.37 203.40 10.10Q202.26 8.83 201.92 7.06L201.92 7.06L207.30 6.21Q207.65 7.42 208.48 8.04Q209.31 8.65 210.79 8.65L210.79 8.65Q212.00 8.65 212.70 8.23Q213.40 7.80 213.40 7.11L213.40 7.11Q213.40 6.46 212.84 6.07Q212.28 5.68 211.12 5.45L211.12 5.45L207.88 4.81Q205.13 4.28 203.76 2.95Q202.39 1.61 202.39-0.53L202.39-0.53Q202.39-2.39 203.39-3.70Q204.40-5.01 206.23-5.72Q208.07-6.42 210.56-6.42L210.56-6.42Q212.88-6.42 214.60-5.80Q216.32-5.18 217.37-4.03Q218.43-2.87 218.74-1.28L218.74-1.28L213.63-0.46Q213.38-1.39 212.61-1.92Q211.84-2.44 210.66-2.44L210.66-2.44Q209.61-2.44 208.89-2.02Q208.17-1.59 208.17-0.88L208.17-0.88Q208.17-0.32 208.62 0.11Q209.06 0.53 210.26 0.76L210.26 0.76L213.81 1.43Q216.57 1.96 217.92 3.19Q219.27 4.42 219.27 6.44L219.27 6.44Q219.27 8.35 218.15 9.76Q217.03 11.17 215.07 11.94Q213.11 12.72 210.57 12.72ZM238.33 3.32L234.91 7.44L234.91 0.51L235.74 0.51L241.05-6.19L247.65-6.19L239.86 3.32L238.33 3.32ZM235.48 12.37L229.68 12.37L229.68-12.37L235.48-12.37L235.48 12.37ZM247.91 12.37L241.22 12.37L236.27 4.62L240.09 0.50L247.91 12.37ZM258.49 12.72L258.49 12.72Q255.58 12.72 253.47 11.56Q251.36 10.41 250.24 8.27Q249.12 6.13 249.12 3.15L249.12 3.15Q249.12 0.30 250.24-1.86Q251.36-4.02 253.42-5.22Q255.48-6.42 258.27-6.42L258.27-6.42Q260.23-6.42 261.86-5.81Q263.50-5.20 264.70-3.99Q265.91-2.79 266.56-1.03Q267.22 0.73 267.22 3.04L267.22 3.04L267.22 4.50L251.18 4.50L251.18 1.13L264.46 1.13L261.76 1.93Q261.76 0.63 261.37-0.30Q260.98-1.23 260.21-1.73Q259.45-2.22 258.32-2.22L258.32-2.22Q257.19-2.22 256.41-1.72Q255.63-1.21 255.22-0.31Q254.82 0.60 254.82 1.81L254.82 1.81L254.82 4.23Q254.82 5.66 255.29 6.62Q255.76 7.57 256.61 8.04Q257.46 8.52 258.59 8.52L258.59 8.52Q259.37 8.52 260.01 8.30Q260.64 8.08 261.10 7.65Q261.56 7.22 261.79 6.61L261.79 6.61L266.95 7.45Q266.49 9.05 265.35 10.23Q264.21 11.42 262.48 12.07Q260.74 12.72 258.49 12.72ZM278.91 12.72L278.91 12.72Q276.00 12.72 273.89 11.56Q271.78 10.41 270.66 8.27Q269.54 6.13 269.54 3.15L269.54 3.15Q269.54 0.30 270.66-1.86Q271.78-4.02 273.84-5.22Q275.90-6.42 278.69-6.42L278.69-6.42Q280.65-6.42 282.28-5.81Q283.92-5.20 285.12-3.99Q286.33-2.79 286.98-1.03Q287.64 0.73 287.64 3.04L287.64 3.04L287.64 4.50L271.60 4.50L271.60 1.13L284.88 1.13L282.18 1.93Q282.18 0.63 281.79-0.30Q281.40-1.23 280.63-1.73Q279.87-2.22 278.74-2.22L278.74-2.22Q277.61-2.22 276.83-1.72Q276.05-1.21 275.64-0.31Q275.24 0.60 275.24 1.81L275.24 1.81L275.24 4.23Q275.24 5.66 275.71 6.62Q276.18 7.57 277.03 8.04Q277.88 8.52 279.01 8.52L279.01 8.52Q279.79 8.52 280.43 8.30Q281.06 8.08 281.52 7.65Q281.98 7.22 282.21 6.61L282.21 6.61L287.37 7.45Q286.91 9.05 285.77 10.23Q284.63 11.42 282.90 12.07Q281.16 12.72 278.91 12.72ZM296.47 19.31L290.68 19.31L290.68-6.19L296.40-6.19L296.40-3.00L296.60-3.00Q296.95-3.85 297.62-4.63Q298.30-5.41 299.33-5.92Q300.37-6.42 301.85-6.42L301.85-6.42Q303.81-6.42 305.49-5.40Q307.18-4.38 308.22-2.27Q309.25-0.15 309.25 3.10L309.25 3.10Q309.25 6.26 308.26 8.38Q307.26 10.49 305.57 11.56Q303.88 12.63 301.82 12.63L301.82 12.63Q300.41 12.63 299.37 12.16Q298.33 11.69 297.65 10.94Q296.97 10.19 296.60 9.36L296.60 9.36L296.47 9.36L296.47 19.31ZM299.84 8.12L299.84 8.12Q300.95 8.12 301.73 7.50Q302.50 6.87 302.90 5.74Q303.29 4.60 303.29 3.10L303.29 3.10Q303.29 1.59 302.90 0.47Q302.50-0.65 301.73-1.27Q300.97-1.89 299.84-1.89L299.84-1.89Q298.73-1.89 297.95-1.29Q297.17-0.68 296.75 0.44Q296.34 1.56 296.34 3.10L296.34 3.10Q296.34 4.62 296.75 5.74Q297.17 6.87 297.96 7.50Q298.75 8.12 299.84 8.12ZM316.44 12.72L316.44 12.72Q315.11 12.72 314.21 11.83Q313.30 10.94 313.30 9.63L313.30 9.63Q313.30 8.30 314.21 7.41Q315.11 6.52 316.44 6.52L316.44 6.52Q317.77 6.52 318.68 7.41Q319.58 8.30 319.58 9.63L319.58 9.63Q319.58 10.94 318.68 11.83Q317.77 12.72 316.44 12.72Z"/></g>
  <!-- Subline -->
  <g transform="translate(90 150)" fill="#F97316"><path d="M1.86 4.37L0.32 4.37L3.80-0.60L3.80 0.40L0.54-4.37L2.10-4.37L3.25-2.64Q3.53-2.23 3.71-1.93Q3.88-1.63 4.03-1.35Q4.18-1.07 4.37-0.71L4.37-0.71L4.08-0.71Q4.26-1.07 4.41-1.35Q4.56-1.63 4.74-1.93Q4.92-2.23 5.20-2.64L5.20-2.64L6.38-4.37L7.89-4.37L4.66 0.34L4.66-0.63L8.09 4.37L6.53 4.37L5.10 2.28Q4.86 1.92 4.69 1.66Q4.53 1.39 4.39 1.14Q4.25 0.89 4.08 0.56L4.08 0.56L4.34 0.56Q4.17 0.88 4.03 1.13Q3.88 1.38 3.72 1.65Q3.56 1.91 3.30 2.28L3.30 2.28L1.86 4.37ZM15.50 4.51L15.50 4.51Q14.53 4.51 13.80 4.20Q13.08 3.89 12.68 3.31Q12.27 2.74 12.23 1.94L12.23 1.94L13.57 1.94Q13.61 2.41 13.88 2.72Q14.14 3.04 14.57 3.19Q15 3.34 15.50 3.34L15.50 3.34Q16.05 3.34 16.49 3.17Q16.92 2.99 17.17 2.67Q17.42 2.36 17.42 1.93L17.42 1.93Q17.42 1.55 17.20 1.31Q16.98 1.07 16.61 0.91Q16.24 0.74 15.76 0.62L15.76 0.62L14.74 0.34Q13.67 0.05 13.07-0.51Q12.47-1.07 12.47-1.97L12.47-1.97Q12.47-2.72 12.88-3.29Q13.28-3.86 13.98-4.17Q14.68-4.48 15.56-4.48L15.56-4.48Q16.46-4.48 17.14-4.17Q17.82-3.86 18.21-3.31Q18.60-2.77 18.62-2.07L18.62-2.07L17.32-2.07Q17.26-2.67 16.77-2.99Q16.28-3.32 15.53-3.32L15.53-3.32Q15.01-3.32 14.62-3.16Q14.23-2.99 14.01-2.70Q13.80-2.41 13.80-2.04L13.80-2.04Q13.80-1.63 14.05-1.37Q14.31-1.12 14.67-0.97Q15.04-0.82 15.38-0.73L15.38-0.73L16.22-0.51Q16.64-0.40 17.08-0.23Q17.53-0.05 17.90 0.24Q18.28 0.52 18.51 0.94Q18.74 1.36 18.74 1.95L18.74 1.95Q18.74 2.69 18.36 3.27Q17.98 3.85 17.25 4.18Q16.53 4.51 15.50 4.51ZM29.06 4.37L23.53 4.37L23.53-4.37L29.02-4.37L29.02-3.22L24.86-3.22L24.86-0.62L28.72-0.62L28.72 0.53L24.86 0.53L24.86 3.22L29.06 3.22L29.06 4.37ZM35.30 4.37L33.96 4.37L33.96-4.37L37.09-4.37Q38.10-4.37 38.77-4.02Q39.45-3.67 39.78-3.05Q40.11-2.43 40.11-1.62L40.11-1.62Q40.11-0.81 39.78-0.21Q39.44 0.40 38.77 0.73Q38.09 1.07 37.08 1.07L37.08 1.07L34.73 1.07L34.73-0.08L36.95-0.08Q37.59-0.08 37.99-0.26Q38.38-0.45 38.57-0.79Q38.76-1.14 38.76-1.62L38.76-1.62Q38.76-2.12 38.57-2.47Q38.38-2.83 37.99-3.03Q37.59-3.22 36.94-3.22L36.94-3.22L35.30-3.22L35.30 4.37ZM40.44 4.37L38.92 4.37L36.81 0.42L38.29 0.42L40.44 4.37ZM49.06 4.37L47.43 4.37L44.27-4.37L45.71-4.37L47.41 0.49Q47.60 1.05 47.84 1.87Q48.08 2.68 48.39 3.79L48.39 3.79L48.12 3.79Q48.42 2.66 48.66 1.86Q48.90 1.05 49.08 0.49L49.08 0.49L50.73-4.37L52.18-4.37L49.06 4.37ZM68.33 4.37L63.04 4.37L63.04-4.37L64.38-4.37L64.38 3.22L68.33 3.22L68.33 4.37ZM73.80 4.37L72.36 4.37L75.46-4.37L77.10-4.37L80.27 4.37L78.82 4.37L77.12-0.49Q76.92-1.08 76.68-1.89Q76.45-2.69 76.14-3.81L76.14-3.81L76.41-3.81Q76.11-2.68 75.87-1.87Q75.63-1.05 75.45-0.49L75.45-0.49L73.80 4.37ZM78.58 2.06L74.04 2.06L74.04 0.95L78.58 0.95L78.58 2.06ZM88.09 4.37L84.73 4.37L84.73-4.37L87.95-4.37Q88.88-4.37 89.49-4.06Q90.10-3.76 90.40-3.24Q90.70-2.72 90.70-2.07L90.70-2.07Q90.70-1.53 90.50-1.16Q90.30-0.79 89.96-0.56Q89.63-0.33 89.22-0.23L89.22-0.23L89.22-0.14Q89.66-0.12 90.08 0.14Q90.49 0.40 90.76 0.87Q91.04 1.34 91.04 2.02L91.04 2.02Q91.04 2.68 90.72 3.21Q90.41 3.74 89.76 4.05Q89.11 4.37 88.09 4.37L88.09 4.37ZM86.07 0.45L86.07 3.22L87.96 3.22Q88.89 3.22 89.30 2.85Q89.71 2.49 89.71 1.95L89.71 1.95Q89.71 1.53 89.50 1.19Q89.30 0.85 88.92 0.65Q88.54 0.45 88.01 0.45L88.01 0.45L86.07 0.45ZM86.07-3.22L86.07-0.59L87.82-0.59Q88.26-0.59 88.62-0.76Q88.97-0.93 89.18-1.24Q89.38-1.55 89.38-1.96L89.38-1.96Q89.38-2.50 89.01-2.86Q88.63-3.22 87.86-3.22L87.86-3.22L86.07-3.22ZM98.74 4.51L98.74 4.51Q97.76 4.51 97.04 4.20Q96.32 3.89 95.92 3.31Q95.51 2.74 95.47 1.94L95.47 1.94L96.81 1.94Q96.85 2.41 97.12 2.72Q97.38 3.04 97.81 3.19Q98.24 3.34 98.74 3.34L98.74 3.34Q99.29 3.34 99.72 3.17Q100.15 2.99 100.41 2.67Q100.66 2.36 100.66 1.93L100.66 1.93Q100.66 1.55 100.44 1.31Q100.22 1.07 99.85 0.91Q99.47 0.74 99 0.62L99 0.62L97.98 0.34Q96.91 0.05 96.31-0.51Q95.71-1.07 95.71-1.97L95.71-1.97Q95.71-2.72 96.11-3.29Q96.52-3.86 97.22-4.17Q97.92-4.48 98.80-4.48L98.80-4.48Q99.70-4.48 100.38-4.17Q101.06-3.86 101.45-3.31Q101.84-2.77 101.86-2.07L101.86-2.07L100.56-2.07Q100.49-2.67 100.00-2.99Q99.52-3.32 98.77-3.32L98.77-3.32Q98.24-3.32 97.85-3.16Q97.46-2.99 97.25-2.70Q97.04-2.41 97.04-2.04L97.04-2.04Q97.04-1.63 97.29-1.37Q97.55-1.12 97.91-0.97Q98.28-0.82 98.61-0.73L98.61-0.73L99.46-0.51Q99.88-0.40 100.32-0.23Q100.76-0.05 101.14 0.24Q101.51 0.52 101.75 0.94Q101.98 1.36 101.98 1.95L101.98 1.95Q101.98 2.69 101.60 3.27Q101.21 3.85 100.49 4.18Q99.77 4.51 98.74 4.51ZM114.02 1.08L114.02 1.08Q113.65 1.08 113.40 0.83Q113.15 0.58 113.15 0.22L113.15 0.22Q113.15-0.14 113.40-0.39Q113.65-0.64 114.02-0.64L114.02-0.64Q114.38-0.64 114.63-0.39Q114.88-0.14 114.88 0.22L114.88 0.22Q114.88 0.58 114.63 0.83Q114.38 1.08 114.02 1.08ZM129.33 4.51L129.33 4.51Q128.35 4.51 127.63 4.20Q126.91 3.89 126.50 3.31Q126.09 2.74 126.05 1.94L126.05 1.94L127.39 1.94Q127.44 2.41 127.70 2.72Q127.97 3.04 128.40 3.19Q128.82 3.34 129.32 3.34L129.32 3.34Q129.88 3.34 130.31 3.17Q130.74 2.99 130.99 2.67Q131.24 2.36 131.24 1.93L131.24 1.93Q131.24 1.55 131.02 1.31Q130.80 1.07 130.43 0.91Q130.06 0.74 129.59 0.62L129.59 0.62L128.57 0.34Q127.49 0.05 126.89-0.51Q126.29-1.07 126.29-1.97L126.29-1.97Q126.29-2.72 126.70-3.29Q127.11-3.86 127.81-4.17Q128.51-4.48 129.39-4.48L129.39-4.48Q130.28-4.48 130.97-4.17Q131.65-3.86 132.04-3.31Q132.43-2.77 132.45-2.07L132.45-2.07L131.14-2.07Q131.08-2.67 130.59-2.99Q130.10-3.32 129.36-3.32L129.36-3.32Q128.83-3.32 128.44-3.16Q128.05-2.99 127.84-2.70Q127.62-2.41 127.62-2.04L127.62-2.04Q127.62-1.63 127.88-1.37Q128.13-1.12 128.50-0.97Q128.87-0.82 129.20-0.73L129.20-0.73L130.05-0.51Q130.46-0.40 130.91-0.23Q131.35-0.05 131.72 0.24Q132.10 0.52 132.33 0.94Q132.56 1.36 132.56 1.95L132.56 1.95Q132.56 2.69 132.18 3.27Q131.80 3.85 131.08 4.18Q130.35 4.51 129.33 4.51ZM137.35-4.37L138.69-4.37L138.69 4.37L137.35 4.37L137.35-4.37ZM145.17 4.37L143.82 4.37L143.82-4.37L145.36-4.37L148.65 0.83Q148.81 1.09 149.02 1.45Q149.22 1.80 149.45 2.25Q149.68 2.70 149.90 3.23L149.90 3.23L149.74 3.23Q149.68 2.73 149.66 2.24Q149.63 1.75 149.62 1.32Q149.61 0.90 149.61 0.60L149.61 0.60L149.61-4.37L150.96-4.37L150.96 4.37L149.41 4.37L146.47-0.28Q146.23-0.66 146.01-1.05Q145.78-1.44 145.51-1.94Q145.24-2.45 144.84-3.18L144.84-3.18L145.05-3.18Q145.08-2.53 145.11-1.97Q145.14-1.41 145.16-0.98Q145.17-0.55 145.17-0.29L145.17-0.29L145.17 4.37ZM159.72 4.48L159.72 4.48Q158.59 4.48 157.70 3.95Q156.81 3.41 156.30 2.41Q155.79 1.40 155.79 0.01L155.79 0.01Q155.79-1.39 156.30-2.40Q156.81-3.40 157.70-3.94Q158.59-4.48 159.72-4.48L159.72-4.48Q160.41-4.48 161.02-4.28Q161.63-4.08 162.10-3.70Q162.58-3.32 162.89-2.78Q163.21-2.23 163.32-1.54L163.32-1.54L161.98-1.54Q161.89-1.96 161.69-2.28Q161.48-2.60 161.18-2.82Q160.88-3.04 160.51-3.15Q160.14-3.26 159.73-3.26L159.73-3.26Q158.98-3.26 158.39-2.89Q157.79-2.51 157.45-1.78Q157.11-1.05 157.11 0.01L157.11 0.01Q157.11 1.06 157.46 1.79Q157.80 2.52 158.40 2.89Q158.99 3.26 159.73 3.26L159.73 3.26Q160.14 3.26 160.51 3.15Q160.88 3.04 161.18 2.82Q161.48 2.60 161.69 2.27Q161.89 1.95 161.98 1.54L161.98 1.54L163.32 1.54Q163.22 2.19 162.92 2.72Q162.62 3.26 162.14 3.66Q161.67 4.05 161.05 4.27Q160.44 4.48 159.72 4.48ZM173.63 4.37L168.09 4.37L168.09-4.37L173.59-4.37L173.59-3.22L169.43-3.22L169.43-0.62L173.29-0.62L173.29 0.53L169.43 0.53L169.43 3.22L173.63 3.22L173.63 4.37ZM190.57 4.37L184.80 4.37L184.80 3.40L187.77 0.33Q188.23-0.15 188.53-0.52Q188.84-0.88 188.99-1.22Q189.15-1.56 189.15-1.95L189.15-1.95Q189.15-2.39 188.95-2.71Q188.75-3.02 188.40-3.19Q188.05-3.36 187.61-3.36L187.61-3.36Q187.14-3.36 186.80-3.17Q186.45-2.98 186.26-2.64Q186.08-2.29 186.08-1.82L186.08-1.82L184.79-1.82Q184.79-2.62 185.16-3.22Q185.53-3.82 186.17-4.15Q186.81-4.48 187.63-4.48L187.63-4.48Q188.46-4.48 189.09-4.15Q189.72-3.83 190.08-3.27Q190.44-2.71 190.44-2.00L190.44-2.00Q190.44-1.52 190.26-1.06Q190.08-0.60 189.63-0.03Q189.18 0.54 188.37 1.37L188.37 1.37L186.66 3.15L186.66 3.22L190.57 3.22L190.57 4.37ZM198.43 4.48L198.43 4.48Q197.41 4.48 196.69 3.96Q195.98 3.43 195.60 2.43Q195.22 1.43 195.22 0.01L195.22 0.01Q195.22-1.41 195.60-2.41Q195.98-3.42 196.70-3.95Q197.41-4.48 198.43-4.48L198.43-4.48Q199.44-4.48 200.16-3.95Q200.88-3.42 201.26-2.41Q201.64-1.41 201.64 0.01L201.64 0.01Q201.64 1.42 201.26 2.43Q200.88 3.43 200.17 3.96Q199.45 4.48 198.43 4.48ZM198.43 3.34L198.43 3.34Q199.03 3.34 199.45 2.94Q199.88 2.55 200.09 1.80Q200.31 1.06 200.31 0.01L200.31 0.01Q200.31-1.05 200.09-1.80Q199.88-2.55 199.45-2.95Q199.03-3.35 198.43-3.35L198.43-3.35Q197.82-3.35 197.40-2.95Q196.98-2.55 196.76-1.80Q196.54-1.05 196.54 0.01L196.54 0.01Q196.54 1.06 196.76 1.80Q196.98 2.55 197.40 2.94Q197.82 3.34 198.43 3.34ZM207.97-4.37L209.51-4.37L209.51 4.37L208.19 4.37L208.19-3.15L208.13-3.15L206.06-1.64L206.06-2.98L207.97-4.37ZM217.24 4.48L217.24 4.48Q216.42 4.48 215.78 4.17Q215.14 3.86 214.77 3.32Q214.39 2.77 214.36 2.08L214.36 2.08L215.66 2.08Q215.69 2.45 215.91 2.74Q216.12 3.03 216.47 3.19Q216.82 3.36 217.24 3.36L217.24 3.36Q217.73 3.36 218.12 3.13Q218.51 2.90 218.73 2.49Q218.95 2.09 218.95 1.56L218.95 1.56Q218.95 1.04 218.72 0.62Q218.49 0.20 218.09-0.04Q217.69-0.27 217.18-0.27L217.18-0.27Q216.78-0.27 216.38-0.13Q215.98 0.01 215.74 0.22L215.74 0.22L214.51 0.05L215.00-4.37L219.82-4.37L219.82-3.22L216.12-3.22L215.84-0.79L215.89-0.79Q216.15-1.04 216.57-1.20Q217.00-1.37 217.49-1.37L217.49-1.37Q218.09-1.37 218.59-1.15Q219.09-0.94 219.47-0.54Q219.84-0.15 220.05 0.38Q220.25 0.91 220.25 1.54L220.25 1.54Q220.25 2.39 219.87 3.06Q219.48 3.72 218.80 4.10Q218.12 4.48 217.24 4.48Z"/></g>

  <!-- Right side decorative mark cluster -->
  <g transform="translate(960 95)">
    <circle r="64" fill="none" stroke="#F97316" stroke-width="1" opacity="0.22"/>
    <circle r="44" fill="none" stroke="#06B6D4" stroke-width="1" opacity="0.20"/>
    <g stroke="#FAFAFA" stroke-width="6" stroke-linecap="square" fill="none">
      <line x1="-20" y1="-20" x2="20" y2="20"/>
      <line x1="20" y1="-20" x2="-20" y2="20"/>
    </g>
    <circle cx="20" cy="-20" r="3" fill="#F97316"/>
  </g>
</svg>