<svg xmlns="http://www.w3.org/2000/svg" viewBox="0 0 1128 191" width="1128" height="191">
  <rect width="1128" height="191" fill="#0A0A0A"/>

  <!-- Faint grid -->
  <g stroke="#1A1A1A" stroke-width="1">
    <line x1="0" y1="40" x2="1128" y2="40"/>
    <line x1="0" y1="151" x2="1128" y2="151"/>
  </g>

  <!-- Left orbits -->
  <g transform="translate(120 95)" fill="none" opacity="0.35">
    <circle r="52" stroke="#06B6D4" stroke-width="1"/>
    <circle r="32" stroke="#F97316" stroke-width="1"/>
    <circle cx="-52" cy="0" r="3" fill="#06B6D4"/>
  </g>

  <!-- Right orbits -->
  <g transform="translate(1008 95)" fill="none" opacity="0.35">
    <circle r="52" stroke="#F97316" stroke-width="1"/>
    <circle r="32" stroke="#06B6D4" stroke-width="1"/>
    <circle cx="52" cy="0" r="3" fill="#F97316"/>
  </g>

  <!-- Headline -->
  <g transform="translate(564 88)" fill="#FAFAFA"><path d="M-289.26 13.45L-289.26 13.45Q-292.79 13.45-295.59 11.88Q-298.40 10.32-300.02 7.31Q-301.65 4.31-301.65 0.02L-301.65 0.02Q-301.65-4.31-300.01-7.31Q-298.36-10.32-295.55-11.88Q-292.74-13.45-289.26-13.45L-289.26-13.45Q-286.92-13.45-284.93-12.81Q-282.95-12.16-281.42-10.93Q-279.89-9.70-278.93-7.92Q-277.97-6.13-277.69-3.85L-277.69-3.85L-283.97-3.85Q-284.12-4.82-284.55-5.58Q-284.97-6.35-285.63-6.89Q-286.29-7.44-287.17-7.72Q-288.04-8.00-289.10-8.00L-289.10-8.00Q-291.01-8.00-292.41-7.05Q-293.81-6.10-294.56-4.32Q-295.30-2.53-295.30 0.02L-295.30 0.02Q-295.30 2.64-294.54 4.42Q-293.77 6.21-292.39 7.10Q-291.01 8.00-289.13 8.00L-289.13 8.00Q-288.08 8.00-287.20 7.72Q-286.32 7.44-285.65 6.89Q-284.99 6.35-284.55 5.58Q-284.11 4.82-283.95 3.85L-283.95 3.85L-277.67 3.85Q-277.85 5.61-278.67 7.30Q-279.50 9-280.97 10.40Q-282.44 11.79-284.51 12.62Q-286.58 13.45-289.26 13.45ZM-267.48 13.34L-267.48 13.34Q-269.53 13.34-271.07 12.43Q-272.61 11.51-273.45 9.84Q-274.30 8.17-274.30 5.96L-274.30 5.96L-274.30-6.56L-268.16-6.56L-268.16 4.76Q-268.16 6.42-267.31 7.36Q-266.46 8.30-264.96 8.30L-264.96 8.30Q-263.94 8.30-263.20 7.87Q-262.45 7.44-262.03 6.62Q-261.61 5.80-261.61 4.66L-261.61 4.66L-261.61-6.56L-255.47-6.56L-255.47 13.10L-261.24 13.10L-261.34 8.14L-261.08 8.14Q-261.82 10.49-263.36 11.92Q-264.91 13.34-267.48 13.34ZM-243.15 13.46L-243.15 13.46Q-245.66 13.46-247.60 12.75Q-249.53 12.04-250.74 10.70Q-251.96 9.35-252.31 7.47L-252.31 7.47L-246.61 6.57Q-246.24 7.86-245.36 8.51Q-244.49 9.16-242.92 9.16L-242.92 9.16Q-241.64 9.16-240.90 8.71Q-240.16 8.26-240.16 7.52L-240.16 7.52Q-240.16 6.84-240.75 6.42Q-241.34 6.01-242.57 5.77L-242.57 5.77L-246.00 5.10Q-248.92 4.54-250.37 3.12Q-251.82 1.71-251.82-0.56L-251.82-0.56Q-251.82-2.53-250.75-3.92Q-249.69-5.31-247.75-6.06Q-245.80-6.80-243.17-6.80L-243.17-6.80Q-240.71-6.80-238.89-6.14Q-237.07-5.48-235.95-4.26Q-234.83-3.04-234.50-1.35L-234.50-1.35L-239.92-0.49Q-240.18-1.48-241.00-2.03Q-241.81-2.58-243.06-2.58L-243.06-2.58Q-244.17-2.58-244.93-2.14Q-245.70-1.69-245.70-0.93L-245.70-0.93Q-245.70-0.33-245.22 0.11Q-244.75 0.56-243.48 0.81L-243.48 0.81L-239.72 1.51Q-236.80 2.07-235.37 3.38Q-233.94 4.68-233.94 6.82L-233.94 6.82Q-233.94 8.84-235.13 10.34Q-236.31 11.83-238.39 12.65Q-240.46 13.46-243.15 13.46ZM-232.46-6.56L-220.19-6.56L-220.19-2.00L-232.46-2.00L-232.46-6.56ZM-229.86 7.63L-229.86-11.23L-223.73-11.23L-223.73 7.08Q-223.73 7.86-223.36 8.24Q-222.99 8.61-222.16 8.61L-222.16 8.61Q-221.84 8.61-221.27 8.54Q-220.70 8.47-220.46 8.40L-220.46 8.40L-219.67 12.87Q-220.70 13.17-221.67 13.27Q-222.64 13.38-223.50 13.38L-223.50 13.38Q-226.63 13.38-228.24 11.91Q-229.86 10.44-229.86 7.63L-229.86 7.63ZM-207.92 13.46L-207.92 13.46Q-211.00 13.46-213.21 12.19Q-215.43 10.92-216.62 8.64Q-217.80 6.36-217.80 3.34L-217.80 3.34Q-217.80 0.30-216.62-1.98Q-215.43-4.25-213.21-5.53Q-211.00-6.80-207.92-6.80L-207.92-6.80Q-204.85-6.80-202.63-5.53Q-200.42-4.25-199.24-1.98Q-198.06 0.30-198.06 3.34L-198.06 3.34Q-198.06 6.36-199.24 8.64Q-200.42 10.92-202.63 12.19Q-204.85 13.46-207.92 13.46ZM-207.92 8.77L-207.92 8.77Q-206.75 8.77-205.94 8.09Q-205.13 7.40-204.71 6.17Q-204.30 4.94-204.30 3.30L-204.30 3.30Q-204.30 1.67-204.71 0.45Q-205.13-0.77-205.94-1.44Q-206.75-2.11-207.92-2.11L-207.92-2.11Q-209.10-2.11-209.91-1.44Q-210.72-0.77-211.13 0.45Q-211.54 1.67-211.54 3.30L-211.54 3.30Q-211.54 4.94-211.13 6.17Q-210.72 7.40-209.91 8.09Q-209.10 8.77-207.92 8.77ZM-188.62 13.10L-194.76 13.10L-194.76-6.56L-189.11-6.56L-188.76-1.46L-189.18-1.46Q-188.73-3.38-187.82-4.55Q-186.92-5.73-185.71-6.28Q-184.51-6.82-183.17-6.82L-183.17-6.82Q-181.06-6.82-179.77-5.47Q-178.48-4.11-177.78-1.04L-177.78-1.04L-178.46-1.04Q-177.99-3.09-176.97-4.38Q-175.95-5.66-174.58-6.24Q-173.21-6.82-171.73-6.82L-171.73-6.82Q-169.88-6.82-168.47-6.02Q-167.05-5.22-166.25-3.74Q-165.44-2.25-165.44-0.16L-165.44-0.16L-165.44 13.10L-171.55 13.10L-171.55 1.23Q-171.55-0.26-172.34-1.04Q-173.12-1.81-174.33-1.81L-174.33-1.81Q-175.19-1.81-175.83-1.42Q-176.48-1.04-176.81-0.34Q-177.14 0.35-177.14 1.30L-177.14 1.30L-177.14 13.10L-183.03 13.10L-183.03 1.14Q-183.03-0.21-183.79-1.01Q-184.54-1.81-185.77-1.81L-185.77-1.81Q-186.62-1.81-187.26-1.42Q-187.90-1.04-188.26-0.33Q-188.62 0.39-188.62 1.42L-188.62 1.42L-188.62 13.10ZM-145.22 13.46L-145.22 13.46Q-147.74 13.46-149.67 12.75Q-151.60 12.04-152.82 10.70Q-154.03 9.35-154.38 7.47L-154.38 7.47L-148.68 6.57Q-148.32 7.86-147.44 8.51Q-146.56 9.16-144.99 9.16L-144.99 9.16Q-143.71 9.16-142.97 8.71Q-142.23 8.26-142.23 7.52L-142.23 7.52Q-142.23 6.84-142.82 6.42Q-143.41 6.01-144.64 5.77L-144.64 5.77L-148.07 5.10Q-150.99 4.54-152.44 3.12Q-153.89 1.71-153.89-0.56L-153.89-0.56Q-153.89-2.53-152.82-3.92Q-151.76-5.31-149.82-6.06Q-147.88-6.80-145.24-6.80L-145.24-6.80Q-142.78-6.80-140.96-6.14Q-139.14-5.48-138.02-4.26Q-136.91-3.04-136.57-1.35L-136.57-1.35L-141.99-0.49Q-142.25-1.48-143.07-2.03Q-143.89-2.58-145.13-2.58L-145.13-2.58Q-146.24-2.58-147.01-2.14Q-147.77-1.69-147.77-0.93L-147.77-0.93Q-147.77-0.33-147.30 0.11Q-146.82 0.56-145.56 0.81L-145.56 0.81L-141.79 1.51Q-138.88 2.07-137.44 3.38Q-136.01 4.68-136.01 6.82L-136.01 6.82Q-136.01 8.84-137.20 10.34Q-138.38 11.83-140.46 12.65Q-142.53 13.46-145.22 13.46ZM-123.74 13.46L-123.74 13.46Q-126.82 13.46-129.03 12.19Q-131.25 10.92-132.43 8.64Q-133.62 6.36-133.62 3.34L-133.62 3.34Q-133.62 0.30-132.43-1.98Q-131.25-4.25-129.03-5.53Q-126.82-6.80-123.74-6.80L-123.74-6.80Q-120.67-6.80-118.45-5.53Q-116.24-4.25-115.06-1.98Q-113.88 0.30-113.88 3.34L-113.88 3.34Q-113.88 6.36-115.06 8.64Q-116.24 10.92-118.45 12.19Q-120.67 13.46-123.74 13.46ZM-123.74 8.77L-123.74 8.77Q-122.56 8.77-121.75 8.09Q-120.95 7.40-120.53 6.17Q-120.12 4.94-120.12 3.30L-120.12 3.30Q-120.12 1.67-120.53 0.45Q-120.95-0.77-121.75-1.44Q-122.56-2.11-123.74-2.11L-123.74-2.11Q-124.92-2.11-125.73-1.44Q-126.54-0.77-126.95 0.45Q-127.36 1.67-127.36 3.30L-127.36 3.30Q-127.36 4.94-126.95 6.17Q-126.54 7.40-125.73 8.09Q-124.92 8.77-123.74 8.77ZM-112.25-6.56L-98.90-6.56L-98.90-2.00L-112.25-2.00L-112.25-6.56ZM-102.84 13.10L-108.94 13.10L-108.94-7.61Q-108.94-9.86-108.10-11.36Q-107.25-12.85-105.74-13.59Q-104.23-14.33-102.26-14.33L-102.26-14.33Q-100.96-14.33-99.81-14.12Q-98.66-13.92-98.13-13.76L-98.13-13.76L-99.11-9.28Q-99.47-9.37-99.94-9.45Q-100.42-9.53-100.89-9.53L-100.89-9.53Q-101.98-9.53-102.41-9.03Q-102.84-8.53-102.84-7.66L-102.84-7.66L-102.84 13.10ZM-97.50-6.56L-85.23-6.56L-85.23-2.00L-97.50-2.00L-97.50-6.56ZM-94.90 7.63L-94.90-11.23L-88.76-11.23L-88.76 7.08Q-88.76 7.86-88.39 8.24Q-88.02 8.61-87.20 8.61L-87.20 8.61Q-86.88 8.61-86.31 8.54Q-85.74 8.47-85.49 8.40L-85.49 8.40L-84.70 12.87Q-85.74 13.17-86.70 13.27Q-87.67 13.38-88.53 13.38L-88.53 13.38Q-91.66 13.38-93.28 11.91Q-94.90 10.44-94.90 7.63L-94.90 7.63ZM-71.85 13.10L-78.11 13.10L-83.84-6.56L-77.42-6.56L-75.98 0.18Q-75.58 2.20-75.08 4.53Q-74.59 6.86-74.21 9.62L-74.21 9.62L-74.84 9.62Q-74.40 6.87-73.85 4.54Q-73.31 2.21-72.85 0.18L-72.85 0.18L-71.29-6.56L-65.84-6.56L-64.33 0.18Q-63.89 2.21-63.34 4.54Q-62.80 6.86-62.36 9.62L-62.36 9.62L-62.96 9.62Q-62.59 6.87-62.13 4.55Q-61.67 2.23-61.25 0.18L-61.25 0.18L-59.83-6.56L-53.31-6.56L-59.09 13.10L-65.35 13.10L-67.39 6.05Q-67.67 5.01-67.97 3.64Q-68.26 2.27-68.55 0.85Q-68.83-0.56-69.11-1.69L-69.11-1.69L-68.09-1.69Q-68.35-0.56-68.64 0.85Q-68.93 2.27-69.22 3.65Q-69.51 5.03-69.81 6.05L-69.81 6.05L-71.85 13.10ZM-45.52 13.45L-45.52 13.45Q-47.40 13.45-48.87 12.81Q-50.33 12.16-51.16 10.87Q-51.99 9.58-51.99 7.65L-51.99 7.65Q-51.99 6.01-51.42 4.89Q-50.84 3.76-49.83 3.06Q-48.81 2.36-47.49 1.99Q-46.17 1.62-44.67 1.49L-44.67 1.49Q-43.00 1.35-41.99 1.19Q-40.97 1.02-40.49 0.69Q-40.02 0.35-40.02-0.25L-40.02-0.25L-40.02-0.32Q-40.02-1.00-40.33-1.48Q-40.65-1.95-41.25-2.20Q-41.84-2.44-42.69-2.44L-42.69-2.44Q-43.53-2.44-44.19-2.20Q-44.85-1.95-45.27-1.49Q-45.69-1.04-45.87-0.42L-45.87-0.42L-51.42-1.14Q-51.04-2.83-49.90-4.10Q-48.77-5.38-46.93-6.09Q-45.10-6.80-42.64-6.80L-42.64-6.80Q-40.81-6.80-39.22-6.37Q-37.63-5.94-36.43-5.11Q-35.24-4.27-34.57-3.05Q-33.90-1.83-33.90-0.25L-33.90-0.25L-33.90 13.10L-39.67 13.10L-39.67 10.34L-39.82 10.34Q-40.35 11.36-41.17 12.04Q-41.99 12.73-43.07 13.09Q-44.15 13.45-45.52 13.45ZM-43.66 9.39L-43.66 9.39Q-42.62 9.39-41.78 8.96Q-40.95 8.54-40.46 7.80Q-39.96 7.07-39.96 6.10L-39.96 6.10L-39.96 4.22Q-40.23 4.36-40.62 4.48Q-41.02 4.61-41.49 4.70Q-41.97 4.80-42.44 4.88Q-42.92 4.96-43.36 5.03L-43.36 5.03Q-44.25 5.15-44.89 5.45Q-45.52 5.75-45.85 6.22Q-46.19 6.70-46.19 7.37L-46.19 7.37Q-46.19 8.02-45.85 8.46Q-45.52 8.91-44.96 9.15Q-44.39 9.39-43.66 9.39ZM-23.70 13.10L-29.84 13.10L-29.84-6.56L-23.88-6.56L-23.88-2.97L-23.67-2.97Q-23.14-4.92-21.92-5.86Q-20.70-6.80-19.08-6.80L-19.08-6.80Q-18.66-6.80-18.19-6.75Q-17.73-6.70-17.34-6.59L-17.34-6.59L-17.34-1.25Q-17.78-1.41-18.49-1.49Q-19.20-1.56-19.77-1.56L-19.77-1.56Q-20.89-1.56-21.79-1.06Q-22.68-0.56-23.19 0.32Q-23.70 1.20-23.70 2.37L-23.70 2.37L-23.70 13.10ZM-5.56 13.46L-5.56 13.46Q-8.64 13.46-10.87 12.24Q-13.10 11.02-14.29 8.75Q-15.48 6.49-15.48 3.34L-15.48 3.34Q-15.48 0.32-14.29-1.97Q-13.10-4.25-10.92-5.53Q-8.75-6.80-5.79-6.80L-5.79-6.80Q-3.72-6.80-1.99-6.15Q-0.25-5.50 1.02-4.23Q2.29-2.95 2.99-1.09Q3.68 0.77 3.68 3.22L3.68 3.22L3.68 4.76L-13.30 4.76L-13.30 1.20L0.76 1.20L-2.10 2.04Q-2.10 0.67-2.51-0.32Q-2.93-1.30-3.74-1.83Q-4.54-2.36-5.74-2.36L-5.74-2.36Q-6.93-2.36-7.76-1.82Q-8.59-1.28-9.02-0.33Q-9.45 0.63-9.45 1.92L-9.45 1.92L-9.45 4.48Q-9.45 5.99-8.95 7.00Q-8.45 8.02-7.55 8.52Q-6.65 9.02-5.46 9.02L-5.46 9.02Q-4.63 9.02-3.96 8.79Q-3.28 8.56-2.79 8.10Q-2.31 7.65-2.07 7.00L-2.07 7.00L3.40 7.89Q2.91 9.58 1.71 10.84Q0.50 12.09-1.34 12.78Q-3.17 13.46-5.56 13.46ZM11.22 13.46L11.22 13.46Q9.82 13.46 8.86 12.52Q7.90 11.58 7.90 10.20L7.90 10.20Q7.90 8.79 8.86 7.85Q9.82 6.91 11.22 6.91L11.22 6.91Q12.63 6.91 13.59 7.85Q14.55 8.79 14.55 10.20L14.55 10.20Q14.55 11.58 13.59 12.52Q12.63 13.46 11.22 13.46ZM31.61 13.10L24.72 13.10L33.46-13.10L41.77-13.10L50.77 13.10L43.81 13.10L40.17 1.65Q39.30-1.21 38.48-4.44Q37.66-7.66 36.83-11.13L36.83-11.13L38.22-11.13Q37.43-7.65 36.69-4.42Q35.96-1.20 35.13 1.65L35.13 1.65L31.61 13.10ZM44.85 7.52L30.67 7.52L30.67 2.78L44.85 2.78L44.85 7.52ZM53.64-13.10L59.84-13.10L59.84 13.10L53.64 13.10L53.64-13.10ZM68.23 13.46L68.23 13.46Q66.82 13.46 65.87 12.52Q64.91 11.58 64.91 10.20L64.91 10.20Q64.91 8.79 65.87 7.85Q66.82 6.91 68.23 6.91L68.23 6.91Q69.64 6.91 70.59 7.85Q71.55 8.79 71.55 10.20L71.55 10.20Q71.55 11.58 70.59 12.52Q69.64 13.46 68.23 13.46ZM101.10 13.10L82.94 13.10L82.94-13.10L101.12-13.10L101.12-8.03L89.15-8.03L89.15-2.62L100.17-2.62L100.17 2.34L89.15 2.34L89.15 8.03L101.10 8.03L101.10 13.10ZM111.10 13.10L104.90 13.10L104.90-13.10L115.62-13.10Q118.57-13.10 120.72-12.03Q122.86-10.97 124.01-9.02Q125.17-7.07 125.17-4.39L125.17-4.39Q125.17-1.71 123.99 0.20Q122.81 2.11 120.63 3.09Q118.45 4.08 115.44 4.08L115.44 4.08L108.61 4.08L108.61-0.83L114.32-0.83Q115.78-0.83 116.75-1.21Q117.73-1.60 118.23-2.39Q118.73-3.18 118.73-4.39L118.73-4.39Q118.73-5.63 118.23-6.43Q117.73-7.24 116.75-7.66Q115.76-8.07 114.30-8.07L114.30-8.07L111.10-8.07L111.10 13.10ZM126.08 13.10L119.28 13.10L112.90 1.13L119.54 1.13L126.08 13.10ZM134.94 13.10L128.73 13.10L128.73-13.10L139.46-13.10Q142.41-13.10 144.55-11.95Q146.70-10.81 147.85-8.77Q149.00-6.73 149.00-4.04L149.00-4.04Q149.00-1.34 147.82 0.67Q146.65 2.67 144.47 3.80Q142.29 4.92 139.28 4.92L139.28 4.92L132.64 4.92L132.64 0.02L138.16 0.02Q139.61 0.02 140.60-0.49Q141.58-1.00 142.08-1.92Q142.57-2.83 142.57-4.04L142.57-4.04Q142.57-5.27 142.08-6.18Q141.58-7.08 140.59-7.58Q139.60-8.07 138.14-8.07L138.14-8.07L134.94-8.07L134.94 13.10ZM156.51 13.46L156.51 13.46Q155.10 13.46 154.14 12.52Q153.18 11.58 153.18 10.20L153.18 10.20Q153.18 8.79 154.14 7.85Q155.10 6.91 156.51 6.91L156.51 6.91Q157.91 6.91 158.87 7.85Q159.83 8.79 159.83 10.20L159.83 10.20Q159.83 11.58 158.87 12.52Q157.91 13.46 156.51 13.46ZM177.44 13.10L171.22 13.10L171.22-13.10L180.89-13.10L184.23-2.90Q184.51-1.97 184.87-0.43Q185.23 1.11 185.60 2.87Q185.97 4.62 186.28 6.26Q186.58 7.89 186.78 9.07L186.78 9.07L185.60 9.07Q185.79 7.91 186.10 6.28Q186.41 4.64 186.77 2.87Q187.13 1.11 187.49-0.42Q187.85-1.95 188.13-2.90L188.13-2.90L191.42-13.10L201.10-13.10L201.10 13.10L194.86 13.10L194.86 1.81Q194.86 0.93 194.90-0.45Q194.93-1.83 194.98-3.45Q195.02-5.06 195.06-6.71Q195.11-8.35 195.11-9.77L195.11-9.77L195.48-9.77Q195.16-8.21 194.75-6.54Q194.33-4.87 193.92-3.29Q193.51-1.71 193.13-0.39Q192.75 0.93 192.49 1.81L192.49 1.81L188.76 13.10L183.58 13.10L179.80 1.81Q179.53 0.95 179.15-0.37Q178.76-1.69 178.34-3.27Q177.92-4.85 177.50-6.52Q177.07-8.19 176.72-9.77L176.72-9.77L177.18-9.77Q177.20-8.38 177.23-6.75Q177.27-5.12 177.31-3.48Q177.35-1.85 177.40-0.47Q177.44 0.91 177.44 1.81L177.44 1.81L177.44 13.10ZM214.29 13.46L214.29 13.46Q211.21 13.46 209.00 12.19Q206.78 10.92 205.59 8.64Q204.41 6.36 204.41 3.34L204.41 3.34Q204.41 0.30 205.59-1.98Q206.78-4.25 209.00-5.53Q211.21-6.80 214.29-6.80L214.29-6.80Q217.36-6.80 219.58-5.53Q221.79-4.25 222.97-1.98Q224.15 0.30 224.15 3.34L224.15 3.34Q224.15 6.36 222.97 8.64Q221.79 10.92 219.58 12.19Q217.36 13.46 214.29 13.46ZM214.29 8.77L214.29 8.77Q215.46 8.77 216.27 8.09Q217.08 7.40 217.49 6.17Q217.91 4.94 217.91 3.30L217.91 3.30Q217.91 1.67 217.49 0.45Q217.08-0.77 216.27-1.44Q215.46-2.11 214.29-2.11L214.29-2.11Q213.11-2.11 212.30-1.44Q211.49-0.77 211.08 0.45Q210.67 1.67 210.67 3.30L210.67 3.30Q210.67 4.94 211.08 6.17Q211.49 7.40 212.30 8.09Q213.11 8.77 214.29 8.77ZM239.25 13.38L239.25 13.38Q237.75 13.38 236.65 12.88Q235.56 12.38 234.83 11.58Q234.11 10.79 233.73 9.91L233.73 9.91L233.52 9.91L233.52 13.10L227.45 13.10L227.45-13.10L233.59-13.10L233.59-3.18L233.73-3.18Q234.10-4.08 234.81-4.90Q235.52-5.73 236.62-6.27Q237.72-6.80 239.28-6.80L239.28-6.80Q241.36-6.80 243.14-5.72Q244.92-4.64 246.02-2.40Q247.12-0.16 247.12 3.29L247.12 3.29Q247.12 6.63 246.07 8.87Q245.01 11.11 243.22 12.24Q241.43 13.38 239.25 13.38ZM237.16 8.60L237.16 8.60Q238.33 8.60 239.15 7.94Q239.97 7.28 240.39 6.07Q240.81 4.87 240.81 3.29L240.81 3.29Q240.81 1.69 240.39 0.50Q239.97-0.69 239.16-1.34Q238.35-2.00 237.16-2.00L237.16-2.00Q235.98-2.00 235.15-1.36Q234.33-0.72 233.89 0.47Q233.45 1.65 233.45 3.29L233.45 3.29Q233.45 4.89 233.89 6.08Q234.33 7.28 235.16 7.94Q236.00 8.60 237.16 8.60ZM256.54 13.10L250.41 13.10L250.41-6.56L256.54-6.56L256.54 13.10ZM253.47-8.86L253.47-8.86Q252.17-8.86 251.24-9.73Q250.30-10.60 250.30-11.81L250.30-11.81Q250.30-13.04 251.24-13.90Q252.17-14.77 253.47-14.77L253.47-14.77Q254.79-14.77 255.72-13.91Q256.65-13.06 256.65-11.81L256.65-11.81Q256.65-10.58 255.72-9.72Q254.79-8.86 253.47-8.86ZM260.60-13.10L266.74-13.10L266.74 13.10L260.60 13.10L260.60-13.10ZM279.96 13.46L279.96 13.46Q276.88 13.46 274.65 12.24Q272.42 11.02 271.23 8.75Q270.04 6.49 270.04 3.34L270.04 3.34Q270.04 0.32 271.23-1.97Q272.42-4.25 274.60-5.53Q276.78-6.80 279.73-6.80L279.73-6.80Q281.80-6.80 283.54-6.15Q285.27-5.50 286.54-4.23Q287.82-2.95 288.51-1.09Q289.20 0.77 289.20 3.22L289.20 3.22L289.20 4.76L272.22 4.76L272.22 1.20L286.29 1.20L283.42 2.04Q283.42 0.67 283.01-0.32Q282.59-1.30 281.79-1.83Q280.98-2.36 279.78-2.36L279.78-2.36Q278.59-2.36 277.76-1.82Q276.93-1.28 276.50-0.33Q276.07 0.63 276.07 1.92L276.07 1.92L276.07 4.48Q276.07 5.99 276.57 7.00Q277.08 8.02 277.97 8.52Q278.87 9.02 280.06 9.02L280.06 9.02Q280.89 9.02 281.57 8.79Q282.24 8.56 282.73 8.10Q283.21 7.65 283.46 7.00L283.46 7.00L288.92 7.89Q288.43 9.58 287.23 10.84Q286.02 12.09 284.19 12.78Q282.35 13.46 279.96 13.46ZM296.75 13.46L296.75 13.46Q295.34 13.46 294.38 12.52Q293.42 11.58 293.42 10.20L293.42 10.20Q293.42 8.79 294.38 7.85Q295.34 6.91 296.75 6.91L296.75 6.91Q298.15 6.91 299.11 7.85Q300.07 8.79 300.07 10.20L300.07 10.20Q300.07 11.58 299.11 12.52Q298.15 13.46 296.75 13.46Z"/></g>
  <!-- Subline -->
  <g transform="translate(564 128)" fill="#F97316"><path d="M-147.98 4.00L-149.31 4.00L-146.46-4.00L-144.96-4.00L-142.06 4.00L-143.39 4.00L-144.94-0.45Q-145.13-0.99-145.34-1.73Q-145.56-2.47-145.85-3.50L-145.85-3.50L-145.60-3.50Q-145.87-2.45-146.09-1.71Q-146.31-0.97-146.48-0.45L-146.48-0.45L-147.98 4.00ZM-143.61 1.89L-147.77 1.89L-147.77 0.87L-143.61 0.87L-143.61 1.89ZM-129.50 4.00L-129.50 4.00L-131.48 4.00L-131.48 2.93L-129.57 2.93Q-128.66 2.93-128.06 2.59Q-127.46 2.25-127.16 1.59Q-126.85 0.93-126.85-0.01L-126.85-0.01Q-126.85-0.95-127.15-1.60Q-127.45-2.25-128.04-2.59Q-128.63-2.93-129.50-2.93L-129.50-2.93L-131.52-2.93L-131.52-4.00L-129.42-4.00Q-128.24-4.00-127.40-3.52Q-126.55-3.05-126.10-2.15Q-125.65-1.26-125.65-0.01L-125.65-0.01Q-125.65 1.24-126.11 2.14Q-126.56 3.03-127.42 3.52Q-128.28 4.00-129.50 4.00ZM-132.10-4.00L-130.88-4.00L-130.88 4.00L-132.10 4.00L-132.10-4.00ZM-116.16 4.00L-121.23 4.00L-121.23-4.00L-116.19-4.00L-116.19-2.95L-120.01-2.95L-120.01-0.56L-116.47-0.56L-116.47 0.48L-120.01 0.48L-120.01 2.95L-116.16 2.95L-116.16 4.00ZM-108.34 4.11L-108.34 4.11Q-109.38 4.11-110.19 3.62Q-111.01 3.13-111.48 2.20Q-111.94 1.28-111.94 0.01L-111.94 0.01Q-111.94-1.28-111.48-2.20Q-111.01-3.12-110.19-3.61Q-109.38-4.11-108.34-4.11L-108.34-4.11Q-107.71-4.11-107.15-3.93Q-106.59-3.74-106.16-3.39Q-105.72-3.05-105.43-2.55Q-105.14-2.05-105.04-1.41L-105.04-1.41L-106.27-1.41Q-106.35-1.79-106.54-2.09Q-106.73-2.38-107.00-2.58Q-107.28-2.79-107.62-2.89Q-107.95-2.99-108.33-2.99L-108.33-2.99Q-109.02-2.99-109.56-2.65Q-110.11-2.30-110.42-1.63Q-110.73-0.96-110.73 0.01L-110.73 0.01Q-110.73 0.97-110.41 1.64Q-110.10 2.31-109.55 2.65Q-109.01 2.99-108.33 2.99L-108.33 2.99Q-107.95 2.99-107.62 2.89Q-107.28 2.78-107.01 2.58Q-106.73 2.38-106.54 2.08Q-106.35 1.79-106.27 1.41L-106.27 1.41L-105.04 1.41Q-105.13 2.00-105.41 2.49Q-105.69 2.99-106.12 3.35Q-106.56 3.72-107.12 3.91Q-107.68 4.11-108.34 4.11ZM-99.95 4.00L-101.28 4.00L-98.43-4.00L-96.93-4.00L-94.03 4.00L-95.35 4.00L-96.91-0.45Q-97.09-0.99-97.31-1.73Q-97.53-2.47-97.81-3.50L-97.81-3.50L-97.57-3.50Q-97.84-2.45-98.06-1.71Q-98.27-0.97-98.44-0.45L-98.44-0.45L-99.95 4.00ZM-95.57 1.89L-99.74 1.89L-99.74 0.87L-95.57 0.87L-95.57 1.89ZM-87.33 4.00L-87.33 4.00L-89.31 4.00L-89.31 2.93L-87.40 2.93Q-86.49 2.93-85.89 2.59Q-85.29 2.25-84.99 1.59Q-84.69 0.93-84.69-0.01L-84.69-0.01Q-84.69-0.95-84.98-1.60Q-85.28-2.25-85.87-2.59Q-86.46-2.93-87.33-2.93L-87.33-2.93L-89.35-2.93L-89.35-4.00L-87.25-4.00Q-86.07-4.00-85.23-3.52Q-84.39-3.05-83.93-2.15Q-83.48-1.26-83.48-0.01L-83.48-0.01Q-83.48 1.24-83.94 2.14Q-84.39 3.03-85.25 3.52Q-86.11 4.00-87.33 4.00ZM-89.93-4.00L-88.71-4.00L-88.71 4.00L-89.93 4.00L-89.93-4.00ZM-73.99 4.00L-79.06 4.00L-79.06-4.00L-74.02-4.00L-74.02-2.95L-77.84-2.95L-77.84-0.56L-74.30-0.56L-74.30 0.48L-77.84 0.48L-77.84 2.95L-73.99 2.95L-73.99 4.00ZM-60.30 4.11L-60.30 4.11Q-61.33 4.11-62.15 3.62Q-62.97 3.13-63.44 2.20Q-63.91 1.28-63.91 0.01L-63.91 0.01Q-63.91-1.28-63.44-2.20Q-62.97-3.12-62.15-3.61Q-61.33-4.11-60.30-4.11L-60.30-4.11Q-59.26-4.11-58.45-3.61Q-57.63-3.12-57.16-2.20Q-56.69-1.28-56.69 0.01L-56.69 0.01Q-56.69 1.28-57.16 2.20Q-57.63 3.13-58.45 3.62Q-59.26 4.11-60.30 4.11ZM-60.30 2.99L-60.30 2.99Q-59.61 2.99-59.07 2.65Q-58.53 2.31-58.22 1.64Q-57.91 0.97-57.91 0.01L-57.91 0.01Q-57.91-0.97-58.22-1.64Q-58.53-2.31-59.07-2.65Q-59.61-2.99-60.30-2.99L-60.30-2.99Q-60.98-2.99-61.53-2.65Q-62.07-2.30-62.38-1.64Q-62.70-0.97-62.70 0.01L-62.70 0.01Q-62.70 0.97-62.38 1.64Q-62.07 2.30-61.53 2.65Q-60.98 2.99-60.30 2.99ZM-51.04 4.00L-52.27 4.00L-52.27-4.00L-47.29-4.00L-47.29-2.95L-51.04-2.95L-51.04-0.38L-47.65-0.38L-47.65 0.67L-51.04 0.67L-51.04 4.00ZM-34.30 4.14L-34.30 4.14Q-35.20 4.14-35.86 3.85Q-36.52 3.57-36.89 3.04Q-37.26 2.51-37.30 1.78L-37.30 1.78L-36.07 1.78Q-36.03 2.21-35.79 2.50Q-35.55 2.78-35.15 2.92Q-34.76 3.06-34.31 3.06L-34.31 3.06Q-33.79 3.06-33.40 2.90Q-33.01 2.74-32.77 2.45Q-32.54 2.16-32.54 1.77L-32.54 1.77Q-32.54 1.42-32.74 1.20Q-32.95 0.98-33.29 0.83Q-33.63 0.68-34.06 0.57L-34.06 0.57L-35.00 0.31Q-35.98 0.05-36.53-0.47Q-37.08-0.98-37.08-1.80L-37.08-1.80Q-37.08-2.50-36.71-3.02Q-36.34-3.53-35.69-3.82Q-35.05-4.11-34.25-4.11L-34.25-4.11Q-33.42-4.11-32.80-3.82Q-32.17-3.53-31.82-3.03Q-31.46-2.54-31.44-1.90L-31.44-1.90L-32.63-1.90Q-32.69-2.44-33.14-2.74Q-33.59-3.05-34.27-3.05L-34.27-3.05Q-34.76-3.05-35.11-2.90Q-35.47-2.74-35.67-2.48Q-35.86-2.21-35.86-1.87L-35.86-1.87Q-35.86-1.49-35.63-1.26Q-35.40-1.03-35.06-0.89Q-34.72-0.75-34.42-0.67L-34.42-0.67L-33.64-0.47Q-33.26-0.37-32.85-0.21Q-32.45-0.04-32.10 0.22Q-31.76 0.48-31.55 0.86Q-31.33 1.25-31.33 1.79L-31.33 1.79Q-31.33 2.47-31.68 3.00Q-32.03 3.53-32.70 3.83Q-33.36 4.14-34.30 4.14ZM-25.72 4.00L-26.95 4.00L-26.95-4.00L-25.72-4.00L-25.72-0.62L-21.76-0.62L-21.76-4.00L-20.53-4.00L-20.53 4.00L-21.76 4.00L-21.76 0.44L-25.72 0.44L-25.72 4.00ZM-15.82-4.00L-14.60-4.00L-14.60 4.00L-15.82 4.00L-15.82-4.00ZM-8.67 4.00L-9.89 4.00L-9.89-4.00L-7.03-4.00Q-6.10-4.00-5.48-3.66Q-4.87-3.31-4.56-2.73Q-4.25-2.14-4.25-1.40L-4.25-1.40Q-4.25-0.66-4.56-0.07Q-4.87 0.52-5.49 0.86Q-6.11 1.20-7.04 1.20L-7.04 1.20L-9.00 1.20L-9.00 0.16L-7.15 0.16Q-6.56 0.16-6.20-0.04Q-5.83-0.25-5.66-0.60Q-5.49-0.96-5.49-1.40L-5.49-1.40Q-5.49-1.85-5.66-2.20Q-5.83-2.56-6.20-2.76Q-6.57-2.95-7.17-2.95L-7.17-2.95L-8.67-2.95L-8.67 4.00ZM1.32 4.00L0.10 4.00L0.10-4.00L2.96-4.00Q3.89-4.00 4.51-3.66Q5.12-3.31 5.43-2.73Q5.74-2.14 5.74-1.40L5.74-1.40Q5.74-0.66 5.43-0.07Q5.12 0.52 4.50 0.86Q3.88 1.20 2.95 1.20L2.95 1.20L0.99 1.20L0.99 0.16L2.84 0.16Q3.43 0.16 3.79-0.04Q4.16-0.25 4.33-0.60Q4.50-0.96 4.50-1.40L4.50-1.40Q4.50-1.85 4.33-2.20Q4.16-2.56 3.79-2.76Q3.42-2.95 2.83-2.95L2.83-2.95L1.32-2.95L1.32 4.00ZM10.09-4.00L11.31-4.00L11.31 4.00L10.09 4.00L10.09-4.00ZM17.26 4.00L16.02 4.00L16.02-4.00L17.43-4.00L20.44 0.76Q20.59 1.00 20.78 1.33Q20.97 1.65 21.18 2.07Q21.39 2.48 21.59 2.96L21.59 2.96L21.44 2.96Q21.39 2.50 21.37 2.05Q21.34 1.61 21.33 1.21Q21.32 0.82 21.32 0.55L21.32 0.55L21.32-4.00L22.56-4.00L22.56 4.00L21.15 4.00L18.44-0.26Q18.23-0.61 18.02-0.96Q17.82-1.32 17.57-1.78Q17.32-2.25 16.96-2.91L16.96-2.91L17.15-2.91Q17.18-2.32 17.20-1.81Q17.23-1.29 17.24-0.90Q17.26-0.50 17.26-0.27L17.26-0.27L17.26 4.00ZM30.63 4.11L30.63 4.11Q29.55 4.11 28.73 3.61Q27.91 3.11 27.45 2.19Q26.99 1.27 26.99 0.01L26.99 0.01Q26.99-1.27 27.45-2.19Q27.92-3.12 28.73-3.61Q29.54-4.11 30.58-4.11L30.58-4.11Q31.22-4.11 31.78-3.92Q32.34-3.73 32.79-3.38Q33.23-3.02 33.52-2.54Q33.81-2.05 33.90-1.47L33.90-1.47L32.65-1.47Q32.54-1.82 32.35-2.10Q32.16-2.38 31.90-2.58Q31.64-2.78 31.31-2.89Q30.98-2.99 30.59-2.99L30.59-2.99Q29.91-2.99 29.37-2.65Q28.83-2.30 28.52-1.64Q28.20-0.97 28.20 0L28.20 0Q28.20 0.97 28.52 1.63Q28.83 2.30 29.38 2.65Q29.93 2.99 30.64 2.99L30.64 2.99Q31.28 2.99 31.76 2.73Q32.24 2.47 32.51 1.99Q32.77 1.51 32.77 0.85L32.77 0.85L33.09 0.91L30.81 0.91L30.81-0.10L33.97-0.10L33.97 0.82Q33.97 1.83 33.54 2.56Q33.11 3.30 32.36 3.71Q31.60 4.11 30.63 4.11ZM45.07 0.99L45.07 0.99Q44.74 0.99 44.51 0.76Q44.28 0.53 44.28 0.20L44.28 0.20Q44.28-0.13 44.51-0.36Q44.74-0.59 45.07-0.59L45.07-0.59Q45.40-0.59 45.63-0.36Q45.86-0.13 45.86 0.20L45.86 0.20Q45.86 0.53 45.63 0.76Q45.40 0.99 45.07 0.99ZM57.24 4.00L55.83 4.00L59.02-0.55L59.02 0.37L56.04-4.00L57.46-4.00L58.52-2.42Q58.78-2.05 58.94-1.77Q59.10-1.50 59.23-1.24Q59.37-0.98 59.54-0.65L59.54-0.65L59.28-0.65Q59.44-0.98 59.58-1.24Q59.72-1.49 59.88-1.77Q60.05-2.05 60.30-2.42L60.30-2.42L61.38-4.00L62.77-4.00L59.81 0.31L59.81-0.58L62.95 4.00L61.52 4.00L60.22 2.09Q59.99 1.76 59.84 1.52Q59.69 1.28 59.56 1.05Q59.44 0.82 59.28 0.51L59.28 0.51L59.51 0.51Q59.36 0.81 59.23 1.04Q59.10 1.27 58.95 1.51Q58.80 1.75 58.56 2.09L58.56 2.09L57.24 4.00ZM69.75 4.14L69.75 4.14Q68.85 4.14 68.19 3.85Q67.53 3.57 67.16 3.04Q66.78 2.51 66.75 1.78L66.75 1.78L67.98 1.78Q68.01 2.21 68.26 2.50Q68.50 2.78 68.90 2.92Q69.29 3.06 69.74 3.06L69.74 3.06Q70.25 3.06 70.65 2.90Q71.04 2.74 71.27 2.45Q71.51 2.16 71.51 1.77L71.51 1.77Q71.51 1.42 71.30 1.20Q71.10 0.98 70.76 0.83Q70.42 0.68 69.99 0.57L69.99 0.57L69.05 0.31Q68.07 0.05 67.52-0.47Q66.97-0.98 66.97-1.80L66.97-1.80Q66.97-2.50 67.34-3.02Q67.71-3.53 68.36-3.82Q69.00-4.11 69.80-4.11L69.80-4.11Q70.62-4.11 71.25-3.82Q71.88-3.53 72.23-3.03Q72.59-2.54 72.61-1.90L72.61-1.90L71.41-1.90Q71.35-2.44 70.91-2.74Q70.46-3.05 69.78-3.05L69.78-3.05Q69.29-3.05 68.94-2.90Q68.58-2.74 68.38-2.48Q68.19-2.21 68.19-1.87L68.19-1.87Q68.19-1.49 68.42-1.26Q68.65-1.03 68.99-0.89Q69.32-0.75 69.63-0.67L69.63-0.67L70.41-0.47Q70.79-0.37 71.20-0.21Q71.60-0.04 71.95 0.22Q72.29 0.48 72.50 0.86Q72.71 1.25 72.71 1.79L72.71 1.79Q72.71 2.47 72.36 3.00Q72.02 3.53 71.35 3.83Q70.69 4.14 69.75 4.14ZM82.17 4.00L77.10 4.00L77.10-4.00L82.14-4.00L82.14-2.95L78.33-2.95L78.33-0.56L81.87-0.56L81.87 0.48L78.33 0.48L78.33 2.95L82.17 2.95L82.17 4.00ZM87.89 4.00L86.67 4.00L86.67-4.00L89.54-4.00Q90.46-4.00 91.08-3.68Q91.70-3.36 92.00-2.79Q92.31-2.22 92.31-1.49L92.31-1.49Q92.31-0.75 92.00-0.19Q91.69 0.37 91.07 0.67Q90.45 0.98 89.53 0.98L89.53 0.98L87.37 0.98L87.37-0.07L89.41-0.07Q90.00-0.07 90.36-0.24Q90.72-0.41 90.90-0.73Q91.07-1.04 91.07-1.49L91.07-1.49Q91.07-1.94 90.90-2.27Q90.72-2.59 90.36-2.77Q89.99-2.95 89.40-2.95L89.40-2.95L87.89-2.95L87.89 4.00ZM92.61 4.00L91.22 4.00L89.28 0.39L90.64 0.39L92.61 4.00ZM100.51 4.00L99.01 4.00L96.12-4.00L97.44-4.00L98.99 0.45Q99.17 0.97 99.39 1.71Q99.61 2.46 99.90 3.48L99.90 3.48L99.64 3.48Q99.92 2.44 100.14 1.70Q100.36 0.97 100.53 0.45L100.53 0.45L102.04-4.00L103.37-4.00L100.51 4.00ZM118.17 4.00L113.32 4.00L113.32-4.00L114.55-4.00L114.55 2.95L118.17 2.95L118.17 4.00ZM123.19 4.00L121.86 4.00L124.71-4.00L126.22-4.00L129.12 4.00L127.79 4.00L126.23-0.45Q126.05-0.99 125.83-1.73Q125.61-2.47 125.33-3.50L125.33-3.50L125.58-3.50Q125.30-2.45 125.08-1.71Q124.87-0.97 124.70-0.45L124.70-0.45L123.19 4.00ZM127.57 1.89L123.41 1.89L123.41 0.87L127.57 0.87L127.57 1.89ZM136.29 4.00L133.21 4.00L133.21-4.00L136.16-4.00Q137.01-4.00 137.57-3.72Q138.13-3.44 138.40-2.97Q138.68-2.49 138.68-1.90L138.68-1.90Q138.68-1.40 138.49-1.06Q138.31-0.72 138.00-0.51Q137.69-0.31 137.32-0.21L137.32-0.21L137.32-0.13Q137.73-0.11 138.11 0.13Q138.49 0.37 138.74 0.80Q138.99 1.23 138.99 1.85L138.99 1.85Q138.99 2.45 138.70 2.94Q138.41 3.43 137.82 3.72Q137.22 4.00 136.29 4.00L136.29 4.00ZM134.43 0.41L134.43 2.95L136.16 2.95Q137.02 2.95 137.40 2.62Q137.77 2.28 137.77 1.79L137.77 1.79Q137.77 1.40 137.58 1.09Q137.39 0.78 137.04 0.59Q136.69 0.41 136.21 0.41L136.21 0.41L134.43 0.41ZM134.43-2.95L134.43-0.54L136.04-0.54Q136.44-0.54 136.77-0.69Q137.10-0.85 137.29-1.13Q137.47-1.42 137.47-1.80L137.47-1.80Q137.47-2.29 137.13-2.62Q136.79-2.95 136.07-2.95L136.07-2.95L134.43-2.95ZM146.05 4.14L146.05 4.14Q145.15 4.14 144.49 3.85Q143.83 3.57 143.46 3.04Q143.09 2.51 143.05 1.78L143.05 1.78L144.28 1.78Q144.32 2.21 144.56 2.50Q144.80 2.78 145.20 2.92Q145.59 3.06 146.05 3.06L146.05 3.06Q146.56 3.06 146.95 2.90Q147.35 2.74 147.58 2.45Q147.81 2.16 147.81 1.77L147.81 1.77Q147.81 1.42 147.61 1.20Q147.40 0.98 147.06 0.83Q146.72 0.68 146.29 0.57L146.29 0.57L145.35 0.31Q144.37 0.05 143.82-0.47Q143.27-0.98 143.27-1.80L143.27-1.80Q143.27-2.50 143.64-3.02Q144.02-3.53 144.66-3.82Q145.30-4.11 146.10-4.11L146.10-4.11Q146.93-4.11 147.55-3.82Q148.18-3.53 148.53-3.03Q148.89-2.54 148.91-1.90L148.91-1.90L147.72-1.90Q147.66-2.44 147.21-2.74Q146.76-3.05 146.08-3.05L146.08-3.05Q145.59-3.05 145.24-2.90Q144.88-2.74 144.68-2.48Q144.49-2.21 144.49-1.87L144.49-1.87Q144.49-1.49 144.72-1.26Q144.96-1.03 145.29-0.89Q145.63-0.75 145.93-0.67L145.93-0.67L146.71-0.47Q147.09-0.37 147.50-0.21Q147.90-0.04 148.25 0.22Q148.59 0.48 148.80 0.86Q149.02 1.25 149.02 1.79L149.02 1.79Q149.02 2.47 148.67 3.00Q148.32 3.53 147.65 3.83Q146.99 4.14 146.05 4.14Z"/></g>
</svg>