<svg xmlns="http://www.w3.org/2000/svg" viewBox="0 0 900 300" width="900" height="300">
  <rect width="900" height="300" rx="60" fill="#0A0A0A"/>
  <g>
    <circle cx="150" cy="150" r="112" fill="none" stroke="#F97316" stroke-width="2" opacity="0.16"/>
    <circle cx="150" cy="150" r="78" fill="none" stroke="#06B6D4" stroke-width="2" opacity="0.14"/>
    <g stroke="#FAFAFA" stroke-width="26" stroke-linecap="square" fill="none">
      <line x1="92" y1="92" x2="208" y2="208"/>
      <line x1="208" y1="92" x2="92" y2="208"/>
    </g>
    <circle cx="208" cy="92" r="9" fill="#F97316"/>
  </g>
  <g transform="translate(330 130)" fill="#FAFAFA">
    <path d="M20.57 33.47L2.20 33.47L30.37-6.60L30.37 5.44L4.58-33.47L22.96-33.47L29.33-23.45Q31.36-20.26 32.66-17.54Q33.96-14.82 35.04-12.35Q36.12-9.88 37.42-7.50L37.42-7.50L32.93-7.50Q34.28-9.88 35.38-12.35Q36.48-14.82 37.80-17.54Q39.13-20.26 41.15-23.45L41.15-23.45L47.66-33.47L65.54-33.47L40.38 4.54L40.38-6.83L67.83 33.47L49.01 33.47L40.65 20.66Q38.81 17.79 37.73 15.83Q36.66 13.88 35.83 12.20Q34.99 10.51 33.83 8.54L33.83 8.54L36.12 8.54Q35.04 10.47 34.19 12.17Q33.33 13.88 32.23 15.86Q31.13 17.83 29.24 20.66L29.24 20.66L20.57 33.47ZM101.07 34.37L101.07 34.37Q92.72 34.37 86.52 31.85Q80.32 29.33 76.86 24.21Q73.40 19.09 73.27 11.37L73.27 11.37L88.50 11.37Q88.72 14.60 90.27 16.80Q91.82 19.00 94.54 20.10Q97.26 21.20 100.89 21.20L100.89 21.20Q104.17 21.20 106.55 20.30Q108.94 19.41 110.22 17.79Q111.50 16.17 111.50 14.02L111.50 14.02Q111.50 12.08 110.31 10.74Q109.12 9.39 106.73 8.36Q104.35 7.32 100.67 6.51L100.67 6.51L93.57 4.85Q84.90 2.88 79.96-1.62Q75.02-6.11 75.02-13.66L75.02-13.66Q75.02-19.86 78.39-24.53Q81.76-29.20 87.62-31.78Q93.48-34.37 101.07-34.37L101.07-34.37Q108.85-34.37 114.55-31.74Q120.26-29.11 123.40-24.42Q126.54-19.72 126.63-13.52L126.63-13.52L111.41-13.52Q111.09-17.16 108.44-19.18Q105.79-21.20 101.03-21.20L101.03-21.20Q97.88-21.20 95.73-20.37Q93.57-19.54 92.49-18.08Q91.42-16.62 91.42-14.73L91.42-14.73Q91.42-12.67 92.63-11.25Q93.84-9.84 96.09-8.89Q98.33-7.95 101.30-7.28L101.30-7.28L107.09-5.93Q111.95-4.90 115.74-3.12Q119.54-1.35 122.17 1.12Q124.79 3.59 126.16 6.83Q127.53 10.06 127.53 14.06L127.53 14.06Q127.53 20.39 124.37 24.95Q121.20 29.51 115.29 31.94Q109.38 34.37 101.07 34.37ZM182.38 33.47L135.98 33.47L135.98-33.47L182.43-33.47L182.43-20.53L151.84-20.53L151.84-6.69L180.00-6.69L180.00 5.97L151.84 5.97L151.84 20.53L182.38 20.53L182.38 33.47ZM207.94 33.47L192.09 33.47L192.09-33.47L219.49-33.47Q227.04-33.47 232.52-30.75Q238.00-28.03 240.94-23.04Q243.88-18.06 243.88-11.23L243.88-11.23Q243.88-4.36 240.87 0.52Q237.86 5.39 232.29 7.91Q226.72 10.42 219.04 10.42L219.04 10.42L201.56 10.42L201.56-2.11L216.16-2.11Q219.89-2.11 222.39-3.10Q224.88-4.09 226.16-6.11Q227.44-8.13 227.44-11.23L227.44-11.23Q227.44-14.38 226.16-16.44Q224.88-18.51 222.36-19.56Q219.85-20.62 216.12-20.62L216.12-20.62L207.94-20.62L207.94 33.47ZM246.22 33.47L228.83 33.47L212.53 2.88L229.51 2.88L246.22 33.47ZM294.10 33.47L272.90 33.47L249.90-33.47L267.73-33.47L277.03-4.22Q279.23 3.05 281.28 11.05Q283.32 19.05 285.39 27.90L285.39 27.90L281.93 27.90Q283.95 19.00 285.88 11.03Q287.81 3.05 289.93-4.22L289.93-4.22L298.87-33.47L316.47-33.47L294.10 33.47Z"/>
  </g>
  <g transform="translate(330 205)" fill="#F97316">
    <path d="M22.77 16.01L3.87 16.01L3.87-16.01L7.95-16.01L7.95 12.40L22.77 12.40L22.77 16.01ZM69.11 16.01L64.77 16.01L76.39-16.01L81.12-16.01L92.89 16.01L88.60 16.01L81.81-2.99Q81.19-4.75 80.36-7.38Q79.53-10.01 78.35-14.09L78.35-14.09L79.12-14.09Q77.96-9.97 77.11-7.29Q76.27-4.62 75.71-2.99L75.71-2.99L69.11 16.01ZM87.05 7.07L70.61 7.07L70.61 3.50L87.05 3.50L87.05 7.07ZM148.36 16.01L136.65 16.01L136.65-16.01L148.00-16.01Q151.35-16.01 153.53-14.86Q155.71-13.71 156.77-11.78Q157.84-9.86 157.84-7.52L157.84-7.52Q157.84-5.46 157.11-4.11Q156.38-2.77 155.18-1.98Q153.99-1.18 152.59-0.79L152.59-0.79L152.59-0.49Q154.10-0.41 155.59 0.54Q157.09 1.48 158.08 3.22Q159.08 4.96 159.08 7.48L159.08 7.48Q159.08 9.88 157.98 11.82Q156.87 13.75 154.51 14.88Q152.14 16.01 148.36 16.01L148.36 16.01ZM140.74 1.48L140.74 12.40L148.26 12.40Q151.99 12.40 153.57 10.96Q155.15 9.52 155.15 7.43L155.15 7.43Q155.15 5.82 154.34 4.47Q153.52 3.12 152.03 2.30Q150.53 1.48 148.47 1.48L148.47 1.48L140.74 1.48ZM140.74-12.40L140.74-1.96L147.78-1.96Q149.50-1.96 150.90-2.63Q152.29-3.31 153.11-4.54Q153.93-5.78 153.93-7.43L153.93-7.43Q153.93-9.52 152.48-10.96Q151.03-12.40 147.91-12.40L147.91-12.40L140.74-12.40ZM214.47 16.56L214.47 16.56Q211.01 16.56 208.46 15.45Q205.91 14.33 204.48 12.32Q203.04 10.31 202.84 7.63L202.84 7.63L207.03 7.63Q207.20 9.43 208.26 10.60Q209.31 11.77 210.95 12.34Q212.60 12.91 214.47 12.91L214.47 12.91Q216.64 12.91 218.37 12.20Q220.09 11.49 221.10 10.21Q222.11 8.92 222.11 7.22L222.11 7.22Q222.11 5.67 221.24 4.71Q220.37 3.74 218.93 3.12Q217.49 2.49 215.78 2.02L215.78 2.02L211.91 0.92Q208.04-0.17 205.89-2.21Q203.74-4.25 203.74-7.43L203.74-7.43Q203.74-10.14 205.21-12.17Q206.67-14.20 209.16-15.32Q211.65-16.44 214.74-16.44L214.74-16.44Q217.90-16.44 220.33-15.32Q222.76-14.20 224.17-12.28Q225.57-10.36 225.66-7.93L225.66-7.93L221.66-7.93Q221.38-10.27 219.43-11.55Q217.47-12.83 214.62-12.83L214.62-12.83Q212.55-12.83 211.00-12.15Q209.44-11.47 208.58-10.30Q207.72-9.13 207.72-7.63L207.72-7.63Q207.72-5.95 208.76-4.93Q209.80-3.91 211.23-3.34Q212.66-2.77 213.82-2.45L213.82-2.45L217.02-1.57Q218.31-1.22 219.87-0.62Q221.43-0.02 222.84 0.98Q224.26 1.98 225.18 3.51Q226.09 5.05 226.09 7.28L226.09 7.28Q226.09 9.90 224.72 12.01Q223.36 14.12 220.76 15.34Q218.16 16.56 214.47 16.56Z"/>
  </g>
</svg>
