<svg xmlns="http://www.w3.org/2000/svg" viewBox="0 0 300 300" width="300" height="300">
  <rect width="300" height="300" rx="60" fill="#0A0A0A"/>
  <circle cx="150" cy="150" r="118" fill="none" stroke="#F97316" stroke-width="2" opacity="0.2"/>
  <g transform="translate(150 150)" fill="#FAFAFA">
    <path d="M-31.40 72.75L-71.34 72.75L-10.11-14.36L-10.11 11.82L-66.16-72.75L-26.22-72.75L-12.35-50.98Q-7.96-44.04-5.13-38.13Q-2.29-32.23 0.05-26.86Q2.39-21.48 5.22-16.31L5.22-16.31L-4.54-16.31Q-1.61-21.48 0.78-26.86Q3.17-32.23 6.05-38.13Q8.94-44.04 13.33-50.98L13.33-50.98L27.49-72.75L66.36-72.75L11.67 9.86L11.67-14.84L71.34 72.75L30.42 72.75L12.26 44.92Q8.25 38.67 5.91 34.42Q3.56 30.18 1.76 26.51Q-0.05 22.85-2.59 18.55L-2.59 18.55L2.39 18.55Q0.05 22.75-1.81 26.46Q-3.66 30.18-6.05 34.47Q-8.45 38.77-12.55 44.92L-12.55 44.92L-31.40 72.75Z"/>
  </g>
  <circle cx="150" cy="32" r="9" fill="#F97316"/>
</svg>
