<svg xmlns="http://www.w3.org/2000/svg" viewBox="0 0 1200 630" width="1200" height="630">
  <rect width="1200" height="630" fill="#0A0A0A"/>

  <!-- Faint orbits left + right -->
  <g transform="translate(140 315)" fill="none" opacity="0.25">
    <circle r="100" stroke="#06B6D4" stroke-width="1.2"/>
    <circle r="60" stroke="#F97316" stroke-width="1.2"/>
    <circle cx="-100" cy="0" r="4" fill="#06B6D4"/>
  </g>
  <g transform="translate(1060 315)" fill="none" opacity="0.25">
    <circle r="100" stroke="#F97316" stroke-width="1.2"/>
    <circle r="60" stroke="#06B6D4" stroke-width="1.2"/>
    <circle cx="100" cy="0" r="4" fill="#F97316"/>
  </g>

  <!-- Tag top -->
  <g transform="translate(600 130)" fill="#F97316"><path d="M-62.63-5.90L-67.62-5.90L-67.62-8.00L-55.19-8.00L-55.19-5.90L-60.17-5.90L-60.17 8.00L-62.63 8.00L-62.63-5.90ZM-44.14 8.00L-46.59 8.00L-46.59-8.00L-40.85-8.00Q-39.00-8.00-37.77-7.36Q-36.53-6.72-35.92-5.59Q-35.31-4.45-35.31-2.98L-35.31-2.98Q-35.31-1.49-35.93-0.38Q-36.54 0.73-37.78 1.34Q-39.02 1.96-40.87 1.96L-40.87 1.96L-45.18 1.96L-45.18-0.14L-41.11-0.14Q-39.93-0.14-39.20-0.48Q-38.48-0.82-38.13-1.45Q-37.79-2.08-37.79-2.98L-37.79-2.98Q-37.79-3.88-38.13-4.53Q-38.48-5.19-39.21-5.55Q-39.94-5.91-41.13-5.91L-41.13-5.91L-44.14-5.91L-44.14 8.00ZM-34.71 8.00L-37.49 8.00L-41.37 0.77L-38.65 0.77L-34.71 8.00ZM-25.04 8.00L-27.69 8.00L-22-8.00L-18.99-8.00L-13.19 8.00L-15.84 8.00L-18.96-0.90Q-19.33-1.99-19.76-3.46Q-20.20-4.93-20.76-6.99L-20.76-6.99L-20.27-6.99Q-20.82-4.91-21.25-3.42Q-21.69-1.93-22.02-0.90L-22.02-0.90L-25.04 8.00ZM-16.29 3.78L-24.61 3.78L-24.61 1.74L-16.29 1.74L-16.29 3.78ZM-3.37 8.00L-6.19 8.00L0.19-1.10L0.19 0.74L-5.78-8.00L-2.93-8.00L-0.82-4.84Q-0.30-4.09 0.02-3.54Q0.34-3.00 0.61-2.48Q0.88-1.97 1.22-1.30L1.22-1.30L0.70-1.30Q1.03-1.96 1.31-2.47Q1.58-2.99 1.91-3.54Q2.25-4.09 2.75-4.84L2.75-4.84L4.91-8.00L7.69-8.00L1.76 0.62L1.76-1.16L8.05 8.00L5.19 8.00L2.58 4.18Q2.13 3.51 1.83 3.03Q1.53 2.56 1.27 2.09Q1.02 1.63 0.71 1.02L0.71 1.02L1.17 1.02Q0.86 1.61 0.60 2.07Q0.34 2.54 0.04 3.02Q-0.26 3.50-0.73 4.18L-0.73 4.18L-3.37 8.00ZM16.27-8.00L18.72-8.00L18.72 8.00L16.27 8.00L16.27-8.00ZM34.51 8.25L34.51 8.25Q32.59 8.25 31.15 7.51Q29.71 6.77 28.92 5.47Q28.13 4.18 28.13 2.50L28.13 2.50L28.13-8.00L30.58-8.00L30.58 2.30Q30.58 3.38 31.06 4.22Q31.54 5.06 32.42 5.54Q33.30 6.03 34.51 6.03L34.51 6.03Q35.72 6.03 36.59 5.54Q37.47 5.06 37.94 4.22Q38.41 3.38 38.41 2.30L38.41 2.30L38.41-8.00L40.87-8.00L40.87 2.50Q40.87 4.18 40.08 5.47Q39.29 6.77 37.86 7.51Q36.43 8.25 34.51 8.25ZM52.67 8.00L50.28 8.00L50.28-8.00L53.89-8.00L57.38 1.18Q57.54 1.59 57.72 2.21Q57.91 2.84 58.12 3.57Q58.32 4.30 58.50 5.01Q58.68 5.71 58.82 6.28L58.82 6.28L58.31 6.28Q58.45 5.75 58.63 5.04Q58.81 4.34 59.02 3.61Q59.22 2.88 59.42 2.23Q59.61 1.59 59.76 1.18L59.76 1.18L63.20-8.00L66.83-8.00L66.83 8.00L64.39 8.00L64.39-0.61Q64.39-1.11 64.40-1.79Q64.41-2.48 64.43-3.25Q64.44-4.02 64.46-4.80Q64.47-5.59 64.49-6.31L64.49-6.31L64.67-6.31Q64.45-5.52 64.20-4.69Q63.95-3.86 63.71-3.08Q63.46-2.31 63.24-1.67Q63.02-1.03 62.87-0.61L62.87-0.61L59.60 8.00L57.50 8.00L54.18-0.61Q54.02-1.02 53.81-1.65Q53.60-2.28 53.36-3.05Q53.11-3.81 52.85-4.65Q52.59-5.48 52.34-6.31L52.34-6.31L52.55-6.31Q52.57-5.65 52.59-4.88Q52.60-4.11 52.62-3.33Q52.64-2.55 52.65-1.84Q52.67-1.14 52.67-0.61L52.67-0.61L52.67 8.00Z"/></g>

  <!-- Headline -->
  <g transform="translate(600 280)" fill="#FAFAFA"><path d="M-200.81-21.42L-221.95-21.42L-221.95-34.92L-163.17-34.92L-163.17-21.42L-184.31-21.42L-184.31 34.92L-200.81 34.92L-200.81-21.42ZM-138.33 5.02L-138.33 5.02L-138.33 34.92L-154.69 34.92L-154.69-34.92L-138.66-34.92L-138.66-4.27L-139.69-4.27Q-137.77-10.50-133.66-14.32Q-129.56-18.14-122.63-18.14L-122.63-18.14Q-117.14-18.14-113.06-15.70Q-108.98-13.27-106.73-8.81Q-104.48-4.36-104.48 1.55L-104.48 1.55L-104.48 34.92L-120.84 34.92L-120.84 4.73Q-120.84 0.33-123.09-2.18Q-125.34-4.69-129.38-4.69L-129.38-4.69Q-132-4.69-134.04-3.54Q-136.08-2.39-137.20-0.23Q-138.33 1.92-138.33 5.02ZM-69.28 35.91L-69.28 35.91Q-77.48 35.91-83.44 32.65Q-89.39 29.39-92.55 23.34Q-95.72 17.30-95.72 8.91L-95.72 8.91Q-95.72 0.84-92.55-5.25Q-89.39-11.34-83.58-14.74Q-77.77-18.14-69.89-18.14L-69.89-18.14Q-64.36-18.14-59.74-16.41Q-55.13-14.67-51.73-11.27Q-48.33-7.88-46.48-2.91Q-44.63 2.06-44.63 8.58L-44.63 8.58L-44.63 12.70L-89.91 12.70L-89.91 3.19L-52.41 3.19L-60.05 5.44Q-60.05 1.78-61.15-0.84Q-62.25-3.47-64.41-4.88Q-66.56-6.28-69.75-6.28L-69.75-6.28Q-72.94-6.28-75.14-4.85Q-77.34-3.42-78.49-0.87Q-79.64 1.69-79.64 5.11L-79.64 5.11L-79.64 11.95Q-79.64 15.98-78.30 18.68Q-76.97 21.38-74.58 22.71Q-72.19 24.05-69 24.05L-69 24.05Q-66.80 24.05-64.99 23.44Q-63.19 22.83-61.90 21.61Q-60.61 20.39-59.95 18.66L-59.95 18.66L-45.38 21.05Q-46.69 25.55-49.90 28.90Q-53.11 32.25-58.01 34.08Q-62.91 35.91-69.28 35.91ZM1.31 54.52L-15.05 54.52L-15.05-17.48L1.13-17.48L1.13-8.48L1.69-8.48Q2.67-10.88 4.57-13.08Q6.47-15.28 9.40-16.71Q12.33-18.14 16.50-18.14L16.50-18.14Q22.03-18.14 26.79-15.26Q31.55-12.38 34.48-6.40Q37.41-0.42 37.41 8.77L37.41 8.77Q37.41 17.67 34.59 23.65Q31.78 29.63 27 32.65Q22.22 35.67 16.41 35.67L16.41 35.67Q12.42 35.67 9.49 34.34Q6.56 33 4.64 30.89Q2.72 28.78 1.69 26.44L1.69 26.44L1.31 26.44L1.31 54.52ZM10.83 22.92L10.83 22.92Q13.97 22.92 16.15 21.16Q18.33 19.41 19.45 16.20Q20.58 12.98 20.58 8.77L20.58 8.77Q20.58 4.50 19.45 1.34Q18.33-1.83 16.17-3.59Q14.02-5.34 10.83-5.34L10.83-5.34Q7.69-5.34 5.48-3.63Q3.28-1.92 2.11 1.24Q0.94 4.41 0.94 8.77L0.94 8.77Q0.94 13.03 2.11 16.22Q3.28 19.41 5.51 21.16Q7.73 22.92 10.83 22.92ZM70.50 35.91L70.50 35.91Q62.30 35.91 56.39 32.51Q50.48 29.11 47.32 23.04Q44.16 16.97 44.16 8.91L44.16 8.91Q44.16 0.80 47.32-5.27Q50.48-11.34 56.39-14.74Q62.30-18.14 70.50-18.14L70.50-18.14Q78.70-18.14 84.61-14.74Q90.52-11.34 93.66-5.27Q96.80 0.80 96.80 8.91L96.80 8.91Q96.80 16.97 93.66 23.04Q90.52 29.11 84.61 32.51Q78.70 35.91 70.50 35.91ZM70.50 23.39L70.50 23.39Q73.64 23.39 75.80 21.56Q77.95 19.73 79.05 16.45Q80.16 13.17 80.16 8.81L80.16 8.81Q80.16 4.45 79.05 1.20Q77.95-2.06 75.80-3.84Q73.64-5.63 70.50-5.63L70.50-5.63Q67.36-5.63 65.20-3.84Q63.05-2.06 61.95 1.20Q60.84 4.45 60.84 8.81L60.84 8.81Q60.84 13.17 61.95 16.45Q63.05 19.73 65.20 21.56Q67.36 23.39 70.50 23.39ZM121.97 34.92L105.61 34.92L105.61-17.48L121.97-17.48L121.97 34.92ZM113.77-23.63L113.77-23.63Q110.30-23.63 107.81-25.95Q105.33-28.27 105.33-31.50L105.33-31.50Q105.33-34.78 107.81-37.08Q110.30-39.38 113.77-39.38L113.77-39.38Q117.28-39.38 119.77-37.10Q122.25-34.83 122.25-31.50L122.25-31.50Q122.25-28.22 119.77-25.92Q117.28-23.63 113.77-23.63ZM149.16 5.02L149.16 5.02L149.16 34.92L132.80 34.92L132.80-17.48L148.17-17.48L148.50-4.27L147.80-4.27Q149.72-10.50 153.82-14.32Q157.92-18.14 164.86-18.14L164.86-18.14Q170.34-18.14 174.42-15.70Q178.50-13.27 180.75-8.81Q183-4.36 183 1.55L183 1.55L183 34.92L166.64 34.92L166.64 4.73Q166.64 0.33 164.39-2.18Q162.14-4.69 158.11-4.69L158.11-4.69Q155.48-4.69 153.45-3.54Q151.41-2.39 150.28-0.23Q149.16 1.92 149.16 5.02ZM189.33-17.48L222.05-17.48L222.05-5.34L189.33-5.34L189.33-17.48ZM196.27 20.34L196.27-29.95L212.63-29.95L212.63 18.89Q212.63 20.95 213.61 21.96Q214.59 22.97 216.80 22.97L216.80 22.97Q217.64 22.97 219.16 22.78Q220.69 22.59 221.34 22.41L221.34 22.41L223.45 34.31Q220.69 35.11 218.11 35.39Q215.53 35.67 213.23 35.67L213.23 35.67Q204.89 35.67 200.58 31.76Q196.27 27.84 196.27 20.34L196.27 20.34Z"/></g>
  <g transform="translate(600 390)" fill="#FAFAFA"><path d="M-218.93 34.92L-235.29 34.92L-235.29-17.48L-218.93-17.48L-218.93 34.92ZM-227.13-23.63L-227.13-23.63Q-230.60-23.63-233.09-25.95Q-235.57-28.27-235.57-31.50L-235.57-31.50Q-235.57-34.78-233.09-37.08Q-230.60-39.38-227.13-39.38L-227.13-39.38Q-223.62-39.38-221.13-37.10Q-218.65-34.83-218.65-31.50L-218.65-31.50Q-218.65-28.22-221.13-25.92Q-223.62-23.63-227.13-23.63ZM-186.02 35.91L-186.02 35.91Q-192.73 35.91-197.88 34.01Q-203.04 32.11-206.27 28.52Q-209.51 24.94-210.45 19.92L-210.45 19.92L-195.26 17.53Q-194.27 20.95-191.93 22.69Q-189.59 24.42-185.41 24.42L-185.41 24.42Q-181.99 24.42-180.02 23.23Q-178.05 22.03-178.05 20.06L-178.05 20.06Q-178.05 18.23-179.63 17.13Q-181.20 16.03-184.48 15.38L-184.48 15.38L-193.62 13.59Q-201.40 12.09-205.27 8.32Q-209.13 4.55-209.13-1.50L-209.13-1.50Q-209.13-6.75-206.30-10.45Q-203.46-14.16-198.28-16.15Q-193.10-18.14-186.07-18.14L-186.07-18.14Q-179.51-18.14-174.66-16.38Q-169.80-14.63-166.83-11.37Q-163.85-8.11-162.96-3.61L-162.96-3.61L-177.40-1.31Q-178.10-3.94-180.28-5.41Q-182.46-6.89-185.79-6.89L-185.79-6.89Q-188.74-6.89-190.78-5.70Q-192.82-4.50-192.82-2.48L-192.82-2.48Q-192.82-0.89-191.55 0.30Q-190.29 1.50-186.91 2.16L-186.91 2.16L-176.88 4.03Q-169.10 5.53-165.28 9Q-161.46 12.47-161.46 18.19L-161.46 18.19Q-161.46 23.58-164.63 27.56Q-167.79 31.55-173.32 33.73Q-178.85 35.91-186.02 35.91ZM-136.52-17.48L-103.80-17.48L-103.80-5.34L-136.52-5.34L-136.52-17.48ZM-129.59 20.34L-129.59-29.95L-113.23-29.95L-113.23 18.89Q-113.23 20.95-112.24 21.96Q-111.26 22.97-109.05 22.97L-109.05 22.97Q-108.21 22.97-106.69 22.78Q-105.16 22.59-104.51 22.41L-104.51 22.41L-102.40 34.31Q-105.16 35.11-107.74 35.39Q-110.32 35.67-112.62 35.67L-112.62 35.67Q-120.96 35.67-125.27 31.76Q-129.59 27.84-129.59 20.34L-129.59 20.34ZM-79.05 5.02L-79.05 5.02L-79.05 34.92L-95.41 34.92L-95.41-34.92L-79.38-34.92L-79.38-4.27L-80.41-4.27Q-78.49-10.50-74.39-14.32Q-70.29-18.14-63.35-18.14L-63.35-18.14Q-57.87-18.14-53.79-15.70Q-49.71-13.27-47.46-8.81Q-45.21-4.36-45.21 1.55L-45.21 1.55L-45.21 34.92L-61.57 34.92L-61.57 4.73Q-61.57 0.33-63.82-2.18Q-66.07-4.69-70.10-4.69L-70.10-4.69Q-72.73-4.69-74.77-3.54Q-76.80-2.39-77.93-0.23Q-79.05 1.92-79.05 5.02ZM-10.01 35.91L-10.01 35.91Q-18.21 35.91-24.16 32.65Q-30.12 29.39-33.28 23.34Q-36.45 17.30-36.45 8.91L-36.45 8.91Q-36.45 0.84-33.28-5.25Q-30.12-11.34-24.30-14.74Q-18.49-18.14-10.62-18.14L-10.62-18.14Q-5.09-18.14-0.47-16.41Q4.15-14.67 7.55-11.27Q10.95-7.88 12.80-2.91Q14.65 2.06 14.65 8.58L14.65 8.58L14.65 12.70L-30.63 12.70L-30.63 3.19L6.87 3.19L-0.77 5.44Q-0.77 1.78-1.88-0.84Q-2.98-3.47-5.13-4.88Q-7.29-6.28-10.48-6.28L-10.48-6.28Q-13.66-6.28-15.87-4.85Q-18.07-3.42-19.22-0.87Q-20.37 1.69-20.37 5.11L-20.37 5.11L-20.37 11.95Q-20.37 15.98-19.03 18.68Q-17.70 21.38-15.30 22.71Q-12.91 24.05-9.73 24.05L-9.73 24.05Q-7.52 24.05-5.72 23.44Q-3.91 22.83-2.63 21.61Q-1.34 20.39-0.68 18.66L-0.68 18.66L13.90 21.05Q12.59 25.55 9.38 28.90Q6.16 32.25 1.27 34.08Q-3.63 35.91-10.01 35.91ZM68.55 35.91L68.55 35.91Q60.35 35.91 54.45 32.51Q48.54 29.11 45.38 23.04Q42.21 16.97 42.21 8.91L42.21 8.91Q42.21 0.80 45.38-5.27Q48.54-11.34 54.45-14.74Q60.35-18.14 68.55-18.14L68.55-18.14Q73.57-18.14 77.74-16.83Q81.91-15.52 85.05-13.10Q88.20-10.69 90.14-7.24Q92.09-3.80 92.70 0.47L92.70 0.47L77.60 3Q77.23 0.94 76.45-0.66Q75.68-2.25 74.58-3.38Q73.48-4.50 72-5.06Q70.52-5.63 68.74-5.63L68.74-5.63Q65.60-5.63 63.40-3.91Q61.20-2.20 60.05 1.05Q58.90 4.31 58.90 8.81L58.90 8.81Q58.90 13.31 60.05 16.59Q61.20 19.88 63.40 21.63Q65.60 23.39 68.74 23.39L68.74 23.39Q70.57 23.39 72.02 22.80Q73.48 22.22 74.63 21.07Q75.77 19.92 76.55 18.26Q77.32 16.59 77.65 14.48L77.65 14.48L92.74 16.92Q92.13 21.33 90.19 24.82Q88.24 28.31 85.10 30.80Q81.96 33.28 77.77 34.59Q73.57 35.91 68.55 35.91ZM116.04 35.86L116.04 35.86Q111.02 35.86 107.11 34.15Q103.20 32.44 100.99 28.99Q98.79 25.55 98.79 20.39L98.79 20.39Q98.79 16.03 100.31 13.03Q101.84 10.03 104.55 8.16Q107.27 6.28 110.79 5.30Q114.30 4.31 118.29 3.98L118.29 3.98Q122.74 3.61 125.46 3.16Q128.18 2.72 129.45 1.83Q130.71 0.94 130.71-0.66L130.71-0.66L130.71-0.84Q130.71-2.67 129.87-3.94Q129.02-5.20 127.43-5.86Q125.84-6.52 123.59-6.52L123.59-6.52Q121.34-6.52 119.58-5.86Q117.82-5.20 116.70-3.98Q115.57-2.77 115.10-1.13L115.10-1.13L100.29-3.05Q101.32-7.55 104.34-10.95Q107.37-14.34 112.27-16.24Q117.16-18.14 123.73-18.14L123.73-18.14Q128.60-18.14 132.84-16.99Q137.09-15.84 140.27-13.62Q143.46-11.39 145.24-8.13Q147.02-4.88 147.02-0.66L147.02-0.66L147.02 34.92L131.65 34.92L131.65 27.56L131.23 27.56Q129.82 30.28 127.64 32.11Q125.46 33.94 122.58 34.90Q119.70 35.86 116.04 35.86ZM121.01 25.03L121.01 25.03Q123.77 25.03 126 23.91Q128.23 22.78 129.54 20.81Q130.85 18.84 130.85 16.27L130.85 16.27L130.85 11.25Q130.15 11.63 129.09 11.95Q128.04 12.28 126.77 12.54Q125.51 12.80 124.24 13.01Q122.98 13.22 121.80 13.41L121.80 13.41Q119.41 13.73 117.73 14.53Q116.04 15.33 115.15 16.59Q114.26 17.86 114.26 19.64L114.26 19.64Q114.26 21.38 115.15 22.57Q116.04 23.77 117.54 24.40Q119.04 25.03 121.01 25.03ZM157.85-34.92L174.21-34.92L174.21 34.92L157.85 34.92L157.85-34.92ZM185.04-34.92L201.40-34.92L201.40 34.92L185.04 34.92L185.04-34.92ZM223.76 35.91L223.76 35.91Q220.01 35.91 217.45 33.40Q214.90 30.89 214.90 27.19L214.90 27.19Q214.90 23.44 217.45 20.93Q220.01 18.42 223.76 18.42L223.76 18.42Q227.51 18.42 230.06 20.93Q232.62 23.44 232.62 27.19L232.62 27.19Q232.62 30.89 230.06 33.40Q227.51 35.91 223.76 35.91Z"/></g>

  <!-- Subtag -->
  <g transform="translate(600 510)" fill="#FAFAFA" opacity="0.55"><path d="M-274.07 8.00L-274.07 8.00L-277.93 8.00L-277.93 6.20L-274.19 6.20Q-272.24 6.20-270.96 5.45Q-269.67 4.71-269.04 3.31Q-268.40 1.91-268.40-0.03L-268.40-0.03Q-268.40-1.96-269.03-3.34Q-269.66-4.72-270.90-5.46Q-272.14-6.20-274.00-6.20L-274.00-6.20L-278.02-6.20L-278.02-8.00L-273.86-8.00Q-271.52-8.00-269.86-7.05Q-268.20-6.09-267.31-4.30Q-266.43-2.51-266.43-0.03L-266.43-0.03Q-266.43 2.47-267.32 4.27Q-268.21 6.07-269.92 7.04Q-271.63 8.00-274.07 8.00ZM-279.06-8.00L-277.02-8.00L-277.02 8.00L-279.06 8.00L-279.06-8.00ZM-261.49 8.00L-263.42 8.00L-263.42-4.01L-261.55-4.01L-261.55-2.16L-261.42-2.16Q-261.09-3.07-260.23-3.63Q-259.38-4.18-258.31-4.18L-258.31-4.18Q-258.09-4.18-257.80-4.17Q-257.50-4.16-257.33-4.15L-257.33-4.15L-257.33-2.20Q-257.42-2.22-257.76-2.27Q-258.10-2.31-258.49-2.31L-258.49-2.31Q-259.35-2.31-260.03-1.95Q-260.71-1.59-261.10-0.96Q-261.49-0.33-261.49 0.48L-261.49 0.48L-261.49 8.00ZM-253.20 8.00L-255.14 8.00L-255.14-4.01L-253.20-4.01L-253.20 8.00ZM-254.16-5.97L-254.16-5.97Q-254.71-5.97-255.11-6.35Q-255.50-6.72-255.50-7.25L-255.50-7.25Q-255.50-7.79-255.11-8.16Q-254.71-8.53-254.16-8.53L-254.16-8.53Q-253.60-8.53-253.20-8.16Q-252.81-7.79-252.81-7.25L-252.81-7.25Q-252.81-6.72-253.20-6.35Q-253.60-5.97-254.16-5.97ZM-244.31 8.00L-246.34 8.00L-250.93-4.01L-248.81-4.01L-246.25 3.12Q-245.85 4.22-245.56 5.32Q-245.28 6.42-244.96 7.46L-244.96 7.46L-245.67 7.46Q-245.36 6.42-245.08 5.32Q-244.79 4.22-244.40 3.12L-244.40 3.12L-241.84-4.01L-239.72-4.01L-244.31 8.00ZM-232.40 8.26L-232.40 8.26Q-234.14 8.26-235.40 7.49Q-236.66 6.71-237.34 5.33Q-238.03 3.94-238.03 2.09L-238.03 2.09Q-238.03 0.25-237.36-1.16Q-236.69-2.57-235.47-3.36Q-234.25-4.16-232.62-4.16L-232.62-4.16Q-231.67-4.16-230.74-3.84Q-229.81-3.52-229.05-2.82Q-228.29-2.12-227.84-0.97Q-227.39 0.18-227.39 1.85L-227.39 1.85L-227.39 2.65L-236.71 2.65L-236.71 1.02L-228.43 1.02L-229.33 1.62Q-229.33 0.44-229.71-0.48Q-230.08-1.40-230.81-1.92Q-231.54-2.44-232.62-2.44L-232.62-2.44Q-233.71-2.44-234.48-1.91Q-235.25-1.38-235.66-0.52Q-236.07 0.33-236.07 1.31L-236.07 1.31L-236.07 2.40Q-236.07 3.73-235.61 4.66Q-235.15 5.59-234.31 6.06Q-233.48 6.54-232.39 6.54L-232.39 6.54Q-231.68 6.54-231.10 6.34Q-230.52 6.13-230.10 5.72Q-229.68 5.31-229.45 4.69L-229.45 4.69L-227.58 5.21Q-227.86 6.11-228.53 6.80Q-229.20 7.49-230.18 7.87Q-231.16 8.26-232.40 8.26ZM-222.69 8.00L-224.62 8.00L-224.62-4.01L-222.75-4.01L-222.75-2.16L-222.62-2.16Q-222.29-3.07-221.43-3.63Q-220.58-4.18-219.51-4.18L-219.51-4.18Q-219.29-4.18-219.00-4.17Q-218.70-4.16-218.53-4.15L-218.53-4.15L-218.53-2.20Q-218.61-2.22-218.96-2.27Q-219.30-2.31-219.69-2.31L-219.69-2.31Q-220.55-2.31-221.23-1.95Q-221.91-1.59-222.30-0.96Q-222.69-0.33-222.69 0.48L-222.69 0.48L-222.69 8.00ZM-211.63-4.01L-204.56-4.01L-204.56-2.35L-211.63-2.35L-211.63-4.01ZM-207.33 8.00L-209.27 8.00L-209.27-5.61Q-209.27-6.65-208.78-7.35Q-208.29-8.05-207.51-8.40Q-206.72-8.75-205.85-8.75L-205.85-8.75Q-205.17-8.75-204.71-8.64Q-204.26-8.53-204.05-8.43L-204.05-8.43L-204.58-6.78Q-204.74-6.83-204.98-6.90Q-205.22-6.96-205.63-6.96L-205.63-6.96Q-206.52-6.96-206.93-6.50Q-207.33-6.05-207.33-5.18L-207.33-5.18L-207.33 8.00ZM-198.64 8.28L-198.64 8.28Q-199.78 8.28-200.71 7.85Q-201.64 7.42-202.19 6.60Q-202.74 5.77-202.74 4.59L-202.74 4.59Q-202.74 3.56-202.33 2.91Q-201.92 2.27-201.24 1.90Q-200.56 1.53-199.73 1.34Q-198.90 1.16-198.06 1.05L-198.06 1.05Q-196.99 0.91-196.31 0.84Q-195.64 0.76-195.31 0.58Q-194.98 0.40-194.98-0.04L-194.98-0.04L-194.98-0.11Q-194.98-0.86-195.26-1.38Q-195.54-1.90-196.10-2.18Q-196.66-2.46-197.50-2.46L-197.50-2.46Q-198.35-2.46-198.97-2.19Q-199.58-1.92-199.96-1.52Q-200.34-1.12-200.54-0.70L-200.54-0.70L-202.39-1.31Q-201.93-2.41-201.15-3.02Q-200.36-3.64-199.42-3.90Q-198.47-4.16-197.55-4.16L-197.55-4.16Q-196.95-4.16-196.18-4.01Q-195.41-3.87-194.70-3.44Q-193.98-3.01-193.52-2.16Q-193.05-1.32-193.05 0.09L-193.05 0.09L-193.05 8.00L-194.95 8.00L-194.95 6.37L-195.08 6.37Q-195.28 6.79-195.73 7.23Q-196.18 7.68-196.90 7.98Q-197.62 8.28-198.64 8.28ZM-198.31 6.57L-198.31 6.57Q-197.24 6.57-196.50 6.16Q-195.75 5.74-195.37 5.06Q-194.98 4.39-194.98 3.66L-194.98 3.66L-194.98 2.00Q-195.10 2.14-195.50 2.25Q-195.89 2.36-196.40 2.45Q-196.92 2.54-197.39 2.59Q-197.87 2.65-198.15 2.69L-198.15 2.69Q-198.85 2.77-199.46 2.98Q-200.06 3.19-200.43 3.59Q-200.79 4.00-200.79 4.68L-200.79 4.68Q-200.79 5.31-200.47 5.73Q-200.15 6.14-199.59 6.36Q-199.03 6.57-198.31 6.57ZM-191.14-4.01L-184.93-4.01L-184.93-2.35L-191.14-2.35L-191.14-4.01ZM-189.33 5.04L-189.33-6.86L-187.40-6.86L-187.40 4.89Q-187.40 5.69-187.07 6.06Q-186.74 6.43-185.98 6.43L-185.98 6.43Q-185.80 6.43-185.51 6.39Q-185.23 6.35-184.99 6.31L-184.99 6.31L-184.59 7.94Q-184.89 8.05-185.28 8.10Q-185.66 8.15-186.03 8.15L-186.03 8.15Q-187.59 8.15-188.46 7.33Q-189.33 6.51-189.33 5.04L-189.33 5.04ZM-180.52 8.00L-182.46 8.00L-182.46-4.01L-180.52-4.01L-180.52 8.00ZM-181.48-5.97L-181.48-5.97Q-182.03-5.97-182.42-6.35Q-182.82-6.72-182.82-7.25L-182.82-7.25Q-182.82-7.79-182.42-8.16Q-182.03-8.53-181.48-8.53L-181.48-8.53Q-180.92-8.53-180.52-8.16Q-180.13-7.79-180.13-7.25L-180.13-7.25Q-180.13-6.72-180.52-6.35Q-180.92-5.97-181.48-5.97ZM-172.26 12.75L-172.26 12.75Q-173.59 12.75-174.57 12.41Q-175.54 12.07-176.18 11.52Q-176.83 10.96-177.20 10.30L-177.20 10.30L-175.63 9.29Q-175.38 9.64-175.00 10.05Q-174.61 10.47-173.96 10.77Q-173.31 11.06-172.26 11.06L-172.26 11.06Q-170.82 11.06-169.89 10.38Q-168.96 9.69-168.96 8.21L-168.96 8.21L-168.96 5.80L-169.15 5.80Q-169.35 6.14-169.72 6.62Q-170.09 7.09-170.78 7.45Q-171.48 7.81-172.64 7.81L-172.64 7.81Q-174.08 7.81-175.23 7.13Q-176.38 6.45-177.04 5.13Q-177.71 3.82-177.71 1.94L-177.71 1.94Q-177.71 0.09-177.05-1.28Q-176.40-2.65-175.24-3.41Q-174.09-4.16-172.59-4.16L-172.59-4.16Q-171.43-4.16-170.74-3.78Q-170.05-3.39-169.67-2.90Q-169.30-2.41-169.09-2.08L-169.09-2.08L-168.91-2.08L-168.91-4.01L-167.03-4.01L-167.03 8.31Q-167.03 9.86-167.73 10.84Q-168.43 11.83-169.61 12.29Q-170.80 12.75-172.26 12.75ZM-172.32 6.09L-172.32 6.09Q-171.22 6.09-170.47 5.59Q-169.72 5.09-169.33 4.15Q-168.94 3.21-168.94 1.90L-168.94 1.90Q-168.94 0.62-169.32-0.35Q-169.71-1.32-170.46-1.87Q-171.21-2.43-172.32-2.43L-172.32-2.43Q-173.45-2.43-174.22-1.84Q-174.98-1.26-175.36-0.28Q-175.74 0.70-175.74 1.90L-175.74 1.90Q-175.74 3.14-175.36 4.08Q-174.97 5.03-174.21 5.56Q-173.44 6.09-172.32 6.09ZM-159.56 8.15L-159.56 8.15Q-160.78 8.15-161.70 7.65Q-162.62 7.15-163.13 6.14Q-163.64 5.13-163.64 3.62L-163.64 3.62L-163.64-4.01L-161.70-4.01L-161.70 3.46Q-161.70 4.84-160.97 5.63Q-160.24 6.41-158.98 6.41L-158.98 6.41Q-158.13 6.41-157.44 6.04Q-156.76 5.66-156.36 4.94Q-155.97 4.21-155.97 3.19L-155.97 3.19L-155.97-4.01L-154.02-4.01L-154.02 8.00L-155.89 8.00L-155.89 5.09L-155.63 5.09Q-156.19 6.78-157.22 7.47Q-158.24 8.15-159.56 8.15ZM-145.58 8.26L-145.58 8.26Q-147.32 8.26-148.58 7.49Q-149.84 6.71-150.52 5.33Q-151.21 3.94-151.21 2.09L-151.21 2.09Q-151.21 0.25-150.54-1.16Q-149.88-2.57-148.66-3.36Q-147.44-4.16-145.80-4.16L-145.80-4.16Q-144.85-4.16-143.92-3.84Q-142.99-3.52-142.23-2.82Q-141.47-2.12-141.02-0.97Q-140.57 0.18-140.57 1.85L-140.57 1.85L-140.57 2.65L-149.90 2.65L-149.90 1.02L-141.61 1.02L-142.52 1.62Q-142.52 0.44-142.89-0.48Q-143.26-1.40-143.99-1.92Q-144.72-2.44-145.80-2.44L-145.80-2.44Q-146.89-2.44-147.66-1.91Q-148.44-1.38-148.84-0.52Q-149.25 0.33-149.25 1.31L-149.25 1.31L-149.25 2.40Q-149.25 3.73-148.79 4.66Q-148.33 5.59-147.50 6.06Q-146.66 6.54-145.57 6.54L-145.57 6.54Q-144.86 6.54-144.28 6.34Q-143.70 6.13-143.28 5.72Q-142.86 5.31-142.63 4.69L-142.63 4.69L-140.77 5.21Q-141.04 6.11-141.71 6.80Q-142.38 7.49-143.36 7.87Q-144.34 8.26-145.58 8.26ZM-136.64 11.86L-138.12 11.86L-137.18 5.77L-134.96 5.77L-136.64 11.86ZM-120.77 8.26L-120.77 8.26Q-122.27 8.26-123.42 7.50Q-124.57 6.74-125.21 5.34Q-125.86 3.94-125.86 2.03L-125.86 2.03Q-125.86 0.13-125.21-1.26Q-124.56-2.65-123.41-3.41Q-122.26-4.16-120.76-4.16L-120.76-4.16Q-119.59-4.16-118.91-3.77Q-118.22-3.38-117.85-2.90Q-117.48-2.41-117.28-2.08L-117.28-2.08L-117.13-2.08L-117.13-8.00L-115.20-8.00L-115.20 8.00L-117.07 8.00L-117.07 6.14L-117.28 6.14Q-117.48 6.48-117.86 6.98Q-118.24 7.48-118.93 7.87Q-119.63 8.26-120.77 8.26ZM-120.48 6.53L-120.48 6.53Q-119.39 6.53-118.64 5.96Q-117.88 5.38-117.50 4.36Q-117.11 3.34-117.11 2.01L-117.11 2.01Q-117.11 0.68-117.49-0.32Q-117.87-1.31-118.63-1.87Q-119.38-2.43-120.48-2.43L-120.48-2.43Q-121.62-2.43-122.38-1.84Q-123.14-1.25-123.51-0.24Q-123.89 0.76-123.89 2.01L-123.89 2.01Q-123.89 3.27-123.51 4.29Q-123.13 5.32-122.36 5.92Q-121.60 6.53-120.48 6.53ZM-106.76 8.26L-106.76 8.26Q-108.50 8.26-109.76 7.49Q-111.02 6.71-111.70 5.33Q-112.38 3.94-112.38 2.09L-112.38 2.09Q-112.38 0.25-111.72-1.16Q-111.05-2.57-109.83-3.36Q-108.61-4.16-106.98-4.16L-106.98-4.16Q-106.03-4.16-105.10-3.84Q-104.17-3.52-103.41-2.82Q-102.65-2.12-102.20-0.97Q-101.75 0.18-101.75 1.85L-101.75 1.85L-101.75 2.65L-111.07 2.65L-111.07 1.02L-102.79 1.02L-103.69 1.62Q-103.69 0.44-104.06-0.48Q-104.44-1.40-105.17-1.92Q-105.90-2.44-106.98-2.44L-106.98-2.44Q-108.07-2.44-108.84-1.91Q-109.61-1.38-110.02-0.52Q-110.43 0.33-110.43 1.31L-110.43 1.31L-110.43 2.40Q-110.43 3.73-109.97 4.66Q-109.51 5.59-108.67 6.06Q-107.84 6.54-106.75 6.54L-106.75 6.54Q-106.04 6.54-105.46 6.34Q-104.88 6.13-104.46 5.72Q-104.04 5.31-103.81 4.69L-103.81 4.69L-101.94 5.21Q-102.22 6.11-102.89 6.80Q-103.55 7.49-104.54 7.87Q-105.52 8.26-106.76 8.26ZM-100.46-4.01L-94.25-4.01L-94.25-2.35L-100.46-2.35L-100.46-4.01ZM-98.66 5.04L-98.66-6.86L-96.72-6.86L-96.72 4.89Q-96.72 5.69-96.40 6.06Q-96.07 6.43-95.30 6.43L-95.30 6.43Q-95.12 6.43-94.84 6.39Q-94.55 6.35-94.32 6.31L-94.32 6.31L-93.92 7.94Q-94.22 8.05-94.60 8.10Q-94.98 8.15-95.36 8.15L-95.36 8.15Q-96.92 8.15-97.79 7.33Q-98.66 6.51-98.66 5.04L-98.66 5.04ZM-86.73 8.26L-86.73 8.26Q-88.47 8.26-89.73 7.49Q-91.00 6.71-91.68 5.33Q-92.36 3.94-92.36 2.09L-92.36 2.09Q-92.36 0.25-91.70-1.16Q-91.03-2.57-89.81-3.36Q-88.59-4.16-86.96-4.16L-86.96-4.16Q-86.00-4.16-85.07-3.84Q-84.14-3.52-83.39-2.82Q-82.63-2.12-82.18-0.97Q-81.73 0.18-81.73 1.85L-81.73 1.85L-81.73 2.65L-91.05 2.65L-91.05 1.02L-82.77 1.02L-83.67 1.62Q-83.67 0.44-84.04-0.48Q-84.41-1.40-85.14-1.92Q-85.87-2.44-86.96-2.44L-86.96-2.44Q-88.04-2.44-88.82-1.91Q-89.59-1.38-90.00-0.52Q-90.41 0.33-90.41 1.31L-90.41 1.31L-90.41 2.40Q-90.41 3.73-89.94 4.66Q-89.48 5.59-88.65 6.06Q-87.82 6.54-86.72 6.54L-86.72 6.54Q-86.01 6.54-85.43 6.34Q-84.85 6.13-84.43 5.72Q-84.01 5.31-83.79 4.69L-83.79 4.69L-81.92 5.21Q-82.20 6.11-82.87 6.80Q-83.53 7.49-84.51 7.87Q-85.50 8.26-86.73 8.26ZM-74.07 8.26L-74.07 8.26Q-75.70 8.26-76.93 7.49Q-78.16 6.71-78.85 5.32Q-79.54 3.92-79.54 2.07L-79.54 2.07Q-79.54 0.19-78.85-1.21Q-78.16-2.61-76.93-3.38Q-75.70-4.16-74.07-4.16L-74.07-4.16Q-73.20-4.16-72.42-3.93Q-71.65-3.71-71.01-3.28Q-70.37-2.86-69.91-2.24Q-69.45-1.62-69.20-0.84L-69.20-0.84L-71.06-0.31Q-71.19-0.77-71.46-1.16Q-71.73-1.55-72.11-1.83Q-72.49-2.12-72.98-2.27Q-73.48-2.43-74.07-2.43L-74.07-2.43Q-75.27-2.43-76.04-1.80Q-76.82-1.17-77.19-0.15Q-77.57 0.87-77.57 2.07L-77.57 2.07Q-77.57 3.25-77.19 4.27Q-76.82 5.29-76.04 5.91Q-75.27 6.53-74.07 6.53L-74.07 6.53Q-73.47 6.53-72.96 6.37Q-72.46 6.21-72.06 5.91Q-71.67 5.62-71.40 5.21Q-71.13 4.80-71.01 4.32L-71.01 4.32L-69.16 4.84Q-69.39 5.65-69.86 6.28Q-70.33 6.91-70.97 7.35Q-71.62 7.80-72.40 8.03Q-73.19 8.26-74.07 8.26ZM-67.87-4.01L-61.66-4.01L-61.66-2.35L-67.87-2.35L-67.87-4.01ZM-66.06 5.04L-66.06-6.86L-64.13-6.86L-64.13 4.89Q-64.13 5.69-63.80 6.06Q-63.48 6.43-62.71 6.43L-62.71 6.43Q-62.53 6.43-62.25 6.39Q-61.96 6.35-61.72 6.31L-61.72 6.31L-61.33 7.94Q-61.63 8.05-62.01 8.10Q-62.39 8.15-62.77 8.15L-62.77 8.15Q-64.32 8.15-65.19 7.33Q-66.06 6.51-66.06 5.04L-66.06 5.04ZM-54.14 8.26L-54.14 8.26Q-55.88 8.26-57.14 7.49Q-58.41 6.71-59.09 5.33Q-59.77 3.94-59.77 2.09L-59.77 2.09Q-59.77 0.25-59.10-1.16Q-58.44-2.57-57.22-3.36Q-56.00-4.16-54.37-4.16L-54.37-4.16Q-53.41-4.16-52.48-3.84Q-51.55-3.52-50.79-2.82Q-50.04-2.12-49.59-0.97Q-49.13 0.18-49.13 1.85L-49.13 1.85L-49.13 2.65L-58.46 2.65L-58.46 1.02L-50.18 1.02L-51.08 1.62Q-51.08 0.44-51.45-0.48Q-51.82-1.40-52.55-1.92Q-53.28-2.44-54.37-2.44L-54.37-2.44Q-55.45-2.44-56.22-1.91Q-57.00-1.38-57.41-0.52Q-57.81 0.33-57.81 1.31L-57.81 1.31L-57.81 2.40Q-57.81 3.73-57.35 4.66Q-56.89 5.59-56.06 6.06Q-55.23 6.54-54.13 6.54L-54.13 6.54Q-53.42 6.54-52.84 6.34Q-52.26 6.13-51.84 5.72Q-51.42 5.31-51.20 4.69L-51.20 4.69L-49.33 5.21Q-49.61 6.11-50.27 6.80Q-50.94 7.49-51.92 7.87Q-52.91 8.26-54.14 8.26ZM-41.86 8.26L-41.86 8.26Q-43.36 8.26-44.50 7.50Q-45.65 6.74-46.30 5.34Q-46.94 3.94-46.94 2.03L-46.94 2.03Q-46.94 0.13-46.29-1.26Q-45.64-2.65-44.49-3.41Q-43.34-4.16-41.85-4.16L-41.85-4.16Q-40.68-4.16-39.99-3.77Q-39.31-3.38-38.94-2.90Q-38.56-2.41-38.37-2.08L-38.37-2.08L-38.22-2.08L-38.22-8.00L-36.29-8.00L-36.29 8.00L-38.16 8.00L-38.16 6.14L-38.37 6.14Q-38.56 6.48-38.95 6.98Q-39.33 7.48-40.02 7.87Q-40.71 8.26-41.86 8.26ZM-41.57 6.53L-41.57 6.53Q-40.48 6.53-39.72 5.96Q-38.97 5.38-38.59 4.36Q-38.20 3.34-38.20 2.01L-38.20 2.01Q-38.20 0.68-38.58-0.32Q-38.96-1.31-39.71-1.87Q-40.47-2.43-41.57-2.43L-41.57-2.43Q-42.71-2.43-43.47-1.84Q-44.23-1.25-44.60-0.24Q-44.98 0.76-44.98 2.01L-44.98 2.01Q-44.98 3.27-44.60 4.29Q-44.21 5.32-43.45 5.92Q-42.69 6.53-41.57 6.53ZM-16.63-4.01L-16.63 12.49L-18.56 12.49L-18.56 6.14L-18.71 6.14Q-18.91 6.48-19.29 6.98Q-19.67 7.48-20.36 7.87Q-21.05 8.26-22.20 8.26L-22.20 8.26Q-23.70 8.26-24.85 7.50Q-26.00 6.74-26.64 5.34Q-27.29 3.94-27.29 2.03L-27.29 2.03Q-27.29 0.13-26.64-1.26Q-25.99-2.65-24.84-3.41Q-23.69-4.16-22.19-4.16L-22.19-4.16Q-21.02-4.16-20.33-3.77Q-19.65-3.38-19.28-2.90Q-18.91-2.41-18.71-2.08L-18.71-2.08L-18.50-2.08L-18.50-4.01L-16.63-4.01ZM-21.91 6.53L-21.91 6.53Q-20.82 6.53-20.07 5.96Q-19.31 5.38-18.93 4.36Q-18.54 3.34-18.54 2.01L-18.54 2.01Q-18.54 0.68-18.92-0.32Q-19.30-1.31-20.06-1.87Q-20.81-2.43-21.91-2.43L-21.91-2.43Q-23.05-2.43-23.81-1.84Q-24.57-1.25-24.94-0.24Q-25.32 0.76-25.32 2.01L-25.32 2.01Q-25.32 3.27-24.94 4.29Q-24.56 5.32-23.79 5.92Q-23.03 6.53-21.91 6.53ZM-9.16 8.15L-9.16 8.15Q-10.38 8.15-11.30 7.65Q-12.21 7.15-12.72 6.14Q-13.23 5.13-13.23 3.62L-13.23 3.62L-13.23-4.01L-11.30-4.01L-11.30 3.46Q-11.30 4.84-10.57 5.63Q-9.84 6.41-8.58 6.41L-8.58 6.41Q-7.72 6.41-7.04 6.04Q-6.36 5.66-5.96 4.94Q-5.56 4.21-5.56 3.19L-5.56 3.19L-5.56-4.01L-3.62-4.01L-3.62 8.00L-5.49 8.00L-5.49 5.09L-5.23 5.09Q-5.79 6.78-6.82 7.47Q-7.84 8.15-9.16 8.15ZM1.71 8.00L-0.23 8.00L-0.23-4.01L1.71-4.01L1.71 8.00ZM0.75-5.97L0.75-5.97Q0.20-5.97-0.19-6.35Q-0.59-6.72-0.59-7.25L-0.59-7.25Q-0.59-7.79-0.19-8.16Q0.20-8.53 0.75-8.53L0.75-8.53Q1.31-8.53 1.71-8.16Q2.11-7.79 2.11-7.25L2.11-7.25Q2.11-6.72 1.71-6.35Q1.31-5.97 0.75-5.97ZM10.15 8.26L10.15 8.26Q8.41 8.26 7.15 7.49Q5.89 6.71 5.20 5.33Q4.52 3.94 4.52 2.09L4.52 2.09Q4.52 0.25 5.19-1.16Q5.85-2.57 7.07-3.36Q8.29-4.16 9.93-4.16L9.93-4.16Q10.88-4.16 11.81-3.84Q12.74-3.52 13.50-2.82Q14.25-2.12 14.71-0.97Q15.16 0.18 15.16 1.85L15.16 1.85L15.16 2.65L5.83 2.65L5.83 1.02L14.12 1.02L13.21 1.62Q13.21 0.44 12.84-0.48Q12.47-1.40 11.74-1.92Q11.01-2.44 9.93-2.44L9.93-2.44Q8.84-2.44 8.07-1.91Q7.29-1.38 6.89-0.52Q6.48 0.33 6.48 1.31L6.48 1.31L6.48 2.40Q6.48 3.73 6.94 4.66Q7.40 5.59 8.23 6.06Q9.07 6.54 10.16 6.54L10.16 6.54Q10.87 6.54 11.45 6.34Q12.03 6.13 12.45 5.72Q12.87 5.31 13.09 4.69L13.09 4.69L14.96 5.21Q14.68 6.11 14.02 6.80Q13.35 7.49 12.37 7.87Q11.39 8.26 10.15 8.26ZM16.45-4.01L22.66-4.01L22.66-2.35L16.45-2.35L16.45-4.01ZM18.25 5.04L18.25-6.86L20.18-6.86L20.18 4.89Q20.18 5.69 20.51 6.06Q20.84 6.43 21.60 6.43L21.60 6.43Q21.79 6.43 22.07 6.39Q22.35 6.35 22.59 6.31L22.59 6.31L22.99 7.94Q22.69 8.05 22.31 8.10Q21.92 8.15 21.55 8.15L21.55 8.15Q19.99 8.15 19.12 7.33Q18.25 6.51 18.25 5.04L18.25 5.04ZM25.13-8.00L27.06-8.00L27.06 8.00L25.13 8.00L25.13-8.00ZM30.26 12.35L30.26 12.35L30.75 10.68L30.96 10.73Q31.55 10.88 32.03 10.81Q32.52 10.74 32.90 10.33Q33.29 9.93 33.58 9.07L33.58 9.07L33.92 8.07L29.34-4.01L31.45-4.01L34.01 3.12Q34.42 4.23 34.70 5.33Q34.98 6.42 35.29 7.46L35.29 7.46L34.58 7.46Q34.89 6.42 35.18 5.32Q35.46 4.22 35.86 3.12L35.86 3.12L38.44-4.01L40.54-4.01L35.27 9.80Q34.90 10.75 34.39 11.37Q33.88 11.99 33.20 12.28Q32.53 12.58 31.68 12.58L31.68 12.58Q31.16 12.58 30.79 12.50Q30.41 12.43 30.26 12.35ZM44.29 8.14L44.29 8.14Q43.69 8.14 43.26 7.72Q42.84 7.29 42.84 6.69L42.84 6.69Q42.84 6.09 43.26 5.67Q43.69 5.24 44.29 5.24L44.29 5.24Q44.89 5.24 45.32 5.67Q45.74 6.09 45.74 6.69L45.74 6.69Q45.74 7.29 45.32 7.72Q44.89 8.14 44.29 8.14ZM56.38 8.00L54.21 8.00L60.02-8.00L62.38-8.00L68.27 8.00L66.12 8.00L62.72-1.49Q62.41-2.37 62.00-3.69Q61.58-5.01 60.99-7.05L60.99-7.05L61.38-7.05Q60.80-4.98 60.38-3.65Q59.95-2.31 59.67-1.49L59.67-1.49L56.38 8.00ZM65.34 3.53L57.13 3.53L57.13 1.75L65.34 1.75L65.34 3.53ZM75.41 8.26L75.41 8.26Q73.78 8.26 72.55 7.49Q71.32 6.71 70.63 5.32Q69.94 3.92 69.94 2.07L69.94 2.07Q69.94 0.19 70.63-1.21Q71.32-2.61 72.55-3.38Q73.78-4.16 75.41-4.16L75.41-4.16Q76.28-4.16 77.05-3.93Q77.83-3.71 78.47-3.28Q79.11-2.86 79.57-2.24Q80.03-1.62 80.28-0.84L80.28-0.84L78.42-0.31Q78.29-0.77 78.02-1.16Q77.75-1.55 77.37-1.83Q76.99-2.12 76.50-2.27Q76.00-2.43 75.41-2.43L75.41-2.43Q74.21-2.43 73.43-1.80Q72.66-1.17 72.28-0.15Q71.91 0.87 71.91 2.07L71.91 2.07Q71.91 3.25 72.28 4.27Q72.66 5.29 73.43 5.91Q74.21 6.53 75.41 6.53L75.41 6.53Q76.01 6.53 76.52 6.37Q77.02 6.21 77.41 5.91Q77.81 5.62 78.07 5.21Q78.34 4.80 78.47 4.32L78.47 4.32L80.32 4.84Q80.08 5.65 79.62 6.28Q79.15 6.91 78.50 7.35Q77.86 7.80 77.08 8.03Q76.29 8.26 75.41 8.26ZM81.61-4.01L87.82-4.01L87.82-2.35L81.61-2.35L81.61-4.01ZM83.41 5.04L83.41-6.86L85.35-6.86L85.35 4.89Q85.35 5.69 85.67 6.06Q86.00 6.43 86.76 6.43L86.76 6.43Q86.95 6.43 87.23 6.39Q87.52 6.35 87.75 6.31L87.75 6.31L88.15 7.94Q87.85 8.05 87.47 8.10Q87.09 8.15 86.71 8.15L86.71 8.15Q85.15 8.15 84.28 7.33Q83.41 6.51 83.41 5.04L83.41 5.04ZM95.34 8.26L95.34 8.26Q93.60 8.26 92.33 7.49Q91.07 6.71 90.39 5.33Q89.71 3.94 89.71 2.09L89.71 2.09Q89.71 0.25 90.37-1.16Q91.04-2.57 92.26-3.36Q93.48-4.16 95.11-4.16L95.11-4.16Q96.07-4.16 97.00-3.84Q97.93-3.52 98.68-2.82Q99.44-2.12 99.89-0.97Q100.34 0.18 100.34 1.85L100.34 1.85L100.34 2.65L91.02 2.65L91.02 1.02L99.30 1.02L98.40 1.62Q98.40 0.44 98.03-0.48Q97.66-1.40 96.93-1.92Q96.20-2.44 95.11-2.44L95.11-2.44Q94.03-2.44 93.25-1.91Q92.48-1.38 92.07-0.52Q91.66 0.33 91.66 1.31L91.66 1.31L91.66 2.40Q91.66 3.73 92.13 4.66Q92.59 5.59 93.42 6.06Q94.25 6.54 95.35 6.54L95.35 6.54Q96.06 6.54 96.64 6.34Q97.22 6.13 97.64 5.72Q98.05 5.31 98.28 4.69L98.28 4.69L100.15 5.21Q99.87 6.11 99.20 6.80Q98.54 7.49 97.56 7.87Q96.57 8.26 95.34 8.26ZM107.62 8.26L107.62 8.26Q106.12 8.26 104.97 7.50Q103.82 6.74 103.18 5.34Q102.53 3.94 102.53 2.03L102.53 2.03Q102.53 0.13 103.18-1.26Q103.83-2.65 104.98-3.41Q106.13-4.16 107.63-4.16L107.63-4.16Q108.80-4.16 109.48-3.77Q110.17-3.38 110.54-2.90Q110.91-2.41 111.11-2.08L111.11-2.08L111.26-2.08L111.26-8.00L113.19-8.00L113.19 8.00L111.32 8.00L111.32 6.14L111.11 6.14Q110.91 6.48 110.53 6.98Q110.15 7.48 109.46 7.87Q108.76 8.26 107.62 8.26ZM107.91 6.53L107.91 6.53Q109.00 6.53 109.75 5.96Q110.50 5.38 110.89 4.36Q111.28 3.34 111.28 2.01L111.28 2.01Q111.28 0.68 110.90-0.32Q110.52-1.31 109.76-1.87Q109.01-2.43 107.91-2.43L107.91-2.43Q106.77-2.43 106.01-1.84Q105.25-1.25 104.88-0.24Q104.50 0.76 104.50 2.01L104.50 2.01Q104.50 3.27 104.88 4.29Q105.26 5.32 106.03 5.92Q106.79 6.53 107.91 6.53ZM127.66 8.26L127.66 8.26Q126.03 8.26 124.80 7.49Q123.57 6.71 122.88 5.32Q122.19 3.92 122.19 2.07L122.19 2.07Q122.19 0.19 122.88-1.21Q123.57-2.61 124.80-3.38Q126.03-4.16 127.66-4.16L127.66-4.16Q129.30-4.16 130.54-3.38Q131.77-2.61 132.46-1.21Q133.15 0.19 133.15 2.07L133.15 2.07Q133.15 3.92 132.46 5.32Q131.77 6.71 130.54 7.49Q129.30 8.26 127.66 8.26ZM127.66 6.53L127.66 6.53Q128.87 6.53 129.66 5.91Q130.44 5.29 130.82 4.27Q131.19 3.25 131.19 2.07L131.19 2.07Q131.19 0.88 130.82-0.15Q130.44-1.17 129.66-1.80Q128.87-2.43 127.66-2.43L127.66-2.43Q126.46-2.43 125.68-1.80Q124.91-1.17 124.53-0.15Q124.16 0.87 124.16 2.07L124.16 2.07Q124.16 3.25 124.53 4.27Q124.91 5.29 125.68 5.91Q126.46 6.53 127.66 6.53ZM137.90 0.81L137.90 0.81L137.90 8.00L135.96 8.00L135.96-4.01L137.82-4.01L137.83-1.10L137.56-1.10Q138.11-2.76 139.13-3.46Q140.14-4.16 141.51-4.16L141.51-4.16Q142.72-4.16 143.63-3.66Q144.55-3.16 145.06-2.15Q145.57-1.15 145.57 0.38L145.57 0.38L145.57 8.00L143.63 8.00L143.63 0.54Q143.63-0.85 142.91-1.63Q142.18-2.42 140.93-2.42L140.93-2.42Q140.07-2.42 139.38-2.04Q138.69-1.67 138.29-0.95Q137.90-0.23 137.90 0.81ZM160.72 8.26L160.72 8.26Q159.59 8.26 158.89 7.87Q158.19 7.48 157.81 6.98Q157.44 6.48 157.23 6.14L157.23 6.14L157.02 6.14L157.02 8.00L155.15 8.00L155.15-8.00L157.08-8.00L157.08-2.08L157.23-2.08Q157.44-2.41 157.80-2.90Q158.17-3.38 158.86-3.77Q159.54-4.16 160.71-4.16L160.71-4.16Q162.22-4.16 163.36-3.41Q164.51-2.65 165.16-1.26Q165.81 0.13 165.81 2.03L165.81 2.03Q165.81 3.94 165.16 5.34Q164.52 6.74 163.37 7.50Q162.23 8.26 160.72 8.26ZM160.43 6.53L160.43 6.53Q161.56 6.53 162.32 5.92Q163.08 5.32 163.46 4.29Q163.84 3.27 163.84 2.01L163.84 2.01Q163.84 0.76 163.46-0.24Q163.09-1.25 162.33-1.84Q161.57-2.43 160.43-2.43L160.43-2.43Q159.33-2.43 158.58-1.87Q157.82-1.31 157.44-0.32Q157.06 0.68 157.06 2.01L157.06 2.01Q157.06 3.34 157.45 4.36Q157.83 5.38 158.59 5.96Q159.35 6.53 160.43 6.53ZM168.43 12.35L168.43 12.35L168.92 10.68L169.13 10.73Q169.72 10.88 170.20 10.81Q170.68 10.74 171.07 10.33Q171.46 9.93 171.75 9.07L171.75 9.07L172.09 8.07L167.50-4.01L169.62-4.01L172.18 3.12Q172.58 4.23 172.86 5.33Q173.14 6.42 173.45 7.46L173.45 7.46L172.75 7.46Q173.06 6.42 173.34 5.32Q173.63 4.22 174.02 3.12L174.02 3.12L176.60-4.01L178.71-4.01L173.43 9.80Q173.07 10.75 172.56 11.37Q172.05 11.99 171.37 12.28Q170.69 12.58 169.84 12.58L169.84 12.58Q169.33 12.58 168.95 12.50Q168.58 12.43 168.43 12.35ZM190.53 8.28L190.53 8.28Q189.40 8.28 188.47 7.85Q187.54 7.42 186.99 6.60Q186.44 5.77 186.44 4.59L186.44 4.59Q186.44 3.56 186.85 2.91Q187.26 2.27 187.94 1.90Q188.62 1.53 189.45 1.34Q190.28 1.16 191.11 1.05L191.11 1.05Q192.19 0.91 192.87 0.84Q193.54 0.76 193.87 0.58Q194.20 0.40 194.20-0.04L194.20-0.04L194.20-0.11Q194.20-0.86 193.92-1.38Q193.64-1.90 193.08-2.18Q192.52-2.46 191.68-2.46L191.68-2.46Q190.82-2.46 190.21-2.19Q189.60-1.92 189.22-1.52Q188.84-1.12 188.64-0.70L188.64-0.70L186.79-1.31Q187.25-2.41 188.03-3.02Q188.82-3.64 189.76-3.90Q190.71-4.16 191.63-4.16L191.63-4.16Q192.23-4.16 193.00-4.01Q193.77-3.87 194.48-3.44Q195.20-3.01 195.66-2.16Q196.13-1.32 196.13 0.09L196.13 0.09L196.13 8.00L194.23 8.00L194.23 6.37L194.10 6.37Q193.90 6.79 193.45 7.23Q192.99 7.68 192.27 7.98Q191.55 8.28 190.53 8.28ZM190.87 6.57L190.87 6.57Q191.94 6.57 192.68 6.16Q193.42 5.74 193.81 5.06Q194.20 4.39 194.20 3.66L194.20 3.66L194.20 2.00Q194.08 2.14 193.68 2.25Q193.28 2.36 192.77 2.45Q192.26 2.54 191.79 2.59Q191.31 2.65 191.03 2.69L191.03 2.69Q190.33 2.77 189.72 2.98Q189.12 3.19 188.75 3.59Q188.39 4.00 188.39 4.68L188.39 4.68Q188.39 5.31 188.71 5.73Q189.03 6.14 189.59 6.36Q190.15 6.57 190.87 6.57ZM207.65 0.81L207.65 0.81L207.65 8.00L205.71 8.00L205.71-8.00L207.65-8.00L207.65-1.10L207.31-1.10Q207.86-2.76 208.88-3.46Q209.89-4.16 211.26-4.16L211.26-4.16Q212.47-4.16 213.39-3.66Q214.31-3.16 214.82-2.15Q215.33-1.15 215.33 0.38L215.33 0.38L215.33 8.00L213.38 8.00L213.38 0.54Q213.38-0.85 212.66-1.63Q211.93-2.42 210.68-2.42L210.68-2.42Q209.82-2.42 209.13-2.04Q208.44-1.67 208.04-0.95Q207.65-0.23 207.65 0.81ZM222.79 8.15L222.79 8.15Q221.58 8.15 220.66 7.65Q219.74 7.15 219.23 6.14Q218.72 5.13 218.72 3.62L218.72 3.62L218.72-4.01L220.66-4.01L220.66 3.46Q220.66 4.84 221.39 5.63Q222.12 6.41 223.37 6.41L223.37 6.41Q224.23 6.41 224.91 6.04Q225.60 5.66 225.99 4.94Q226.39 4.21 226.39 3.19L226.39 3.19L226.39-4.01L228.34-4.01L228.34 8.00L226.47 8.00L226.47 5.09L226.72 5.09Q226.17 6.78 225.14 7.47Q224.11 8.15 222.79 8.15ZM233.66 8.00L231.73 8.00L231.73-4.01L233.61-4.01L233.62-1.32L233.47-1.32Q233.72-2.30 234.25-2.94Q234.78-3.58 235.50-3.90Q236.21-4.22 236.98-4.22L236.98-4.22Q238.29-4.22 239.10-3.42Q239.92-2.61 240.15-1.30L240.15-1.30L239.89-1.30Q240.11-2.20 240.68-2.86Q241.25-3.51 242.06-3.87Q242.87-4.22 243.83-4.22L243.83-4.22Q244.87-4.22 245.73-3.77Q246.59-3.32 247.10-2.41Q247.61-1.49 247.61-0.10L247.61-0.10L247.61 8.00L245.67 8.00L245.67-0.04Q245.67-1.34 244.94-1.90Q244.21-2.46 243.25-2.46L243.25-2.46Q242.44-2.46 241.85-2.12Q241.27-1.78 240.95-1.19Q240.64-0.60 240.64 0.16L240.64 0.16L240.64 8.00L238.70 8.00L238.70-0.24Q238.70-1.24 238.04-1.85Q237.37-2.46 236.35-2.46L236.35-2.46Q235.65-2.46 235.03-2.13Q234.42-1.80 234.04-1.16Q233.66-0.52 233.66 0.44L233.66 0.44L233.66 8.00ZM254.36 8.28L254.36 8.28Q253.23 8.28 252.30 7.85Q251.37 7.42 250.82 6.60Q250.27 5.77 250.27 4.59L250.27 4.59Q250.27 3.56 250.68 2.91Q251.09 2.27 251.77 1.90Q252.45 1.53 253.28 1.34Q254.11 1.16 254.94 1.05L254.94 1.05Q256.02 0.91 256.70 0.84Q257.37 0.76 257.70 0.58Q258.03 0.40 258.03-0.04L258.03-0.04L258.03-0.11Q258.03-0.86 257.75-1.38Q257.47-1.90 256.91-2.18Q256.35-2.46 255.51-2.46L255.51-2.46Q254.65-2.46 254.04-2.19Q253.43-1.92 253.05-1.52Q252.67-1.12 252.47-0.70L252.47-0.70L250.62-1.31Q251.08-2.41 251.86-3.02Q252.65-3.64 253.59-3.90Q254.54-4.16 255.46-4.16L255.46-4.16Q256.06-4.16 256.83-4.01Q257.60-3.87 258.31-3.44Q259.03-3.01 259.49-2.16Q259.96-1.32 259.96 0.09L259.96 0.09L259.96 8.00L258.06 8.00L258.06 6.37L257.93 6.37Q257.73 6.79 257.28 7.23Q256.82 7.68 256.10 7.98Q255.38 8.28 254.36 8.28ZM254.70 6.57L254.70 6.57Q255.77 6.57 256.51 6.16Q257.25 5.74 257.64 5.06Q258.03 4.39 258.03 3.66L258.03 3.66L258.03 2.00Q257.91 2.14 257.51 2.25Q257.11 2.36 256.60 2.45Q256.09 2.54 255.62 2.59Q255.14 2.65 254.86 2.69L254.86 2.69Q254.16 2.77 253.55 2.98Q252.95 3.19 252.58 3.59Q252.22 4.00 252.22 4.68L252.22 4.68Q252.22 5.31 252.54 5.73Q252.86 6.14 253.42 6.36Q253.98 6.57 254.70 6.57ZM265.29 0.81L265.29 0.81L265.29 8.00L263.36 8.00L263.36-4.01L265.21-4.01L265.22-1.10L264.96-1.10Q265.50-2.76 266.52-3.46Q267.53-4.16 268.90-4.16L268.90-4.16Q270.11-4.16 271.03-3.66Q271.94-3.16 272.45-2.15Q272.96-1.15 272.96 0.38L272.96 0.38L272.96 8.00L271.03 8.00L271.03 0.54Q271.03-0.85 270.30-1.63Q269.58-2.42 268.32-2.42L268.32-2.42Q267.46-2.42 266.77-2.04Q266.08-1.67 265.69-0.95Q265.29-0.23 265.29 0.81ZM277.83 8.14L277.83 8.14Q277.22 8.14 276.80 7.72Q276.38 7.29 276.38 6.69L276.38 6.69Q276.38 6.09 276.80 5.67Q277.22 5.24 277.83 5.24L277.83 5.24Q278.43 5.24 278.85 5.67Q279.28 6.09 279.28 6.69L279.28 6.69Q279.28 7.29 278.85 7.72Q278.43 8.14 277.83 8.14Z"/></g>
</svg>