<svg xmlns="http://www.w3.org/2000/svg" viewBox="0 0 1200 630" width="1200" height="630">
  <defs>
    <radialGradient id="glow1" cx="50%" cy="50%" r="50%">
      <stop offset="0%" stop-color="#F97316" stop-opacity="0.12"/>
      <stop offset="100%" stop-color="#F97316" stop-opacity="0"/>
    </radialGradient>
  </defs>

  <rect width="1200" height="630" fill="#0A0A0A"/>
  <circle cx="1000" cy="200" r="400" fill="url(#glow1)"/>

  <!-- Faint grid -->
  <g stroke="#161616" stroke-width="1">
    <line x1="0" y1="120" x2="1200" y2="120"/>
    <line x1="0" y1="510" x2="1200" y2="510"/>
  </g>

  <!-- Small orange vertical accent -->
  <rect x="80" y="240" width="4" height="160" fill="#F97316"/>

  <!-- Headline -->
  <g transform="translate(110 280)" fill="#FAFAFA"><path d="M27.77-24.55L3.54-24.55L3.54-40.01L70.90-40.01L70.90-24.55L46.67-24.55L46.67 40.01L27.77 40.01L27.77-24.55ZM99.37 5.75L99.37 5.75L99.37 40.01L80.62 40.01L80.62-40.01L98.99-40.01L98.99-4.89L97.81-4.89Q100.01-12.03 104.71-16.41Q109.41-20.79 117.36-20.79L117.36-20.79Q123.64-20.79 128.32-17.99Q132.99-15.20 135.57-10.10Q138.14-5.00 138.14 1.77L138.14 1.77L138.14 40.01L119.40 40.01L119.40 5.42Q119.40 0.38 116.82-2.50Q114.24-5.37 109.62-5.37L109.62-5.37Q106.62-5.37 104.28-4.06Q101.94-2.74 100.65-0.27Q99.37 2.20 99.37 5.75ZM178.48 41.14L178.48 41.14Q169.08 41.14 162.26 37.41Q155.44 33.68 151.81 26.75Q148.19 19.82 148.19 10.21L148.19 10.21Q148.19 0.97 151.81-6.02Q155.44-13.00 162.10-16.89Q168.76-20.79 177.78-20.79L177.78-20.79Q184.12-20.79 189.41-18.80Q194.70-16.81 198.60-12.92Q202.49-9.02 204.61-3.33Q206.73 2.36 206.73 9.83L206.73 9.83L206.73 14.56L154.85 14.56L154.85 3.65L197.82 3.65L189.06 6.23Q189.06 2.04 187.80-0.97Q186.54-3.97 184.07-5.59Q181.60-7.20 177.94-7.20L177.94-7.20Q174.29-7.20 171.77-5.56Q169.24-3.92 167.93-0.99Q166.61 1.93 166.61 5.85L166.61 5.85L166.61 13.70Q166.61 18.32 168.14 21.40Q169.67 24.49 172.41 26.02Q175.15 27.55 178.80 27.55L178.80 27.55Q181.33 27.55 183.40 26.86Q185.46 26.16 186.94 24.76Q188.42 23.36 189.17 21.38L189.17 21.38L205.87 24.12Q204.37 29.27 200.69 33.11Q197.01 36.95 191.40 39.05Q185.79 41.14 178.48 41.14ZM259.37 62.47L240.63 62.47L240.63-20.03L259.16-20.03L259.16-9.72L259.80-9.72Q260.93-12.46 263.10-14.99Q265.28-17.51 268.64-19.15Q271.99-20.79 276.77-20.79L276.77-20.79Q283.11-20.79 288.56-17.48Q294.01-14.18 297.37-7.33Q300.73-0.48 300.73 10.04L300.73 10.04Q300.73 20.25 297.50 27.10Q294.28 33.95 288.80 37.41Q283.33 40.87 276.67 40.87L276.67 40.87Q272.10 40.87 268.74 39.34Q265.39 37.81 263.18 35.40Q260.98 32.98 259.80 30.29L259.80 30.29L259.37 30.29L259.37 62.47ZM270.27 26.26L270.27 26.26Q273.87 26.26 276.37 24.25Q278.87 22.24 280.16 18.56Q281.45 14.88 281.45 10.04L281.45 10.04Q281.45 5.16 280.16 1.53Q278.87-2.09 276.40-4.11Q273.93-6.12 270.27-6.12L270.27-6.12Q266.67-6.12 264.15-4.16Q261.63-2.20 260.28 1.42Q258.94 5.05 258.94 10.04L258.94 10.04Q258.94 14.93 260.28 18.58Q261.63 22.24 264.18 24.25Q266.73 26.26 270.27 26.26ZM338.65 41.14L338.65 41.14Q329.25 41.14 322.48 37.25Q315.71 33.35 312.09 26.40Q308.46 19.44 308.46 10.21L308.46 10.21Q308.46 0.91 312.09-6.04Q315.71-13.00 322.48-16.89Q329.25-20.79 338.65-20.79L338.65-20.79Q348.05-20.79 354.81-16.89Q361.58-13.00 365.18-6.04Q368.78 0.91 368.78 10.21L368.78 10.21Q368.78 19.44 365.18 26.40Q361.58 33.35 354.81 37.25Q348.05 41.14 338.65 41.14ZM338.65 26.80L338.65 26.80Q342.25 26.80 344.72 24.71Q347.19 22.61 348.45 18.85Q349.71 15.09 349.71 10.10L349.71 10.10Q349.71 5.10 348.45 1.37Q347.19-2.36 344.72-4.40Q342.25-6.45 338.65-6.45L338.65-6.45Q335.05-6.45 332.58-4.40Q330.11-2.36 328.85 1.37Q327.58 5.10 327.58 10.10L327.58 10.10Q327.58 15.09 328.85 18.85Q330.11 22.61 332.58 24.71Q335.05 26.80 338.65 26.80ZM397.62 40.01L378.88 40.01L378.88-20.03L397.62-20.03L397.62 40.01ZM388.22-27.07L388.22-27.07Q384.25-27.07 381.40-29.73Q378.55-32.39 378.55-36.09L378.55-36.09Q378.55-39.85 381.40-42.49Q384.25-45.12 388.22-45.12L388.22-45.12Q392.25-45.12 395.10-42.51Q397.94-39.91 397.94-36.09L397.94-36.09Q397.94-32.33 395.10-29.70Q392.25-27.07 388.22-27.07ZM428.77 5.75L428.77 5.75L428.77 40.01L410.03 40.01L410.03-20.03L427.65-20.03L428.02-4.89L427.22-4.89Q429.42-12.03 434.12-16.41Q438.82-20.79 446.77-20.79L446.77-20.79Q453.05-20.79 457.72-17.99Q462.40-15.20 464.98-10.10Q467.55-5.00 467.55 1.77L467.55 1.77L467.55 40.01L448.81 40.01L448.81 5.42Q448.81 0.38 446.23-2.50Q443.65-5.37 439.03-5.37L439.03-5.37Q436.03-5.37 433.69-4.06Q431.35-2.74 430.06-0.27Q428.77 2.20 428.77 5.75ZM474.80-20.03L512.29-20.03L512.29-6.12L474.80-6.12L474.80-20.03ZM482.75 23.31L482.75-34.32L501.50-34.32L501.50 21.65Q501.50 24.01 502.63 25.16Q503.75 26.32 506.28 26.32L506.28 26.32Q507.25 26.32 508.99 26.10Q510.74 25.89 511.49 25.67L511.49 25.67L513.91 39.32Q510.74 40.23 507.78 40.55Q504.83 40.87 502.20 40.87L502.20 40.87Q492.64 40.87 487.70 36.39Q482.75 31.90 482.75 23.31L482.75 23.31Z"/></g>
  <g transform="translate(110 400)" fill="#FAFAFA"><path d="M24.92 40.01L6.18 40.01L6.18-20.03L24.92-20.03L24.92 40.01ZM15.52-27.07L15.52-27.07Q11.55-27.07 8.70-29.73Q5.85-32.39 5.85-36.09L5.85-36.09Q5.85-39.85 8.70-42.49Q11.55-45.12 15.52-45.12L15.52-45.12Q19.55-45.12 22.40-42.51Q25.24-39.91 25.24-36.09L25.24-36.09Q25.24-32.33 22.40-29.70Q19.55-27.07 15.52-27.07ZM62.63 41.14L62.63 41.14Q54.95 41.14 49.04 38.97Q43.13 36.79 39.42 32.68Q35.72 28.57 34.64 22.83L34.64 22.83L52.05 20.09Q53.17 24.01 55.86 26.00Q58.54 27.98 63.33 27.98L63.33 27.98Q67.25 27.98 69.50 26.61Q71.76 25.24 71.76 22.99L71.76 22.99Q71.76 20.89 69.96 19.63Q68.16 18.37 64.40 17.62L64.40 17.62L53.93 15.58Q45.01 13.86 40.58 9.53Q36.15 5.21 36.15-1.72L36.15-1.72Q36.15-7.73 39.40-11.98Q42.65-16.22 48.58-18.50Q54.52-20.79 62.57-20.79L62.57-20.79Q70.09-20.79 75.65-18.77Q81.21-16.76 84.62-13.02Q88.03-9.29 89.05-4.14L89.05-4.14L72.51-1.50Q71.70-4.51 69.21-6.20Q66.71-7.90 62.90-7.90L62.90-7.90Q59.51-7.90 57.18-6.53Q54.84-5.16 54.84-2.85L54.84-2.85Q54.84-1.02 56.29 0.35Q57.74 1.72 61.61 2.47L61.61 2.47L73.10 4.62Q82.02 6.34 86.39 10.31Q90.77 14.29 90.77 20.84L90.77 20.84Q90.77 27.02 87.15 31.58Q83.52 36.15 77.18 38.65Q70.84 41.14 62.63 41.14ZM119.35-20.03L156.84-20.03L156.84-6.12L119.35-6.12L119.35-20.03ZM127.29 23.31L127.29-34.32L146.04-34.32L146.04 21.65Q146.04 24.01 147.17 25.16Q148.30 26.32 150.82 26.32L150.82 26.32Q151.79 26.32 153.53 26.10Q155.28 25.89 156.03 25.67L156.03 25.67L158.45 39.32Q155.28 40.23 152.32 40.55Q149.37 40.87 146.74 40.87L146.74 40.87Q137.18 40.87 132.24 36.39Q127.29 31.90 127.29 23.31L127.29 23.31ZM185.20 5.75L185.20 5.75L185.20 40.01L166.45 40.01L166.45-40.01L184.82-40.01L184.82-4.89L183.64-4.89Q185.84-12.03 190.54-16.41Q195.24-20.79 203.19-20.79L203.19-20.79Q209.47-20.79 214.15-17.99Q218.82-15.20 221.40-10.10Q223.97-5.00 223.97 1.77L223.97 1.77L223.97 40.01L205.23 40.01L205.23 5.42Q205.23 0.38 202.65-2.50Q200.07-5.37 195.45-5.37L195.45-5.37Q192.45-5.37 190.11-4.06Q187.77-2.74 186.48-0.27Q185.20 2.20 185.20 5.75ZM264.31 41.14L264.31 41.14Q254.91 41.14 248.09 37.41Q241.27 33.68 237.64 26.75Q234.02 19.82 234.02 10.21L234.02 10.21Q234.02 0.97 237.64-6.02Q241.27-13.00 247.93-16.89Q254.59-20.79 263.61-20.79L263.61-20.79Q269.95-20.79 275.24-18.80Q280.53-16.81 284.43-12.92Q288.32-9.02 290.44-3.33Q292.56 2.36 292.56 9.83L292.56 9.83L292.56 14.56L240.68 14.56L240.68 3.65L283.65 3.65L274.89 6.23Q274.89 2.04 273.63-0.97Q272.37-3.97 269.90-5.59Q267.43-7.20 263.77-7.20L263.77-7.20Q260.12-7.20 257.60-5.56Q255.07-3.92 253.76-0.99Q252.44 1.93 252.44 5.85L252.44 5.85L252.44 13.70Q252.44 18.32 253.97 21.40Q255.50 24.49 258.24 26.02Q260.98 27.55 264.63 27.55L264.63 27.55Q267.16 27.55 269.23 26.86Q271.29 26.16 272.77 24.76Q274.25 23.36 275 21.38L275 21.38L291.70 24.12Q290.20 29.27 286.52 33.11Q282.84 36.95 277.23 39.05Q271.62 41.14 264.31 41.14ZM354.33 41.14L354.33 41.14Q344.93 41.14 338.16 37.25Q331.40 33.35 327.77 26.40Q324.15 19.44 324.15 10.21L324.15 10.21Q324.15 0.91 327.77-6.04Q331.40-13.00 338.16-16.89Q344.93-20.79 354.33-20.79L354.33-20.79Q360.08-20.79 364.86-19.28Q369.64-17.78 373.24-15.01Q376.84-12.25 379.06-8.30Q381.29-4.35 381.99 0.54L381.99 0.54L364.70 3.44Q364.27 1.07 363.38-0.75Q362.50-2.58 361.23-3.87Q359.97-5.16 358.28-5.80Q356.59-6.45 354.55-6.45L354.55-6.45Q350.95-6.45 348.42-4.48Q345.90-2.52 344.58 1.21Q343.27 4.94 343.27 10.10L343.27 10.10Q343.27 15.25 344.58 19.01Q345.90 22.77 348.42 24.79Q350.95 26.80 354.55 26.80L354.55 26.80Q356.64 26.80 358.31 26.13Q359.97 25.46 361.29 24.14Q362.60 22.83 363.49 20.92Q364.38 19.01 364.75 16.60L364.75 16.60L382.05 19.39Q381.35 24.44 379.12 28.44Q376.89 32.44 373.29 35.29Q369.69 38.13 364.89 39.64Q360.08 41.14 354.33 41.14ZM408.74 41.09L408.74 41.09Q402.99 41.09 398.51 39.13Q394.02 37.17 391.50 33.22Q388.97 29.27 388.97 23.36L388.97 23.36Q388.97 18.37 390.72 14.93Q392.47 11.49 395.58 9.35Q398.70 7.20 402.72 6.07Q406.75 4.94 411.32 4.57L411.32 4.57Q416.42 4.14 419.54 3.63Q422.65 3.12 424.10 2.09Q425.55 1.07 425.55-0.75L425.55-0.75L425.55-0.97Q425.55-3.06 424.58-4.51Q423.62-5.96 421.79-6.71Q419.97-7.47 417.39-7.47L417.39-7.47Q414.81-7.47 412.80-6.71Q410.78-5.96 409.49-4.57Q408.20-3.17 407.67-1.29L407.67-1.29L390.69-3.49Q391.88-8.65 395.34-12.54Q398.80-16.44 404.42-18.61Q410.03-20.79 417.55-20.79L417.55-20.79Q423.13-20.79 428.00-19.47Q432.86-18.15 436.51-15.60Q440.16-13.05 442.20-9.32Q444.24-5.59 444.24-0.75L444.24-0.75L444.24 40.01L426.63 40.01L426.63 31.58L426.14 31.58Q424.53 34.70 422.03 36.79Q419.54 38.89 416.23 39.99Q412.93 41.09 408.74 41.09ZM414.43 28.68L414.43 28.68Q417.60 28.68 420.15 27.39Q422.71 26.10 424.21 23.85Q425.71 21.59 425.71 18.64L425.71 18.64L425.71 12.89Q424.91 13.32 423.70 13.70Q422.49 14.07 421.04 14.37Q419.59 14.66 418.14 14.90Q416.69 15.15 415.35 15.36L415.35 15.36Q412.61 15.74 410.67 16.65Q408.74 17.56 407.72 19.01Q406.70 20.46 406.70 22.50L406.70 22.50Q406.70 24.49 407.72 25.86Q408.74 27.23 410.46 27.96Q412.18 28.68 414.43 28.68ZM456.65-40.01L475.40-40.01L475.40 40.01L456.65 40.01L456.65-40.01ZM487.80-40.01L506.55-40.01L506.55 40.01L487.80 40.01L487.80-40.01ZM532.17 41.14L532.17 41.14Q527.87 41.14 524.94 38.27Q522.02 35.40 522.02 31.15L522.02 31.15Q522.02 26.86 524.94 23.98Q527.87 21.11 532.17 21.11L532.17 21.11Q536.46 21.11 539.39 23.98Q542.32 26.86 542.32 31.15L542.32 31.15Q542.32 35.40 539.39 38.27Q536.46 41.14 532.17 41.14Z"/></g>

  <!-- Tag bottom -->
  <g transform="translate(80 560)" fill="#F97316"><path d="M4.88-4.83L0.79-4.83L0.79-6.55L10.96-6.55L10.96-4.83L6.89-4.83L6.89 6.55L4.88 6.55L4.88-4.83ZM20.00 6.55L18 6.55L18-6.55L22.69-6.55Q24.21-6.55 25.22-6.02Q26.23-5.50 26.73-4.57Q27.23-3.64 27.23-2.43L27.23-2.43Q27.23-1.22 26.72-0.31Q26.22 0.60 25.21 1.10Q24.20 1.60 22.68 1.60L22.68 1.60L19.15 1.60L19.15-0.11L22.48-0.11Q23.45-0.11 24.04-0.39Q24.64-0.67 24.92-1.19Q25.20-1.71 25.20-2.43L25.20-2.43Q25.20-3.17 24.92-3.71Q24.64-4.25 24.04-4.54Q23.44-4.83 22.46-4.83L22.46-4.83L20.00-4.83L20.00 6.55ZM27.72 6.55L25.44 6.55L22.27 0.63L24.50 0.63L27.72 6.55ZM35.63 6.55L33.46 6.55L38.12-6.55L40.58-6.55L45.33 6.55L43.15 6.55L40.61-0.74Q40.31-1.63 39.95-2.83Q39.59-4.03 39.13-5.72L39.13-5.72L39.53-5.72Q39.08-4.02 38.73-2.80Q38.37-1.58 38.10-0.74L38.10-0.74L35.63 6.55ZM42.79 3.09L35.98 3.09L35.98 1.42L42.79 1.42L42.79 3.09ZM53.36 6.55L51.06 6.55L56.28-0.90L56.28 0.61L51.39-6.55L53.72-6.55L55.45-3.96Q55.87-3.35 56.14-2.90Q56.40-2.45 56.62-2.03Q56.84-1.61 57.12-1.06L57.12-1.06L56.69-1.06Q56.96-1.60 57.19-2.02Q57.41-2.44 57.68-2.90Q57.96-3.35 58.37-3.96L58.37-3.96L60.13-6.55L62.41-6.55L57.56 0.51L57.56-0.95L62.70 6.55L60.36 6.55L58.23 3.42Q57.86 2.87 57.61 2.48Q57.37 2.09 57.16 1.71Q56.95 1.34 56.70 0.83L56.70 0.83L57.08 0.83Q56.82 1.32 56.61 1.70Q56.40 2.07 56.15 2.47Q55.91 2.87 55.52 3.42L55.52 3.42L53.36 6.55ZM69.43-6.55L71.44-6.55L71.44 6.55L69.43 6.55L69.43-6.55ZM84.36 6.75L84.36 6.75Q82.78 6.75 81.61 6.14Q80.43 5.54 79.78 4.48Q79.14 3.42 79.14 2.05L79.14 2.05L79.14-6.55L81.14-6.55L81.14 1.88Q81.14 2.77 81.53 3.45Q81.92 4.14 82.64 4.54Q83.36 4.93 84.36 4.93L84.36 4.93Q85.34 4.93 86.06 4.54Q86.77 4.14 87.16 3.45Q87.55 2.77 87.55 1.88L87.55 1.88L87.55-6.55L89.56-6.55L89.56 2.05Q89.56 3.42 88.91 4.48Q88.27 5.54 87.10 6.14Q85.92 6.75 84.36 6.75ZM99.21 6.55L97.26 6.55L97.26-6.55L100.21-6.55L103.07 0.97Q103.19 1.30 103.35 1.81Q103.50 2.32 103.67 2.92Q103.83 3.52 103.98 4.10Q104.13 4.68 104.25 5.14L104.25 5.14L103.83 5.14Q103.94 4.70 104.09 4.13Q104.24 3.55 104.41 2.95Q104.57 2.36 104.73 1.83Q104.89 1.30 105.01 0.97L105.01 0.97L107.82-6.55L110.79-6.55L110.79 6.55L108.80 6.55L108.80-0.50Q108.80-0.91 108.81-1.47Q108.82-2.03 108.83-2.66Q108.84-3.29 108.86-3.93Q108.87-4.57 108.88-5.16L108.88-5.16L109.03-5.16Q108.85-4.52 108.65-3.84Q108.44-3.16 108.24-2.52Q108.04-1.89 107.86-1.37Q107.68-0.84 107.56-0.50L107.56-0.50L104.88 6.55L103.17 6.55L100.45-0.50Q100.32-0.83 100.15-1.35Q99.98-1.86 99.77-2.49Q99.57-3.12 99.36-3.80Q99.15-4.48 98.94-5.16L98.94-5.16L99.11-5.16Q99.13-4.62 99.15-3.99Q99.16-3.37 99.17-2.72Q99.18-2.08 99.20-1.51Q99.21-0.93 99.21-0.50L99.21-0.50L99.21 6.55ZM129.37 1.63L129.37 1.63Q128.82 1.63 128.44 1.25Q128.07 0.87 128.07 0.33L128.07 0.33Q128.07-0.21 128.44-0.58Q128.82-0.96 129.37-0.96L129.37-0.96Q129.90-0.96 130.28-0.58Q130.66-0.21 130.66 0.33L130.66 0.33Q130.66 0.87 130.28 1.25Q129.90 1.63 129.37 1.63ZM149.94 6.55L147.94 6.55L147.94-6.55L156.08-6.55L156.08-4.83L149.94-4.83L149.94-0.62L155.50-0.62L155.50 1.10L149.94 1.10L149.94 6.55ZM165.35 6.55L163.34 6.55L163.34-6.55L168.04-6.55Q169.55-6.55 170.56-6.02Q171.57-5.50 172.07-4.57Q172.57-3.64 172.57-2.43L172.57-2.43Q172.57-1.22 172.07-0.31Q171.56 0.60 170.55 1.10Q169.54 1.60 168.02 1.60L168.02 1.60L164.50 1.60L164.50-0.11L167.83-0.11Q168.79-0.11 169.39-0.39Q169.98-0.67 170.26-1.19Q170.54-1.71 170.54-2.43L170.54-2.43Q170.54-3.17 170.26-3.71Q169.98-4.25 169.38-4.54Q168.79-4.83 167.81-4.83L167.81-4.83L165.35-4.83L165.35 6.55ZM173.07 6.55L170.79 6.55L167.62 0.63L169.84 0.63L173.07 6.55ZM185.26 6.72L185.26 6.72Q183.57 6.72 182.23 5.92Q180.89 5.12 180.12 3.61Q179.35 2.10 179.35 0.01L179.35 0.01Q179.35-2.09 180.12-3.60Q180.89-5.11 182.23-5.92Q183.57-6.72 185.26-6.72L185.26-6.72Q186.96-6.72 188.29-5.92Q189.62-5.11 190.39-3.60Q191.16-2.09 191.16 0.01L191.16 0.01Q191.16 2.10 190.39 3.61Q189.62 5.12 188.29 5.92Q186.96 6.72 185.26 6.72ZM185.26 4.90L185.26 4.90Q186.38 4.90 187.26 4.34Q188.15 3.78 188.66 2.69Q189.18 1.59 189.18 0.01L189.18 0.01Q189.18-1.59 188.66-2.69Q188.15-3.78 187.26-4.34Q186.38-4.90 185.26-4.90L185.26-4.90Q184.14-4.90 183.25-4.33Q182.36-3.77 181.85-2.68Q181.34-1.58 181.34 0.01L181.34 0.01Q181.34 1.59 181.85 2.68Q182.36 3.77 183.25 4.33Q184.14 4.90 185.26 4.90ZM200.36 6.55L198.40 6.55L198.40-6.55L201.36-6.55L204.21 0.97Q204.34 1.30 204.49 1.81Q204.64 2.32 204.81 2.92Q204.98 3.52 205.13 4.10Q205.28 4.68 205.39 5.14L205.39 5.14L204.97 5.14Q205.08 4.70 205.23 4.13Q205.38 3.55 205.55 2.95Q205.72 2.36 205.88 1.83Q206.03 1.30 206.16 0.97L206.16 0.97L208.97-6.55L211.94-6.55L211.94 6.55L209.94 6.55L209.94-0.50Q209.94-0.91 209.95-1.47Q209.96-2.03 209.98-2.66Q209.99-3.29 210.00-3.93Q210.01-4.57 210.02-5.16L210.02-5.16L210.17-5.16Q210.00-4.52 209.79-3.84Q209.58-3.16 209.39-2.52Q209.19-1.89 209.01-1.37Q208.83-0.84 208.71-0.50L208.71-0.50L206.02 6.55L204.31 6.55L201.59-0.50Q201.46-0.83 201.29-1.35Q201.12-1.86 200.92-2.49Q200.72-3.12 200.50-3.80Q200.29-4.48 200.08-5.16L200.08-5.16L200.26-5.16Q200.28-4.62 200.29-3.99Q200.30-3.37 200.32-2.72Q200.33-2.08 200.34-1.51Q200.36-0.93 200.36-0.50L200.36-0.50L200.36 6.55ZM230.56 6.55L228.26 6.55L233.48-0.90L233.48 0.61L228.59-6.55L230.92-6.55L232.66-3.96Q233.08-3.35 233.34-2.90Q233.60-2.45 233.82-2.03Q234.04-1.61 234.33-1.06L234.33-1.06L233.89-1.06Q234.17-1.60 234.39-2.02Q234.62-2.44 234.89-2.90Q235.16-3.35 235.57-3.96L235.57-3.96L237.34-6.55L239.62-6.55L234.76 0.51L234.76-0.95L239.91 6.55L237.57 6.55L235.43 3.42Q235.06 2.87 234.82 2.48Q234.57 2.09 234.36 1.71Q234.16 1.34 233.90 0.83L233.90 0.83L234.28 0.83Q234.03 1.32 233.82 1.70Q233.60 2.07 233.36 2.47Q233.11 2.87 232.73 3.42L232.73 3.42L230.56 6.55ZM251.03 6.77L251.03 6.77Q249.57 6.77 248.48 6.30Q247.40 5.84 246.79 4.97Q246.18 4.10 246.12 2.91L246.12 2.91L248.13 2.91Q248.19 3.62 248.59 4.09Q248.99 4.55 249.64 4.78Q250.28 5.01 251.02 5.01L251.02 5.01Q251.86 5.01 252.51 4.75Q253.15 4.49 253.53 4.01Q253.91 3.53 253.91 2.90L253.91 2.90Q253.91 2.33 253.58 1.96Q253.25 1.60 252.69 1.36Q252.13 1.12 251.42 0.93L251.42 0.93L249.89 0.51Q248.28 0.08 247.38-0.76Q246.48-1.61 246.48-2.95L246.48-2.95Q246.48-4.09 247.09-4.94Q247.70-5.78 248.75-6.25Q249.80-6.72 251.12-6.72L251.12-6.72Q252.47-6.72 253.49-6.25Q254.51-5.78 255.10-4.97Q255.68-4.15 255.71-3.10L255.71-3.10L253.76-3.10Q253.66-4.00 252.93-4.49Q252.19-4.98 251.08-4.98L251.08-4.98Q250.29-4.98 249.70-4.74Q249.12-4.49 248.80-4.06Q248.48-3.62 248.48-3.07L248.48-3.07Q248.48-2.44 248.86-2.06Q249.24-1.68 249.79-1.45Q250.34-1.23 250.84-1.10L250.84-1.10L252.11-0.76Q252.74-0.61 253.40-0.34Q254.07-0.07 254.63 0.36Q255.19 0.78 255.54 1.41Q255.88 2.04 255.88 2.93L255.88 2.93Q255.88 4.03 255.31 4.90Q254.74 5.77 253.66 6.27Q252.57 6.77 251.03 6.77ZM271.36 6.55L263.07 6.55L263.07-6.55L271.31-6.55L271.31-4.83L265.07-4.83L265.07-0.92L270.86-0.92L270.86 0.79L265.07 0.79L265.07 4.83L271.36 4.83L271.36 6.55ZM280.72 6.55L278.72 6.55L278.72-6.55L283.41-6.55Q284.92-6.55 285.93-6.02Q286.95-5.50 287.45-4.57Q287.95-3.64 287.95-2.43L287.95-2.43Q287.95-1.22 287.44-0.31Q286.94 0.60 285.93 1.10Q284.92 1.60 283.39 1.60L283.39 1.60L279.87 1.60L279.87-0.11L283.20-0.11Q284.17-0.11 284.76-0.39Q285.35-0.67 285.64-1.19Q285.92-1.71 285.92-2.43L285.92-2.43Q285.92-3.17 285.64-3.71Q285.35-4.25 284.76-4.54Q284.16-4.83 283.18-4.83L283.18-4.83L280.72-4.83L280.72 6.55ZM288.44 6.55L286.16 6.55L282.99 0.63L285.21 0.63L288.44 6.55ZM301.37 6.55L298.92 6.55L294.18-6.55L296.34-6.55L298.89 0.74Q299.17 1.58 299.54 2.80Q299.90 4.03 300.37 5.69L300.37 5.69L299.95 5.69Q300.41 3.99 300.77 2.79Q301.12 1.58 301.39 0.74L301.39 0.74L303.87-6.55L306.04-6.55L301.37 6.55ZM330.28 6.55L322.34 6.55L322.34-6.55L324.34-6.55L324.34 4.83L330.28 4.83L330.28 6.55ZM338.48 6.55L336.31 6.55L340.97-6.55L343.43-6.55L348.18 6.55L346.01 6.55L343.46-0.74Q343.16-1.63 342.80-2.83Q342.45-4.03 341.98-5.72L341.98-5.72L342.39-5.72Q341.94-4.02 341.58-2.80Q341.23-1.58 340.95-0.74L340.95-0.74L338.48 6.55ZM345.65 3.09L338.84 3.09L338.84 1.42L345.65 1.42L345.65 3.09ZM359.91 6.55L354.88 6.55L354.88-6.55L359.70-6.55Q361.10-6.55 362.01-6.09Q362.93-5.63 363.38-4.86Q363.82-4.08 363.82-3.11L363.82-3.11Q363.82-2.29 363.52-1.74Q363.23-1.18 362.72-0.84Q362.21-0.50 361.61-0.34L361.61-0.34L361.61-0.21Q362.27-0.18 362.89 0.21Q363.52 0.60 363.92 1.31Q364.33 2.01 364.33 3.02L364.33 3.02Q364.33 4.02 363.86 4.82Q363.39 5.62 362.42 6.08Q361.44 6.55 359.91 6.55L359.91 6.55ZM356.88 0.67L356.88 4.83L359.71 4.83Q361.12 4.83 361.73 4.28Q362.35 3.74 362.35 2.93L362.35 2.93Q362.35 2.29 362.03 1.78Q361.72 1.27 361.15 0.97Q360.58 0.67 359.79 0.67L359.79 0.67L356.88 0.67ZM356.88-4.83L356.88-0.88L359.51-0.88Q360.17-0.88 360.70-1.13Q361.24-1.39 361.55-1.85Q361.85-2.32 361.85-2.94L361.85-2.94Q361.85-3.75 361.29-4.29Q360.73-4.83 359.56-4.83L359.56-4.83L356.88-4.83ZM375.89 6.77L375.89 6.77Q374.42 6.77 373.34 6.30Q372.26 5.84 371.65 4.97Q371.04 4.10 370.98 2.91L370.98 2.91L372.99 2.91Q373.05 3.62 373.45 4.09Q373.85 4.55 374.49 4.78Q375.13 5.01 375.88 5.01L375.88 5.01Q376.72 5.01 377.36 4.75Q378.01 4.49 378.39 4.01Q378.76 3.53 378.76 2.90L378.76 2.90Q378.76 2.33 378.44 1.96Q378.11 1.60 377.55 1.36Q376.99 1.12 376.28 0.93L376.28 0.93L374.75 0.51Q373.14 0.08 372.24-0.76Q371.34-1.61 371.34-2.95L371.34-2.95Q371.34-4.09 371.95-4.94Q372.56-5.78 373.61-6.25Q374.66-6.72 375.98-6.72L375.98-6.72Q377.32-6.72 378.35-6.25Q379.37-5.78 379.96-4.97Q380.54-4.15 380.57-3.10L380.57-3.10L378.62-3.10Q378.52-4.00 377.78-4.49Q377.05-4.98 375.93-4.98L375.93-4.98Q375.14-4.98 374.56-4.74Q373.97-4.49 373.65-4.06Q373.33-3.62 373.33-3.07L373.33-3.07Q373.33-2.44 373.72-2.06Q374.10-1.68 374.65-1.45Q375.20-1.23 375.70-1.10L375.70-1.10L376.97-0.76Q377.60-0.61 378.26-0.34Q378.92-0.07 379.49 0.36Q380.05 0.78 380.40 1.41Q380.74 2.04 380.74 2.93L380.74 2.93Q380.74 4.03 380.17 4.90Q379.60 5.77 378.51 6.27Q377.43 6.77 375.89 6.77Z"/></g>

  <!-- Decorative orbit cluster, bottom right -->
  <g transform="translate(1080 540)" fill="none" opacity="0.35">
    <circle r="200" stroke="#F97316" stroke-width="1.2"/>
    <circle r="140" stroke="#06B6D4" stroke-width="1.2"/>
    <circle r="80" stroke="#FAFAFA" stroke-width="0.8" opacity="0.5"/>
    <circle cx="-200" cy="-30" r="5" fill="#F97316"/>
    <circle cx="-140" cy="40" r="3" fill="#06B6D4"/>
  </g>
</svg>