<svg xmlns="http://www.w3.org/2000/svg" viewBox="0 0 1500 500" width="1500" height="500">
  <defs>
    <radialGradient id="glow1" cx="50%" cy="50%" r="50%">
      <stop offset="0%" stop-color="#F97316" stop-opacity="0.12"/>
      <stop offset="100%" stop-color="#F97316" stop-opacity="0"/>
    </radialGradient>
    <radialGradient id="glow2" cx="50%" cy="50%" r="50%">
      <stop offset="0%" stop-color="#06B6D4" stop-opacity="0.08"/>
      <stop offset="100%" stop-color="#06B6D4" stop-opacity="0"/>
    </radialGradient>
  </defs>

  <rect width="1500" height="500" fill="#0A0A0A"/>
  <circle cx="1280" cy="180" r="380" fill="url(#glow1)"/>
  <circle cx="280" cy="380" r="320" fill="url(#glow2)"/>

  <!-- Faint grid lines -->
  <g stroke="#161616" stroke-width="1">
    <line x1="0" y1="100" x2="1500" y2="100"/>
    <line x1="0" y1="400" x2="1500" y2="400"/>
    <line x1="500" y1="0" x2="500" y2="500"/>
    <line x1="1000" y1="0" x2="1000" y2="500"/>
  </g>

  <!-- Headline (right side, clear of profile pic overlay) -->
  <g transform="translate(500 200)" fill="#FAFAFA"><path d="M21.59 23.91L21.59 23.91Q15.78 23.91 11.47 22.16Q7.16 20.41 4.75 16.84Q2.34 13.28 2.25 7.91L2.25 7.91L12.84 7.91Q13 10.16 14.08 11.69Q15.16 13.22 17.05 13.98Q18.94 14.75 21.47 14.75L21.47 14.75Q23.75 14.75 25.41 14.13Q27.06 13.50 27.95 12.38Q28.84 11.25 28.84 9.75L28.84 9.75Q28.84 8.41 28.02 7.47Q27.19 6.53 25.53 5.81Q23.88 5.09 21.31 4.53L21.31 4.53L16.38 3.38Q10.34 2 6.91-1.13Q3.47-4.25 3.47-9.50L3.47-9.50Q3.47-13.81 5.81-17.06Q8.16-20.31 12.23-22.11Q16.31-23.91 21.59-23.91L21.59-23.91Q27-23.91 30.97-22.08Q34.94-20.25 37.13-16.98Q39.31-13.72 39.38-9.41L39.38-9.41L28.78-9.41Q28.56-11.94 26.72-13.34Q24.88-14.75 21.56-14.75L21.56-14.75Q19.38-14.75 17.88-14.17Q16.38-13.59 15.63-12.58Q14.88-11.56 14.88-10.25L14.88-10.25Q14.88-8.81 15.72-7.83Q16.56-6.84 18.13-6.19Q19.69-5.53 21.75-5.06L21.75-5.06L25.78-4.13Q29.16-3.41 31.80-2.17Q34.44-0.94 36.27 0.78Q38.09 2.50 39.05 4.75Q40 7 40 9.78L40 9.78Q40 14.19 37.80 17.36Q35.59 20.53 31.48 22.22Q27.38 23.91 21.59 23.91ZM62.06 23.94L62.06 23.94Q56.59 23.94 52.66 21.67Q48.72 19.41 46.61 15.36Q44.50 11.31 44.50 5.94L44.50 5.94Q44.50 0.53 46.61-3.52Q48.72-7.56 52.66-9.83Q56.59-12.09 62.06-12.09L62.06-12.09Q67.53-12.09 71.47-9.83Q75.41-7.56 77.50-3.52Q79.59 0.53 79.59 5.94L79.59 5.94Q79.59 11.31 77.50 15.36Q75.41 19.41 71.47 21.67Q67.53 23.94 62.06 23.94ZM62.06 15.59L62.06 15.59Q64.16 15.59 65.59 14.38Q67.03 13.16 67.77 10.97Q68.50 8.78 68.50 5.88L68.50 5.88Q68.50 2.97 67.77 0.80Q67.03-1.38 65.59-2.56Q64.16-3.75 62.06-3.75L62.06-3.75Q59.97-3.75 58.53-2.56Q57.09-1.38 56.36 0.80Q55.63 2.97 55.63 5.88L55.63 5.88Q55.63 8.78 56.36 10.97Q57.09 13.16 58.53 14.38Q59.97 15.59 62.06 15.59ZM82.50-11.66L106.22-11.66L106.22-3.56L82.50-3.56L82.50-11.66ZM99.22 23.28L88.38 23.28L88.38-13.53Q88.38-17.53 89.88-20.19Q91.38-22.84 94.06-24.16Q96.75-25.47 100.25-25.47L100.25-25.47Q102.56-25.47 104.61-25.11Q106.66-24.75 107.59-24.47L107.59-24.47L105.84-16.50Q105.22-16.66 104.38-16.80Q103.53-16.94 102.69-16.94L102.69-16.94Q100.75-16.94 99.98-16.05Q99.22-15.16 99.22-13.63L99.22-13.63L99.22 23.28ZM108.72-11.66L130.53-11.66L130.53-3.56L108.72-3.56L108.72-11.66ZM113.34 13.56L113.34-19.97L124.25-19.97L124.25 12.59Q124.25 13.97 124.91 14.64Q125.56 15.31 127.03 15.31L127.03 15.31Q127.59 15.31 128.61 15.19Q129.63 15.06 130.06 14.94L130.06 14.94L131.47 22.88Q129.63 23.41 127.91 23.59Q126.19 23.78 124.66 23.78L124.66 23.78Q119.09 23.78 116.22 21.17Q113.34 18.56 113.34 13.56L113.34 13.56ZM154.31 23.28L143.19 23.28L133-11.66L144.41-11.66L146.97 0.31Q147.69 3.91 148.56 8.05Q149.44 12.19 150.13 17.09L150.13 17.09L149 17.09Q149.78 12.22 150.75 8.08Q151.72 3.94 152.53 0.31L152.53 0.31L155.31-11.66L165-11.66L167.69 0.31Q168.47 3.94 169.44 8.06Q170.41 12.19 171.19 17.09L171.19 17.09L170.13 17.09Q170.78 12.22 171.59 8.09Q172.41 3.97 173.16 0.31L173.16 0.31L175.69-11.66L187.28-11.66L177 23.28L165.88 23.28L162.25 10.75Q161.75 8.91 161.22 6.47Q160.69 4.03 160.19 1.52Q159.69-1 159.19-3L159.19-3L161-3Q160.53-1 160.02 1.52Q159.50 4.03 158.98 6.48Q158.47 8.94 157.94 10.75L157.94 10.75L154.31 23.28ZM201.13 23.91L201.13 23.91Q197.78 23.91 195.17 22.77Q192.56 21.63 191.09 19.33Q189.63 17.03 189.63 13.59L189.63 13.59Q189.63 10.69 190.64 8.69Q191.66 6.69 193.47 5.44Q195.28 4.19 197.63 3.53Q199.97 2.88 202.63 2.66L202.63 2.66Q205.59 2.41 207.41 2.11Q209.22 1.81 210.06 1.22Q210.91 0.63 210.91-0.44L210.91-0.44L210.91-0.56Q210.91-1.78 210.34-2.63Q209.78-3.47 208.72-3.91Q207.66-4.34 206.16-4.34L206.16-4.34Q204.66-4.34 203.48-3.91Q202.31-3.47 201.56-2.66Q200.81-1.84 200.50-0.75L200.50-0.75L190.63-2.03Q191.31-5.03 193.33-7.30Q195.34-9.56 198.61-10.83Q201.88-12.09 206.25-12.09L206.25-12.09Q209.50-12.09 212.33-11.33Q215.16-10.56 217.28-9.08Q219.41-7.59 220.59-5.42Q221.78-3.25 221.78-0.44L221.78-0.44L221.78 23.28L211.53 23.28L211.53 18.38L211.25 18.38Q210.31 20.19 208.86 21.41Q207.41 22.63 205.48 23.27Q203.56 23.91 201.13 23.91ZM204.44 16.69L204.44 16.69Q206.28 16.69 207.77 15.94Q209.25 15.19 210.13 13.88Q211 12.56 211 10.84L211 10.84L211 7.50Q210.53 7.75 209.83 7.97Q209.13 8.19 208.28 8.36Q207.44 8.53 206.59 8.67Q205.75 8.81 204.97 8.94L204.97 8.94Q203.38 9.16 202.25 9.69Q201.13 10.22 200.53 11.06Q199.94 11.91 199.94 13.09L199.94 13.09Q199.94 14.25 200.53 15.05Q201.13 15.84 202.13 16.27Q203.13 16.69 204.44 16.69ZM239.91 23.28L229 23.28L229-11.66L239.59-11.66L239.59-5.28L239.97-5.28Q240.91-8.75 243.08-10.42Q245.25-12.09 248.13-12.09L248.13-12.09Q248.88-12.09 249.70-12Q250.53-11.91 251.22-11.72L251.22-11.72L251.22-2.22Q250.44-2.50 249.17-2.64Q247.91-2.78 246.91-2.78L246.91-2.78Q244.91-2.78 243.31-1.89Q241.72-1 240.81 0.56Q239.91 2.13 239.91 4.22L239.91 4.22L239.91 23.28ZM272.16 23.94L272.16 23.94Q266.69 23.94 262.72 21.77Q258.75 19.59 256.64 15.56Q254.53 11.53 254.53 5.94L254.53 5.94Q254.53 0.56 256.64-3.50Q258.75-7.56 262.63-9.83Q266.50-12.09 271.75-12.09L271.75-12.09Q275.44-12.09 278.52-10.94Q281.59-9.78 283.86-7.52Q286.13-5.25 287.36-1.94Q288.59 1.38 288.59 5.72L288.59 5.72L288.59 8.47L258.41 8.47L258.41 2.13L283.41 2.13L278.31 3.63Q278.31 1.19 277.58-0.56Q276.84-2.31 275.41-3.25Q273.97-4.19 271.84-4.19L271.84-4.19Q269.72-4.19 268.25-3.23Q266.78-2.28 266.02-0.58Q265.25 1.13 265.25 3.41L265.25 3.41L265.25 7.97Q265.25 10.66 266.14 12.45Q267.03 14.25 268.63 15.14Q270.22 16.03 272.34 16.03L272.34 16.03Q273.81 16.03 275.02 15.63Q276.22 15.22 277.08 14.41Q277.94 13.59 278.38 12.44L278.38 12.44L288.09 14.03Q287.22 17.03 285.08 19.27Q282.94 21.50 279.67 22.72Q276.41 23.94 272.16 23.94ZM305.34-11.66L329.06-11.66L329.06-3.56L305.34-3.56L305.34-11.66ZM322.06 23.28L311.22 23.28L311.22-13.53Q311.22-17.53 312.72-20.19Q314.22-22.84 316.91-24.16Q319.59-25.47 323.09-25.47L323.09-25.47Q325.41-25.47 327.45-25.11Q329.50-24.75 330.44-24.47L330.44-24.47L328.69-16.50Q328.06-16.66 327.22-16.80Q326.38-16.94 325.53-16.94L325.53-16.94Q323.59-16.94 322.83-16.05Q322.06-15.16 322.06-13.63L322.06-13.63L322.06 23.28ZM350.75 23.94L350.75 23.94Q345.28 23.94 341.34 21.67Q337.41 19.41 335.30 15.36Q333.19 11.31 333.19 5.94L333.19 5.94Q333.19 0.53 335.30-3.52Q337.41-7.56 341.34-9.83Q345.28-12.09 350.75-12.09L350.75-12.09Q356.22-12.09 360.16-9.83Q364.09-7.56 366.19-3.52Q368.28 0.53 368.28 5.94L368.28 5.94Q368.28 11.31 366.19 15.36Q364.09 19.41 360.16 21.67Q356.22 23.94 350.75 23.94ZM350.75 15.59L350.75 15.59Q352.84 15.59 354.28 14.38Q355.72 13.16 356.45 10.97Q357.19 8.78 357.19 5.88L357.19 5.88Q357.19 2.97 356.45 0.80Q355.72-1.38 354.28-2.56Q352.84-3.75 350.75-3.75L350.75-3.75Q348.66-3.75 347.22-2.56Q345.78-1.38 345.05 0.80Q344.31 2.97 344.31 5.88L344.31 5.88Q344.31 8.78 345.05 10.97Q345.78 13.16 347.22 14.38Q348.66 15.59 350.75 15.59ZM385.06 23.28L374.16 23.28L374.16-11.66L384.75-11.66L384.75-5.28L385.13-5.28Q386.06-8.75 388.23-10.42Q390.41-12.09 393.28-12.09L393.28-12.09Q394.03-12.09 394.86-12Q395.69-11.91 396.38-11.72L396.38-11.72L396.38-2.22Q395.59-2.50 394.33-2.64Q393.06-2.78 392.06-2.78L392.06-2.78Q390.06-2.78 388.47-1.89Q386.88-1 385.97 0.56Q385.06 2.13 385.06 4.22L385.06 4.22L385.06 23.28ZM412.06-11.66L433.88-11.66L433.88-3.56L412.06-3.56L412.06-11.66ZM416.69 13.56L416.69-19.97L427.59-19.97L427.59 12.59Q427.59 13.97 428.25 14.64Q428.91 15.31 430.38 15.31L430.38 15.31Q430.94 15.31 431.95 15.19Q432.97 15.06 433.41 14.94L433.41 14.94L434.81 22.88Q432.97 23.41 431.25 23.59Q429.53 23.78 428 23.78L428 23.78Q422.44 23.78 419.56 21.17Q416.69 18.56 416.69 13.56L416.69 13.56ZM450.38 3.34L450.38 3.34L450.38 23.28L439.47 23.28L439.47-23.28L450.16-23.28L450.16-2.84L449.47-2.84Q450.75-7 453.48-9.55Q456.22-12.09 460.84-12.09L460.84-12.09Q464.50-12.09 467.22-10.47Q469.94-8.84 471.44-5.88Q472.94-2.91 472.94 1.03L472.94 1.03L472.94 23.28L462.03 23.28L462.03 3.16Q462.03 0.22 460.53-1.45Q459.03-3.13 456.34-3.13L456.34-3.13Q454.59-3.13 453.23-2.36Q451.88-1.59 451.13-0.16Q450.38 1.28 450.38 3.34ZM496.41 23.94L496.41 23.94Q490.94 23.94 486.97 21.77Q483 19.59 480.89 15.56Q478.78 11.53 478.78 5.94L478.78 5.94Q478.78 0.56 480.89-3.50Q483-7.56 486.88-9.83Q490.75-12.09 496-12.09L496-12.09Q499.69-12.09 502.77-10.94Q505.84-9.78 508.11-7.52Q510.38-5.25 511.61-1.94Q512.84 1.38 512.84 5.72L512.84 5.72L512.84 8.47L482.66 8.47L482.66 2.13L507.66 2.13L502.56 3.63Q502.56 1.19 501.83-0.56Q501.09-2.31 499.66-3.25Q498.22-4.19 496.09-4.19L496.09-4.19Q493.97-4.19 492.50-3.23Q491.03-2.28 490.27-0.58Q489.50 1.13 489.50 3.41L489.50 3.41L489.50 7.97Q489.50 10.66 490.39 12.45Q491.28 14.25 492.88 15.14Q494.47 16.03 496.59 16.03L496.59 16.03Q498.06 16.03 499.27 15.63Q500.47 15.22 501.33 14.41Q502.19 13.59 502.63 12.44L502.63 12.44L512.34 14.03Q511.47 17.03 509.33 19.27Q507.19 21.50 503.92 22.72Q500.66 23.94 496.41 23.94ZM543.47 23.28L532.56 23.28L532.56-11.66L543.47-11.66L543.47 23.28ZM538-15.75L538-15.75Q535.69-15.75 534.03-17.30Q532.38-18.84 532.38-21L532.38-21Q532.38-23.19 534.03-24.72Q535.69-26.25 538-26.25L538-26.25Q540.34-26.25 542-24.73Q543.66-23.22 543.66-21L543.66-21Q543.66-18.81 542-17.28Q540.34-15.75 538-15.75ZM561.59 3.34L561.59 3.34L561.59 23.28L550.69 23.28L550.69-11.66L560.94-11.66L561.16-2.84L560.69-2.84Q561.97-7 564.70-9.55Q567.44-12.09 572.06-12.09L572.06-12.09Q575.72-12.09 578.44-10.47Q581.16-8.84 582.66-5.88Q584.16-2.91 584.16 1.03L584.16 1.03L584.16 23.28L573.25 23.28L573.25 3.16Q573.25 0.22 571.75-1.45Q570.25-3.13 567.56-3.13L567.56-3.13Q565.81-3.13 564.45-2.36Q563.09-1.59 562.34-0.16Q561.59 1.28 561.59 3.34ZM604 23.78L604 23.78Q600.13 23.78 596.94 21.77Q593.75 19.75 591.88 15.77Q590 11.78 590 5.84L590 5.84Q590-0.28 591.95-4.27Q593.91-8.25 597.08-10.17Q600.25-12.09 603.91-12.09L603.91-12.09Q606.69-12.09 608.66-11.14Q610.63-10.19 611.89-8.72Q613.16-7.25 613.81-5.66L613.81-5.66L614.06-5.66L614.06-23.28L624.94-23.28L624.94 23.28L614.19 23.28L614.19 17.63L613.81 17.63Q613.13 19.19 611.83 20.59Q610.53 22 608.61 22.89Q606.69 23.78 604 23.78ZM607.72 15.28L607.72 15.28Q609.78 15.28 611.27 14.11Q612.75 12.94 613.53 10.81Q614.31 8.69 614.31 5.84L614.31 5.84Q614.31 2.94 613.53 0.83Q612.75-1.28 611.27-2.42Q609.78-3.56 607.72-3.56L607.72-3.56Q605.63-3.56 604.17-2.39Q602.72-1.22 601.97 0.89Q601.22 3 601.22 5.84L601.22 5.84Q601.22 8.66 601.97 10.80Q602.72 12.94 604.17 14.11Q605.63 15.28 607.72 15.28ZM644.28 23.72L644.28 23.72Q640.63 23.72 637.89 22.09Q635.16 20.47 633.66 17.50Q632.16 14.53 632.16 10.59L632.16 10.59L632.16-11.66L643.06-11.66L643.06 8.47Q643.06 11.41 644.58 13.08Q646.09 14.75 648.75 14.75L648.75 14.75Q650.56 14.75 651.89 13.98Q653.22 13.22 653.97 11.77Q654.72 10.31 654.72 8.28L654.72 8.28L654.72-11.66L665.63-11.66L665.63 23.28L655.38 23.28L655.19 14.47L655.66 14.47Q654.34 18.66 651.59 21.19Q648.84 23.72 644.28 23.72ZM687.53 23.94L687.53 23.94Q683.06 23.94 679.63 22.67Q676.19 21.41 674.03 19.02Q671.88 16.63 671.25 13.28L671.25 13.28L681.38 11.69Q682.03 13.97 683.59 15.13Q685.16 16.28 687.94 16.28L687.94 16.28Q690.22 16.28 691.53 15.48Q692.84 14.69 692.84 13.38L692.84 13.38Q692.84 12.16 691.80 11.42Q690.75 10.69 688.56 10.25L688.56 10.25L682.47 9.06Q677.28 8.06 674.70 5.55Q672.13 3.03 672.13-1L672.13-1Q672.13-4.50 674.02-6.97Q675.91-9.44 679.36-10.77Q682.81-12.09 687.50-12.09L687.50-12.09Q691.88-12.09 695.11-10.92Q698.34-9.75 700.33-7.58Q702.31-5.41 702.91-2.41L702.91-2.41L693.28-0.88Q692.81-2.63 691.36-3.61Q689.91-4.59 687.69-4.59L687.69-4.59Q685.72-4.59 684.36-3.80Q683-3 683-1.66L683-1.66Q683-0.59 683.84 0.20Q684.69 1 686.94 1.44L686.94 1.44L693.63 2.69Q698.81 3.69 701.36 6Q703.91 8.31 703.91 12.13L703.91 12.13Q703.91 15.72 701.80 18.38Q699.69 21.03 696 22.48Q692.31 23.94 687.53 23.94ZM706.53-11.66L728.34-11.66L728.34-3.56L706.53-3.56L706.53-11.66ZM711.16 13.56L711.16-19.97L722.06-19.97L722.06 12.59Q722.06 13.97 722.72 14.64Q723.38 15.31 724.84 15.31L724.84 15.31Q725.41 15.31 726.42 15.19Q727.44 15.06 727.88 14.94L727.88 14.94L729.28 22.88Q727.44 23.41 725.72 23.59Q724 23.78 722.47 23.78L722.47 23.78Q716.91 23.78 714.03 21.17Q711.16 18.56 711.16 13.56L711.16 13.56ZM744.84 23.28L733.94 23.28L733.94-11.66L744.53-11.66L744.53-5.28L744.91-5.28Q745.84-8.75 748.02-10.42Q750.19-12.09 753.06-12.09L753.06-12.09Q753.81-12.09 754.64-12Q755.47-11.91 756.16-11.72L756.16-11.72L756.16-2.22Q755.38-2.50 754.11-2.64Q752.84-2.78 751.84-2.78L751.84-2.78Q749.84-2.78 748.25-1.89Q746.66-1 745.75 0.56Q744.84 2.13 744.84 4.22L744.84 4.22L744.84 23.28ZM771.72 23.28L760.81 23.28L760.81-11.66L771.72-11.66L771.72 23.28ZM766.25-15.75L766.25-15.75Q763.94-15.75 762.28-17.30Q760.63-18.84 760.63-21L760.63-21Q760.63-23.19 762.28-24.72Q763.94-26.25 766.25-26.25L766.25-26.25Q768.59-26.25 770.25-24.73Q771.91-23.22 771.91-21L771.91-21Q771.91-18.81 770.25-17.28Q768.59-15.75 766.25-15.75ZM795.22 23.94L795.22 23.94Q789.75 23.94 785.78 21.77Q781.81 19.59 779.70 15.56Q777.59 11.53 777.59 5.94L777.59 5.94Q777.59 0.56 779.70-3.50Q781.81-7.56 785.69-9.83Q789.56-12.09 794.81-12.09L794.81-12.09Q798.50-12.09 801.58-10.94Q804.66-9.78 806.92-7.52Q809.19-5.25 810.42-1.94Q811.66 1.38 811.66 5.72L811.66 5.72L811.66 8.47L781.47 8.47L781.47 2.13L806.47 2.13L801.38 3.63Q801.38 1.19 800.64-0.56Q799.91-2.31 798.47-3.25Q797.03-4.19 794.91-4.19L794.91-4.19Q792.78-4.19 791.31-3.23Q789.84-2.28 789.08-0.58Q788.31 1.13 788.31 3.41L788.31 3.41L788.31 7.97Q788.31 10.66 789.20 12.45Q790.09 14.25 791.69 15.14Q793.28 16.03 795.41 16.03L795.41 16.03Q796.88 16.03 798.08 15.63Q799.28 15.22 800.14 14.41Q801 13.59 801.44 12.44L801.44 12.44L811.16 14.03Q810.28 17.03 808.14 19.27Q806 21.50 802.73 22.72Q799.47 23.94 795.22 23.94ZM832.09 23.94L832.09 23.94Q827.63 23.94 824.19 22.67Q820.75 21.41 818.59 19.02Q816.44 16.63 815.81 13.28L815.81 13.28L825.94 11.69Q826.59 13.97 828.16 15.13Q829.72 16.28 832.50 16.28L832.50 16.28Q834.78 16.28 836.09 15.48Q837.41 14.69 837.41 13.38L837.41 13.38Q837.41 12.16 836.36 11.42Q835.31 10.69 833.13 10.25L833.13 10.25L827.03 9.06Q821.84 8.06 819.27 5.55Q816.69 3.03 816.69-1L816.69-1Q816.69-4.50 818.58-6.97Q820.47-9.44 823.92-10.77Q827.38-12.09 832.06-12.09L832.06-12.09Q836.44-12.09 839.67-10.92Q842.91-9.75 844.89-7.58Q846.88-5.41 847.47-2.41L847.47-2.41L837.84-0.88Q837.38-2.63 835.92-3.61Q834.47-4.59 832.25-4.59L832.25-4.59Q830.28-4.59 828.92-3.80Q827.56-3 827.56-1.66L827.56-1.66Q827.56-0.59 828.41 0.20Q829.25 1 831.50 1.44L831.50 1.44L838.19 2.69Q843.38 3.69 845.92 6Q848.47 8.31 848.47 12.13L848.47 12.13Q848.47 15.72 846.36 18.38Q844.25 21.03 840.56 22.48Q836.88 23.94 832.09 23.94Z"/></g>
  <g transform="translate(500 280)" fill="#FAFAFA"><path d="M0.63-11.66L22.44-11.66L22.44-3.56L0.63-3.56L0.63-11.66ZM5.25 13.56L5.25-19.97L16.16-19.97L16.16 12.59Q16.16 13.97 16.81 14.64Q17.47 15.31 18.94 15.31L18.94 15.31Q19.50 15.31 20.52 15.19Q21.53 15.06 21.97 14.94L21.97 14.94L23.38 22.88Q21.53 23.41 19.81 23.59Q18.09 23.78 16.56 23.78L16.56 23.78Q11 23.78 8.13 21.17Q5.25 18.56 5.25 13.56L5.25 13.56ZM38.94 3.34L38.94 3.34L38.94 23.28L28.03 23.28L28.03-23.28L38.72-23.28L38.72-2.84L38.03-2.84Q39.31-7 42.05-9.55Q44.78-12.09 49.41-12.09L49.41-12.09Q53.06-12.09 55.78-10.47Q58.50-8.84 60-5.88Q61.50-2.91 61.50 1.03L61.50 1.03L61.50 23.28L50.59 23.28L50.59 3.16Q50.59 0.22 49.09-1.45Q47.59-3.13 44.91-3.13L44.91-3.13Q43.16-3.13 41.80-2.36Q40.44-1.59 39.69-0.16Q38.94 1.28 38.94 3.34ZM78.47 23.91L78.47 23.91Q75.13 23.91 72.52 22.77Q69.91 21.63 68.44 19.33Q66.97 17.03 66.97 13.59L66.97 13.59Q66.97 10.69 67.98 8.69Q69 6.69 70.81 5.44Q72.63 4.19 74.97 3.53Q77.31 2.88 79.97 2.66L79.97 2.66Q82.94 2.41 84.75 2.11Q86.56 1.81 87.41 1.22Q88.25 0.63 88.25-0.44L88.25-0.44L88.25-0.56Q88.25-1.78 87.69-2.63Q87.13-3.47 86.06-3.91Q85-4.34 83.50-4.34L83.50-4.34Q82-4.34 80.83-3.91Q79.66-3.47 78.91-2.66Q78.16-1.84 77.84-0.75L77.84-0.75L67.97-2.03Q68.66-5.03 70.67-7.30Q72.69-9.56 75.95-10.83Q79.22-12.09 83.59-12.09L83.59-12.09Q86.84-12.09 89.67-11.33Q92.50-10.56 94.63-9.08Q96.75-7.59 97.94-5.42Q99.13-3.25 99.13-0.44L99.13-0.44L99.13 23.28L88.88 23.28L88.88 18.38L88.59 18.38Q87.66 20.19 86.20 21.41Q84.75 22.63 82.83 23.27Q80.91 23.91 78.47 23.91ZM81.78 16.69L81.78 16.69Q83.63 16.69 85.11 15.94Q86.59 15.19 87.47 13.88Q88.34 12.56 88.34 10.84L88.34 10.84L88.34 7.50Q87.88 7.75 87.17 7.97Q86.47 8.19 85.63 8.36Q84.78 8.53 83.94 8.67Q83.09 8.81 82.31 8.94L82.31 8.94Q80.72 9.16 79.59 9.69Q78.47 10.22 77.88 11.06Q77.28 11.91 77.28 13.09L77.28 13.09Q77.28 14.25 77.88 15.05Q78.47 15.84 79.47 16.27Q80.47 16.69 81.78 16.69ZM103.38-11.66L125.19-11.66L125.19-3.56L103.38-3.56L103.38-11.66ZM108 13.56L108-19.97L118.91-19.97L118.91 12.59Q118.91 13.97 119.56 14.64Q120.22 15.31 121.69 15.31L121.69 15.31Q122.25 15.31 123.27 15.19Q124.28 15.06 124.72 14.94L124.72 14.94L126.13 22.88Q124.28 23.41 122.56 23.59Q120.84 23.78 119.31 23.78L119.31 23.78Q113.75 23.78 110.88 21.17Q108 18.56 108 13.56L108 13.56ZM155.69 23.28L144.78 23.28L144.78-11.66L154.81-11.66L155.44-2.59L154.69-2.59Q155.50-6 157.11-8.09Q158.72-10.19 160.86-11.16Q163-12.13 165.38-12.13L165.38-12.13Q169.13-12.13 171.42-9.72Q173.72-7.31 174.97-1.84L174.97-1.84L173.75-1.84Q174.59-5.50 176.41-7.78Q178.22-10.06 180.66-11.09Q183.09-12.13 185.72-12.13L185.72-12.13Q189-12.13 191.52-10.70Q194.03-9.28 195.47-6.64Q196.91-4 196.91-0.28L196.91-0.28L196.91 23.28L186.03 23.28L186.03 2.19Q186.03-0.47 184.64-1.84Q183.25-3.22 181.09-3.22L181.09-3.22Q179.56-3.22 178.42-2.53Q177.28-1.84 176.69-0.61Q176.09 0.63 176.09 2.31L176.09 2.31L176.09 23.28L165.63 23.28L165.63 2.03Q165.63-0.38 164.28-1.80Q162.94-3.22 160.75-3.22L160.75-3.22Q159.25-3.22 158.11-2.53Q156.97-1.84 156.33-0.58Q155.69 0.69 155.69 2.53L155.69 2.53L155.69 23.28ZM220.34 23.94L220.34 23.94Q214.88 23.94 210.94 21.67Q207 19.41 204.89 15.36Q202.78 11.31 202.78 5.94L202.78 5.94Q202.78 0.53 204.89-3.52Q207-7.56 210.94-9.83Q214.88-12.09 220.34-12.09L220.34-12.09Q225.81-12.09 229.75-9.83Q233.69-7.56 235.78-3.52Q237.88 0.53 237.88 5.94L237.88 5.94Q237.88 11.31 235.78 15.36Q233.69 19.41 229.75 21.67Q225.81 23.94 220.34 23.94ZM220.34 15.59L220.34 15.59Q222.44 15.59 223.88 14.38Q225.31 13.16 226.05 10.97Q226.78 8.78 226.78 5.88L226.78 5.88Q226.78 2.97 226.05 0.80Q225.31-1.38 223.88-2.56Q222.44-3.75 220.34-3.75L220.34-3.75Q218.25-3.75 216.81-2.56Q215.38-1.38 214.64 0.80Q213.91 2.97 213.91 5.88L213.91 5.88Q213.91 8.78 214.64 10.97Q215.38 13.16 216.81 14.38Q218.25 15.59 220.34 15.59ZM266.13 23.28L253.50 23.28L240.84-11.66L252.34-11.66L257.56 5.44Q258.63 8.88 259.41 12.47Q260.19 16.06 261 20.06L261 20.06L259 20.06Q259.78 16.06 260.55 12.48Q261.31 8.91 262.34 5.44L262.34 5.44L267.47-11.66L278.84-11.66L266.13 23.28ZM299.41 23.94L299.41 23.94Q293.94 23.94 289.97 21.77Q286 19.59 283.89 15.56Q281.78 11.53 281.78 5.94L281.78 5.94Q281.78 0.56 283.89-3.50Q286-7.56 289.88-9.83Q293.75-12.09 299-12.09L299-12.09Q302.69-12.09 305.77-10.94Q308.84-9.78 311.11-7.52Q313.38-5.25 314.61-1.94Q315.84 1.38 315.84 5.72L315.84 5.72L315.84 8.47L285.66 8.47L285.66 2.13L310.66 2.13L305.56 3.63Q305.56 1.19 304.83-0.56Q304.09-2.31 302.66-3.25Q301.22-4.19 299.09-4.19L299.09-4.19Q296.97-4.19 295.50-3.23Q294.03-2.28 293.27-0.58Q292.50 1.13 292.50 3.41L292.50 3.41L292.50 7.97Q292.50 10.66 293.39 12.45Q294.28 14.25 295.88 15.14Q297.47 16.03 299.59 16.03L299.59 16.03Q301.06 16.03 302.27 15.63Q303.47 15.22 304.33 14.41Q305.19 13.59 305.63 12.44L305.63 12.44L315.34 14.03Q314.47 17.03 312.33 19.27Q310.19 21.50 306.92 22.72Q303.66 23.94 299.41 23.94ZM332.59-11.66L354.41-11.66L354.41-3.56L332.59-3.56L332.59-11.66ZM337.22 13.56L337.22-19.97L348.13-19.97L348.13 12.59Q348.13 13.97 348.78 14.64Q349.44 15.31 350.91 15.31L350.91 15.31Q351.47 15.31 352.48 15.19Q353.50 15.06 353.94 14.94L353.94 14.94L355.34 22.88Q353.50 23.41 351.78 23.59Q350.06 23.78 348.53 23.78L348.53 23.78Q342.97 23.78 340.09 21.17Q337.22 18.56 337.22 13.56L337.22 13.56ZM370.91 3.34L370.91 3.34L370.91 23.28L360 23.28L360-23.28L370.69-23.28L370.69-2.84L370-2.84Q371.28-7 374.02-9.55Q376.75-12.09 381.38-12.09L381.38-12.09Q385.03-12.09 387.75-10.47Q390.47-8.84 391.97-5.88Q393.47-2.91 393.47 1.03L393.47 1.03L393.47 23.28L382.56 23.28L382.56 3.16Q382.56 0.22 381.06-1.45Q379.56-3.13 376.88-3.13L376.88-3.13Q375.13-3.13 373.77-2.36Q372.41-1.59 371.66-0.16Q370.91 1.28 370.91 3.34ZM416.94 23.94L416.94 23.94Q411.47 23.94 407.50 21.77Q403.53 19.59 401.42 15.56Q399.31 11.53 399.31 5.94L399.31 5.94Q399.31 0.56 401.42-3.50Q403.53-7.56 407.41-9.83Q411.28-12.09 416.53-12.09L416.53-12.09Q420.22-12.09 423.30-10.94Q426.38-9.78 428.64-7.52Q430.91-5.25 432.14-1.94Q433.38 1.38 433.38 5.72L433.38 5.72L433.38 8.47L403.19 8.47L403.19 2.13L428.19 2.13L423.09 3.63Q423.09 1.19 422.36-0.56Q421.63-2.31 420.19-3.25Q418.75-4.19 416.63-4.19L416.63-4.19Q414.50-4.19 413.03-3.23Q411.56-2.28 410.80-0.58Q410.03 1.13 410.03 3.41L410.03 3.41L410.03 7.97Q410.03 10.66 410.92 12.45Q411.81 14.25 413.41 15.14Q415 16.03 417.13 16.03L417.13 16.03Q418.59 16.03 419.80 15.63Q421 15.22 421.86 14.41Q422.72 13.59 423.16 12.44L423.16 12.44L432.88 14.03Q432 17.03 429.86 19.27Q427.72 21.50 424.45 22.72Q421.19 23.94 416.94 23.94ZM471.28 23.28L460.16 23.28L449.97-11.66L461.38-11.66L463.94 0.31Q464.66 3.91 465.53 8.05Q466.41 12.19 467.09 17.09L467.09 17.09L465.97 17.09Q466.75 12.22 467.72 8.08Q468.69 3.94 469.50 0.31L469.50 0.31L472.28-11.66L481.97-11.66L484.66 0.31Q485.44 3.94 486.41 8.06Q487.38 12.19 488.16 17.09L488.16 17.09L487.09 17.09Q487.75 12.22 488.56 8.09Q489.38 3.97 490.13 0.31L490.13 0.31L492.66-11.66L504.25-11.66L493.97 23.28L482.84 23.28L479.22 10.75Q478.72 8.91 478.19 6.47Q477.66 4.03 477.16 1.52Q476.66-1 476.16-3L476.16-3L477.97-3Q477.50-1 476.98 1.52Q476.47 4.03 475.95 6.48Q475.44 8.94 474.91 10.75L474.91 10.75L471.28 23.28ZM524.53 23.94L524.53 23.94Q519.06 23.94 515.13 21.67Q511.19 19.41 509.08 15.36Q506.97 11.31 506.97 5.94L506.97 5.94Q506.97 0.53 509.08-3.52Q511.19-7.56 515.13-9.83Q519.06-12.09 524.53-12.09L524.53-12.09Q530-12.09 533.94-9.83Q537.88-7.56 539.97-3.52Q542.06 0.53 542.06 5.94L542.06 5.94Q542.06 11.31 539.97 15.36Q537.88 19.41 533.94 21.67Q530 23.94 524.53 23.94ZM524.53 15.59L524.53 15.59Q526.63 15.59 528.06 14.38Q529.50 13.16 530.23 10.97Q530.97 8.78 530.97 5.88L530.97 5.88Q530.97 2.97 530.23 0.80Q529.50-1.38 528.06-2.56Q526.63-3.75 524.53-3.75L524.53-3.75Q522.44-3.75 521-2.56Q519.56-1.38 518.83 0.80Q518.09 2.97 518.09 5.88L518.09 5.88Q518.09 8.78 518.83 10.97Q519.56 13.16 521 14.38Q522.44 15.59 524.53 15.59ZM558.84 23.28L547.94 23.28L547.94-11.66L558.53-11.66L558.53-5.28L558.91-5.28Q559.84-8.75 562.02-10.42Q564.19-12.09 567.06-12.09L567.06-12.09Q567.81-12.09 568.64-12Q569.47-11.91 570.16-11.72L570.16-11.72L570.16-2.22Q569.38-2.50 568.11-2.64Q566.84-2.78 565.84-2.78L565.84-2.78Q563.84-2.78 562.25-1.89Q560.66-1 559.75 0.56Q558.84 2.13 558.84 4.22L558.84 4.22L558.84 23.28ZM574.81-23.28L585.72-23.28L585.72 23.28L574.81 23.28L574.81-23.28ZM605.59 23.78L605.59 23.78Q601.72 23.78 598.53 21.77Q595.34 19.75 593.47 15.77Q591.59 11.78 591.59 5.84L591.59 5.84Q591.59-0.28 593.55-4.27Q595.50-8.25 598.67-10.17Q601.84-12.09 605.50-12.09L605.50-12.09Q608.28-12.09 610.25-11.14Q612.22-10.19 613.48-8.72Q614.75-7.25 615.41-5.66L615.41-5.66L615.66-5.66L615.66-23.28L626.53-23.28L626.53 23.28L615.78 23.28L615.78 17.63L615.41 17.63Q614.72 19.19 613.42 20.59Q612.13 22 610.20 22.89Q608.28 23.78 605.59 23.78ZM609.31 15.28L609.31 15.28Q611.38 15.28 612.86 14.11Q614.34 12.94 615.13 10.81Q615.91 8.69 615.91 5.84L615.91 5.84Q615.91 2.94 615.13 0.83Q614.34-1.28 612.86-2.42Q611.38-3.56 609.31-3.56L609.31-3.56Q607.22-3.56 605.77-2.39Q604.31-1.22 603.56 0.89Q602.81 3 602.81 5.84L602.81 5.84Q602.81 8.66 603.56 10.80Q604.31 12.94 605.77 14.11Q607.22 15.28 609.31 15.28ZM641.44 23.94L641.44 23.94Q638.94 23.94 637.23 22.27Q635.53 20.59 635.53 18.13L635.53 18.13Q635.53 15.63 637.23 13.95Q638.94 12.28 641.44 12.28L641.44 12.28Q643.94 12.28 645.64 13.95Q647.34 15.63 647.34 18.13L647.34 18.13Q647.34 20.59 645.64 22.27Q643.94 23.94 641.44 23.94Z"/></g>
  <g transform="translate(500 340)" fill="#F97316"><path d="M6.49 6.55L1.45 6.55L1.45-6.55L6.28-6.55Q7.67-6.55 8.59-6.09Q9.50-5.63 9.95-4.86Q10.40-4.08 10.40-3.11L10.40-3.11Q10.40-2.29 10.10-1.74Q9.80-1.18 9.29-0.84Q8.79-0.50 8.18-0.34L8.18-0.34L8.18-0.21Q8.84-0.18 9.47 0.21Q10.09 0.60 10.50 1.31Q10.91 2.01 10.91 3.02L10.91 3.02Q10.91 4.02 10.44 4.82Q9.97 5.62 8.99 6.08Q8.02 6.55 6.49 6.55L6.49 6.55ZM3.45 0.67L3.45 4.83L6.28 4.83Q7.69 4.83 8.31 4.28Q8.92 3.74 8.92 2.93L8.92 2.93Q8.92 2.29 8.61 1.78Q8.30 1.27 7.73 0.97Q7.15 0.67 6.36 0.67L6.36 0.67L3.45 0.67ZM3.45-4.83L3.45-0.88L6.08-0.88Q6.74-0.88 7.28-1.13Q7.81-1.39 8.12-1.85Q8.43-2.32 8.43-2.94L8.43-2.94Q8.43-3.75 7.87-4.29Q7.30-4.83 6.13-4.83L6.13-4.83L3.45-4.83ZM23.29 6.75L23.29 6.75Q21.72 6.75 20.54 6.14Q19.36 5.54 18.72 4.48Q18.07 3.42 18.07 2.05L18.07 2.05L18.07-6.55L20.07-6.55L20.07 1.88Q20.07 2.77 20.47 3.45Q20.86 4.14 21.58 4.54Q22.30 4.93 23.29 4.93L23.29 4.93Q24.28 4.93 24.99 4.54Q25.71 4.14 26.09 3.45Q26.48 2.77 26.48 1.88L26.48 1.88L26.48-6.55L28.49-6.55L28.49 2.05Q28.49 3.42 27.85 4.48Q27.20 5.54 26.03 6.14Q24.86 6.75 23.29 6.75ZM36.19-6.55L38.20-6.55L38.20 6.55L36.19 6.55L36.19-6.55ZM53.83 6.55L45.90 6.55L45.90-6.55L47.90-6.55L47.90 4.83L53.83 4.83L53.83 6.55ZM65.13 6.55L65.13 6.55L61.89 6.55L61.89 4.79L65.02 4.79Q66.51 4.79 67.49 4.24Q68.48 3.68 68.97 2.61Q69.46 1.53 69.46-0.02L69.46-0.02Q69.46-1.56 68.97-2.62Q68.48-3.68 67.52-4.24Q66.56-4.79 65.13-4.79L65.13-4.79L61.82-4.79L61.82-6.55L65.26-6.55Q67.19-6.55 68.57-5.77Q69.95-4.98 70.69-3.52Q71.43-2.06 71.43-0.02L71.43-0.02Q71.43 2.03 70.69 3.50Q69.94 4.97 68.53 5.76Q67.12 6.55 65.13 6.55ZM60.87-6.55L62.88-6.55L62.88 6.55L60.87 6.55L60.87-6.55ZM78.66-6.55L80.67-6.55L80.67 6.55L78.66 6.55L78.66-6.55ZM90.40 6.55L88.37 6.55L88.37-6.55L90.68-6.55L95.61 1.25Q95.85 1.63 96.16 2.17Q96.47 2.71 96.81 3.38Q97.15 4.05 97.49 4.84L97.49 4.84L97.24 4.84Q97.16 4.10 97.12 3.36Q97.08 2.63 97.07 1.99Q97.05 1.34 97.05 0.91L97.05 0.91L97.05-6.55L99.08-6.55L99.08 6.55L96.76 6.55L92.34-0.42Q91.99-0.99 91.65-1.57Q91.31-2.15 90.90-2.91Q90.49-3.67 89.90-4.76L89.90-4.76L90.22-4.76Q90.26-3.80 90.31-2.96Q90.35-2.12 90.37-1.47Q90.40-0.83 90.40-0.44L90.40-0.44L90.40 6.55ZM112.28 6.72L112.28 6.72Q110.50 6.72 109.16 5.91Q107.82 5.09 107.07 3.58Q106.32 2.07 106.32 0.01L106.32 0.01Q106.32-2.08 107.08-3.59Q107.84-5.10 109.17-5.91Q110.50-6.72 112.19-6.72L112.19-6.72Q113.25-6.72 114.17-6.41Q115.08-6.10 115.81-5.52Q116.53-4.95 117.00-4.15Q117.47-3.36 117.63-2.41L117.63-2.41L115.58-2.41Q115.40-2.98 115.09-3.44Q114.79-3.90 114.36-4.23Q113.93-4.55 113.39-4.72Q112.85-4.90 112.21-4.90L112.21-4.90Q111.10-4.90 110.22-4.33Q109.34-3.77 108.82-2.68Q108.31-1.58 108.31 0L108.31 0Q108.31 1.58 108.82 2.67Q109.34 3.76 110.23 4.33Q111.13 4.90 112.29 4.90L112.29 4.90Q113.34 4.90 114.13 4.47Q114.92 4.04 115.35 3.26Q115.79 2.47 115.79 1.40L115.79 1.40L116.31 1.49L112.58 1.49L112.58-0.17L117.75-0.17L117.75 1.34Q117.75 2.99 117.04 4.20Q116.33 5.41 115.10 6.06Q113.87 6.72 112.28 6.72ZM139.03 6.77L139.03 6.77Q137.56 6.77 136.48 6.30Q135.40 5.84 134.78 4.97Q134.17 4.10 134.11 2.91L134.11 2.91L136.13 2.91Q136.19 3.62 136.59 4.09Q136.99 4.55 137.63 4.78Q138.27 5.01 139.02 5.01L139.02 5.01Q139.85 5.01 140.50 4.75Q141.14 4.49 141.52 4.01Q141.90 3.53 141.90 2.90L141.90 2.90Q141.90 2.33 141.57 1.96Q141.24 1.60 140.68 1.36Q140.12 1.12 139.41 0.93L139.41 0.93L137.88 0.51Q136.27 0.08 135.37-0.76Q134.47-1.61 134.47-2.95L134.47-2.95Q134.47-4.09 135.08-4.94Q135.69-5.78 136.74-6.25Q137.79-6.72 139.11-6.72L139.11-6.72Q140.46-6.72 141.48-6.25Q142.51-5.78 143.09-4.97Q143.67-4.15 143.70-3.10L143.70-3.10L141.75-3.10Q141.65-4.00 140.92-4.49Q140.19-4.98 139.07-4.98L139.07-4.98Q138.28-4.98 137.69-4.74Q137.11-4.49 136.79-4.06Q136.47-3.62 136.47-3.07L136.47-3.07Q136.47-2.44 136.85-2.06Q137.23-1.68 137.78-1.45Q138.33-1.23 138.83-1.10L138.83-1.10L140.11-0.76Q140.73-0.61 141.39-0.34Q142.06-0.07 142.62 0.36Q143.18 0.78 143.53 1.41Q143.88 2.04 143.88 2.93L143.88 2.93Q143.88 4.03 143.31 4.90Q142.73 5.77 141.65 6.27Q140.56 6.77 139.03 6.77ZM151.06-6.55L153.06-6.55L153.06 6.55L151.06 6.55L151.06-6.55ZM162.79 6.55L160.76 6.55L160.76-6.55L163.07-6.55L168.00 1.25Q168.25 1.63 168.56 2.17Q168.86 2.71 169.21 3.38Q169.55 4.05 169.88 4.84L169.88 4.84L169.64 4.84Q169.56 4.10 169.52 3.36Q169.48 2.63 169.46 1.99Q169.44 1.34 169.44 0.91L169.44 0.91L169.44-6.55L171.47-6.55L171.47 6.55L169.15 6.55L164.73-0.42Q164.38-0.99 164.04-1.57Q163.71-2.15 163.30-2.91Q162.89-3.67 162.30-4.76L162.30-4.76L162.62-4.76Q162.66-3.80 162.70-2.96Q162.75-2.12 162.77-1.47Q162.79-0.83 162.79-0.44L162.79-0.44L162.79 6.55ZM184.61 6.72L184.61 6.72Q182.92 6.72 181.58 5.92Q180.25 5.12 179.48 3.61Q178.72 2.10 178.72 0.01L178.72 0.01Q178.72-2.09 179.48-3.60Q180.25-5.11 181.58-5.92Q182.92-6.72 184.61-6.72L184.61-6.72Q185.65-6.72 186.56-6.42Q187.47-6.13 188.19-5.55Q188.90-4.98 189.37-4.17Q189.84-3.35 190.01-2.31L190.01-2.31L188.00-2.31Q187.88-2.94 187.56-3.41Q187.25-3.89 186.80-4.23Q186.35-4.56 185.80-4.73Q185.25-4.90 184.63-4.90L184.63-4.90Q183.51-4.90 182.61-4.33Q181.72-3.76 181.21-2.67Q180.70-1.57 180.70 0.01L180.70 0.01Q180.70 1.59 181.22 2.69Q181.74 3.78 182.63 4.34Q183.52 4.90 184.63 4.90L184.63 4.90Q185.25 4.90 185.80 4.72Q186.35 4.55 186.80 4.22Q187.25 3.89 187.56 3.41Q187.88 2.93 188.00 2.31L188.00 2.31L190.02 2.31Q189.87 3.28 189.41 4.08Q188.96 4.89 188.24 5.48Q187.53 6.08 186.61 6.40Q185.70 6.72 184.61 6.72ZM205.47 6.55L197.17 6.55L197.17-6.55L205.42-6.55L205.42-4.83L199.18-4.83L199.18-0.92L204.97-0.92L204.97 0.79L199.18 0.79L199.18 4.83L205.47 4.83L205.47 6.55ZM230.89 6.55L222.24 6.55L222.24 5.10L226.69 0.50Q227.37-0.22 227.83-0.77Q228.29-1.33 228.52-1.84Q228.76-2.35 228.76-2.93L228.76-2.93Q228.76-3.59 228.46-4.06Q228.16-4.54 227.63-4.79Q227.11-5.04 226.44-5.04L226.44-5.04Q225.75-5.04 225.23-4.76Q224.71-4.47 224.43-3.96Q224.15-3.44 224.15-2.73L224.15-2.73L222.22-2.73Q222.22-3.93 222.78-4.83Q223.33-5.73 224.29-6.23Q225.25-6.72 226.48-6.72L226.48-6.72Q227.72-6.72 228.67-6.23Q229.61-5.74 230.15-4.90Q230.69-4.06 230.69-3.00L230.69-3.00Q230.69-2.28 230.42-1.59Q230.15-0.91 229.48-0.04Q228.81 0.82 227.58 2.05L227.58 2.05L225.02 4.73L225.02 4.83L230.89 4.83L230.89 6.55ZM242.67 6.72L242.67 6.72Q241.15 6.72 240.07 5.93Q239.00 5.14 238.43 3.64Q237.86 2.14 237.86 0.01L237.86 0.01Q237.86-2.12 238.43-3.62Q239.00-5.12 240.08-5.92Q241.15-6.72 242.67-6.72L242.67-6.72Q244.19-6.72 245.27-5.92Q246.35-5.12 246.92-3.62Q247.49-2.12 247.49 0.01L247.49 0.01Q247.49 2.14 246.92 3.64Q246.36 5.14 245.28 5.93Q244.20 6.72 242.67 6.72ZM242.67 5.01L242.67 5.01Q243.58 5.01 244.21 4.42Q244.85 3.82 245.18 2.71Q245.50 1.59 245.50 0.01L245.50 0.01Q245.50-1.58 245.18-2.71Q244.85-3.83 244.21-4.43Q243.58-5.02 242.67-5.02L242.67-5.02Q241.77-5.02 241.14-4.42Q240.50-3.82 240.17-2.70Q239.84-1.58 239.84 0.01L239.84 0.01Q239.84 1.59 240.17 2.71Q240.50 3.82 241.14 4.42Q241.77 5.01 242.67 5.01ZM256.98-6.55L259.30-6.55L259.30 6.55L257.32 6.55L257.32-4.73L257.23-4.73L254.12-2.46L254.12-4.47L256.98-6.55ZM270.89 6.72L270.89 6.72Q269.67 6.72 268.71 6.26Q267.75 5.79 267.18 4.97Q266.62 4.16 266.57 3.12L266.57 3.12L268.52 3.12Q268.57 3.67 268.89 4.11Q269.22 4.54 269.74 4.79Q270.26 5.04 270.89 5.04L270.89 5.04Q271.63 5.04 272.21 4.69Q272.79 4.35 273.12 3.74Q273.45 3.13 273.45 2.35L273.45 2.35Q273.45 1.56 273.11 0.93Q272.77 0.30 272.17-0.05Q271.57-0.40 270.80-0.40L270.80-0.40Q270.20-0.40 269.60-0.20Q269.01 0.01 268.65 0.33L268.65 0.33L266.80 0.07L267.53-6.55L274.76-6.55L274.76-4.83L269.21-4.83L268.80-1.18L268.87-1.18Q269.25-1.56 269.89-1.80Q270.54-2.05 271.27-2.05L271.27-2.05Q272.16-2.05 272.92-1.73Q273.67-1.41 274.23-0.82Q274.79-0.23 275.10 0.57Q275.41 1.36 275.41 2.31L275.41 2.31Q275.41 3.59 274.83 4.58Q274.25 5.58 273.23 6.15Q272.21 6.72 270.89 6.72ZM293.54 1.63L293.54 1.63Q292.99 1.63 292.61 1.25Q292.24 0.87 292.24 0.33L292.24 0.33Q292.24-0.21 292.61-0.58Q292.99-0.96 293.54-0.96L293.54-0.96Q294.07-0.96 294.45-0.58Q294.83-0.21 294.83 0.33L294.83 0.33Q294.83 0.87 294.45 1.25Q294.07 1.63 293.54 1.63ZM314.11 6.55L312.11 6.55L312.11-6.55L314.11-6.55L314.11-1.01L320.60-1.01L320.60-6.55L322.61-6.55L322.61 6.55L320.60 6.55L320.60 0.71L314.11 0.71L314.11 6.55ZM336.14 6.55L334.13 6.55L334.13 1.34L329.31-6.55L331.65-6.55L334.11-2.37Q334.52-1.69 334.83-1.05Q335.14-0.42 335.48 0.51L335.48 0.51L334.84 0.51Q335.17-0.44 335.48-1.08Q335.79-1.71 336.18-2.37L336.18-2.37L338.62-6.55L340.95-6.55L336.14 1.34L336.14 6.55ZM351.90 6.55L351.90 6.55L348.66 6.55L348.66 4.79L351.79 4.79Q353.28 4.79 354.26 4.24Q355.25 3.68 355.74 2.61Q356.23 1.53 356.23-0.02L356.23-0.02Q356.23-1.56 355.74-2.62Q355.25-3.68 354.29-4.24Q353.33-4.79 351.90-4.79L351.90-4.79L348.59-4.79L348.59-6.55L352.03-6.55Q353.96-6.55 355.34-5.77Q356.72-4.98 357.46-3.52Q358.20-2.06 358.20-0.02L358.20-0.02Q358.20 2.03 357.46 3.50Q356.71 4.97 355.30 5.76Q353.89 6.55 351.90 6.55ZM347.64-6.55L349.65-6.55L349.65 6.55L347.64 6.55L347.64-6.55ZM373.73 6.55L365.43 6.55L365.43-6.55L373.68-6.55L373.68-4.83L367.44-4.83L367.44-0.92L373.23-0.92L373.23 0.79L367.44 0.79L367.44 4.83L373.73 4.83L373.73 6.55ZM383.09 6.55L381.08 6.55L381.08-6.55L385.78-6.55Q387.29-6.55 388.30-6.02Q389.31-5.50 389.81-4.57Q390.31-3.64 390.31-2.43L390.31-2.43Q390.31-1.22 389.81-0.31Q389.30 0.60 388.29 1.10Q387.28 1.60 385.76 1.60L385.76 1.60L382.24 1.60L382.24-0.11L385.57-0.11Q386.53-0.11 387.13-0.39Q387.72-0.67 388.00-1.19Q388.28-1.71 388.28-2.43L388.28-2.43Q388.28-3.17 388.00-3.71Q387.72-4.25 387.12-4.54Q386.53-4.83 385.55-4.83L385.55-4.83L383.09-4.83L383.09 6.55ZM390.81 6.55L388.53 6.55L385.36 0.63L387.58 0.63L390.81 6.55ZM398.72 6.55L396.54 6.55L401.20-6.55L403.66-6.55L408.41 6.55L406.24 6.55L403.69-0.74Q403.39-1.63 403.04-2.83Q402.68-4.03 402.21-5.72L402.21-5.72L402.62-5.72Q402.17-4.02 401.81-2.80Q401.46-1.58 401.19-0.74L401.19-0.74L398.72 6.55ZM405.88 3.09L399.07 3.09L399.07 1.42L405.88 1.42L405.88 3.09ZM420.14 6.55L415.11 6.55L415.11-6.55L419.93-6.55Q421.33-6.55 422.24-6.09Q423.16-5.63 423.61-4.86Q424.05-4.08 424.05-3.11L424.05-3.11Q424.05-2.29 423.76-1.74Q423.46-1.18 422.95-0.84Q422.45-0.50 421.84-0.34L421.84-0.34L421.84-0.21Q422.50-0.18 423.12 0.21Q423.75 0.60 424.16 1.31Q424.56 2.01 424.56 3.02L424.56 3.02Q424.56 4.02 424.09 4.82Q423.62 5.62 422.65 6.08Q421.67 6.55 420.14 6.55L420.14 6.55ZM417.11 0.67L417.11 4.83L419.94 4.83Q421.35 4.83 421.96 4.28Q422.58 3.74 422.58 2.93L422.58 2.93Q422.58 2.29 422.27 1.78Q421.95 1.27 421.38 0.97Q420.81 0.67 420.02 0.67L420.02 0.67L417.11 0.67ZM417.11-4.83L417.11-0.88L419.74-0.88Q420.40-0.88 420.93-1.13Q421.47-1.39 421.78-1.85Q422.09-2.32 422.09-2.94L422.09-2.94Q422.09-3.75 421.52-4.29Q420.96-4.83 419.79-4.83L419.79-4.83L417.11-4.83ZM432.90 6.55L430.73 6.55L435.38-6.55L437.84-6.55L442.59 6.55L440.42 6.55L437.87-0.74Q437.57-1.63 437.22-2.83Q436.86-4.03 436.39-5.72L436.39-5.72L436.80-5.72Q436.35-4.02 435.99-2.80Q435.64-1.58 435.37-0.74L435.37-0.74L432.90 6.55ZM440.06 3.09L433.25 3.09L433.25 1.42L440.06 1.42L440.06 3.09ZM453.54 6.55L453.54 6.55L450.31 6.55L450.31 4.79L453.44 4.79Q454.92 4.79 455.91 4.24Q456.89 3.68 457.38 2.61Q457.88 1.53 457.88-0.02L457.88-0.02Q457.88-1.56 457.39-2.62Q456.90-3.68 455.94-4.24Q454.97-4.79 453.54-4.79L453.54-4.79L450.24-4.79L450.24-6.55L453.67-6.55Q455.61-6.55 456.99-5.77Q458.37-4.98 459.11-3.52Q459.84-2.06 459.84-0.02L459.84-0.02Q459.84 2.03 459.10 3.50Q458.36 4.97 456.95 5.76Q455.54 6.55 453.54 6.55ZM449.29-6.55L451.29-6.55L451.29 6.55L449.29 6.55L449.29-6.55Z"/></g>

  <!-- Right side orbital cluster -->
  <g transform="translate(1280 250)" fill="none">
    <circle r="160" stroke="#F97316" stroke-width="1.2" opacity="0.20"/>
    <circle r="110" stroke="#06B6D4" stroke-width="1.2" opacity="0.18"/>
    <circle r="70" stroke="#FAFAFA" stroke-width="1" opacity="0.15"/>
    <circle cx="160" cy="0" r="6" fill="#F97316"/>
    <circle cx="-110" cy="0" r="4" fill="#06B6D4"/>
  </g>

  <!-- Top-left small mark badge above where the profile pic will sit -->
  <g transform="translate(80 60)">
    <rect width="56" height="56" rx="14" fill="#0A0A0A" stroke="#2A2A2A" stroke-width="1"/>
    <g stroke="#FAFAFA" stroke-width="5" stroke-linecap="square" fill="none">
      <line x1="18" y1="18" x2="38" y2="38"/>
      <line x1="38" y1="18" x2="18" y2="38"/>
    </g>
    <circle cx="38" cy="18" r="3" fill="#F97316"/>
  </g>
  <g transform="translate(150 88)">
    <path d="" />
  </g>
</svg>