<svg xmlns="http://www.w3.org/2000/svg" viewBox="0 0 1500 500" width="1500" height="500">
  <defs>
    <linearGradient id="bgGrad" x1="0%" y1="0%" x2="100%" y2="100%">
      <stop offset="0%" stop-color="#0A0A0A"/>
      <stop offset="100%" stop-color="#161616"/>
    </linearGradient>
  </defs>

  <rect width="1500" height="500" fill="url(#bgGrad)"/>

  <!-- Vertical orange accent bar -->
  <rect x="430" y="130" width="4" height="240" fill="#F97316"/>

  <!-- Headline -->
  <g transform="translate(465 200)" fill="#FAFAFA"><path d="M36.35 32.01L19.12 32.01L2.02-32.01L18.82-32.01L25.14-3.70Q26.08 0.60 26.83 5.61Q27.59 10.61 28.32 15.62Q29.05 20.63 29.78 25.09L29.78 25.09L26.94 25.09Q27.80 20.63 28.57 15.62Q29.35 10.61 30.21 5.61Q31.07 0.60 32.10-3.70L32.10-3.70L38.89-32.01L54.31-32.01L61.06-3.70Q62.09 0.60 62.95 5.61Q63.81 10.61 64.60 15.62Q65.40 20.63 66.21 25.09L66.21 25.09L63.34 25.09Q64.11 20.63 64.82 15.62Q65.53 10.61 66.32 5.61Q67.12 0.60 68.02-3.70L68.02-3.70L74.34-32.01L91.14-32.01L74.04 32.01L56.85 32.01L49.37 2.45Q47.87-3.61 46.90-10.68Q45.93-17.75 44.64-24.71L44.64-24.71L48.51-24.71Q47.05-17.83 46.23-10.83Q45.42-3.82 43.83 2.45L43.83 2.45L36.35 32.01ZM120.48 32.91L120.48 32.91Q112.96 32.91 107.51 29.93Q102.05 26.94 99.15 21.40Q96.25 15.86 96.25 8.16L96.25 8.16Q96.25 0.77 99.15-4.81Q102.05-10.40 107.38-13.51Q112.71-16.63 119.93-16.63L119.93-16.63Q125.00-16.63 129.23-15.04Q133.46-13.45 136.58-10.33Q139.69-7.22 141.39-2.66Q143.09 1.89 143.09 7.86L143.09 7.86L143.09 11.64L101.58 11.64L101.58 2.92L135.95 2.92L128.95 4.98Q128.95 1.63 127.94-0.77Q126.93-3.18 124.95-4.47Q122.98-5.76 120.05-5.76L120.05-5.76Q117.13-5.76 115.11-4.45Q113.09-3.14 112.04-0.79Q110.99 1.55 110.99 4.68L110.99 4.68L110.99 10.96Q110.99 14.65 112.21 17.12Q113.44 19.59 115.63 20.82Q117.82 22.04 120.74 22.04L120.74 22.04Q122.76 22.04 124.42 21.48Q126.07 20.93 127.25 19.81Q128.43 18.69 129.04 17.10L129.04 17.10L142.40 19.29Q141.20 23.42 138.25 26.49Q135.31 29.56 130.82 31.24Q126.33 32.91 120.48 32.91ZM190.44 32.91L190.44 32.91Q184.29 32.91 179.57 31.17Q174.84 29.43 171.88 26.15Q168.91 22.86 168.05 18.26L168.05 18.26L181.97 16.07Q182.88 19.21 185.02 20.80Q187.17 22.39 191.00 22.39L191.00 22.39Q194.13 22.39 195.94 21.29Q197.74 20.20 197.74 18.39L197.74 18.39Q197.74 16.71 196.30 15.71Q194.86 14.70 191.86 14.09L191.86 14.09L183.48 12.46Q176.34 11.09 172.80 7.63Q169.25 4.17 169.25-1.38L169.25-1.38Q169.25-6.19 171.85-9.58Q174.45-12.98 179.20-14.80Q183.95-16.63 190.39-16.63L190.39-16.63Q196.41-16.63 200.86-15.02Q205.30-13.41 208.03-10.42Q210.76-7.43 211.58-3.31L211.58-3.31L198.34-1.20Q197.70-3.61 195.70-4.96Q193.70-6.32 190.65-6.32L190.65-6.32Q187.95-6.32 186.08-5.22Q184.21-4.13 184.21-2.28L184.21-2.28Q184.21-0.82 185.37 0.28Q186.53 1.38 189.62 1.98L189.62 1.98L198.82 3.70Q205.95 5.07 209.45 8.25Q212.95 11.43 212.95 16.67L212.95 16.67Q212.95 21.61 210.05 25.27Q207.15 28.92 202.08 30.92Q197.01 32.91 190.44 32.91ZM235.64 4.60L235.64 4.60L235.64 32.01L220.64 32.01L220.64-32.01L235.34-32.01L235.34-3.91L234.39-3.91Q236.16-9.63 239.92-13.13Q243.68-16.63 250.04-16.63L250.04-16.63Q255.06-16.63 258.80-14.39Q262.54-12.16 264.60-8.08Q266.66-4.00 266.66 1.42L266.66 1.42L266.66 32.01L251.67 32.01L251.67 4.34Q251.67 0.30 249.61-2.00Q247.54-4.30 243.85-4.30L243.85-4.30Q241.44-4.30 239.57-3.24Q237.70-2.19 236.67-0.21Q235.64 1.76 235.64 4.60ZM291.54 32.01L276.55 32.01L276.55-16.03L291.54-16.03L291.54 32.01ZM284.02-21.66L284.02-21.66Q280.84-21.66 278.57-23.78Q276.29-25.91 276.29-28.88L276.29-28.88Q276.29-31.88 278.57-33.99Q280.84-36.09 284.02-36.09L284.02-36.09Q287.25-36.09 289.52-34.01Q291.80-31.93 291.80-28.88L291.80-28.88Q291.80-25.87 289.52-23.76Q287.25-21.66 284.02-21.66ZM316.46 49.97L301.47 49.97L301.47-16.03L316.29-16.03L316.29-7.78L316.81-7.78Q317.71-9.97 319.45-11.99Q321.19-14.01 323.88-15.32Q326.56-16.63 330.39-16.63L330.39-16.63Q335.46-16.63 339.82-13.99Q344.18-11.34 346.87-5.87Q349.55-0.39 349.55 8.04L349.55 8.04Q349.55 16.20 346.97 21.68Q344.39 27.16 340.01 29.93Q335.63 32.70 330.30 32.70L330.30 32.70Q326.65 32.70 323.96 31.47Q321.28 30.25 319.52 28.32Q317.75 26.38 316.81 24.23L316.81 24.23L316.46 24.23L316.46 49.97ZM325.19 21.01L325.19 21.01Q328.07 21.01 330.06 19.40Q332.06 17.79 333.09 14.85Q334.13 11.90 334.13 8.04L334.13 8.04Q334.13 4.13 333.09 1.22Q332.06-1.68 330.09-3.29Q328.11-4.90 325.19-4.90L325.19-4.90Q322.31-4.90 320.29-3.33Q318.27-1.76 317.20 1.14Q316.12 4.04 316.12 8.04L316.12 8.04Q316.12 11.95 317.20 14.87Q318.27 17.79 320.31 19.40Q322.35 21.01 325.19 21.01ZM397.07 32.91L397.07 32.91Q390.93 32.91 386.20 31.17Q381.48 29.43 378.51 26.15Q375.55 22.86 374.69 18.26L374.69 18.26L388.61 16.07Q389.51 19.21 391.66 20.80Q393.81 22.39 397.63 22.39L397.63 22.39Q400.77 22.39 402.57 21.29Q404.38 20.20 404.38 18.39L404.38 18.39Q404.38 16.71 402.94 15.71Q401.50 14.70 398.49 14.09L398.49 14.09L390.11 12.46Q382.98 11.09 379.44 7.63Q375.89 4.17 375.89-1.38L375.89-1.38Q375.89-6.19 378.49-9.58Q381.09-12.98 385.84-14.80Q390.59-16.63 397.03-16.63L397.03-16.63Q403.05-16.63 407.49-15.02Q411.94-13.41 414.67-10.42Q417.40-7.43 418.21-3.31L418.21-3.31L404.98-1.20Q404.34-3.61 402.34-4.96Q400.34-6.32 397.29-6.32L397.29-6.32Q394.58-6.32 392.71-5.22Q390.84-4.13 390.84-2.28L390.84-2.28Q390.84-0.82 392.00 0.28Q393.16 1.38 396.26 1.98L396.26 1.98L405.45 3.70Q412.59 5.07 416.09 8.25Q419.59 11.43 419.59 16.67L419.59 16.67Q419.59 21.61 416.69 25.27Q413.79 28.92 408.72 30.92Q403.65 32.91 397.07 32.91ZM449.58 32.91L449.58 32.91Q442.06 32.91 436.65 29.80Q431.23 26.68 428.33 21.12Q425.43 15.55 425.43 8.16L425.43 8.16Q425.43 0.73 428.33-4.83Q431.23-10.40 436.65-13.51Q442.06-16.63 449.58-16.63L449.58-16.63Q457.10-16.63 462.52-13.51Q467.93-10.40 470.81-4.83Q473.69 0.73 473.69 8.16L473.69 8.16Q473.69 15.55 470.81 21.12Q467.93 26.68 462.52 29.80Q457.10 32.91 449.58 32.91ZM449.58 21.44L449.58 21.44Q452.46 21.44 454.44 19.77Q456.41 18.09 457.42 15.08Q458.43 12.07 458.43 8.08L458.43 8.08Q458.43 4.08 457.42 1.10Q456.41-1.89 454.44-3.52Q452.46-5.16 449.58-5.16L449.58-5.16Q446.70-5.16 444.73-3.52Q442.75-1.89 441.74 1.10Q440.73 4.08 440.73 8.08L440.73 8.08Q440.73 12.07 441.74 15.08Q442.75 18.09 444.73 19.77Q446.70 21.44 449.58 21.44ZM477.68-16.03L510.30-16.03L510.30-4.90L477.68-4.90L477.68-16.03ZM500.67 32.01L485.76 32.01L485.76-18.61Q485.76-24.11 487.82-27.76Q489.89-31.41 493.58-33.21Q497.28-35.02 502.09-35.02L502.09-35.02Q505.27-35.02 508.08-34.53Q510.90-34.03 512.19-33.64L512.19-33.64L509.78-22.69Q508.92-22.90 507.76-23.10Q506.60-23.29 505.44-23.29L505.44-23.29Q502.78-23.29 501.72-22.06Q500.67-20.84 500.67-18.73L500.67-18.73L500.67 32.01ZM513.73-16.03L543.73-16.03L543.73-4.90L513.73-4.90L513.73-16.03ZM520.09 18.65L520.09-27.46L535.09-27.46L535.09 17.32Q535.09 19.21 535.99 20.13Q536.89 21.05 538.91 21.05L538.91 21.05Q539.69 21.05 541.08 20.88Q542.48 20.71 543.08 20.54L543.08 20.54L545.02 31.45Q542.48 32.18 540.12 32.44Q537.75 32.70 535.65 32.70L535.65 32.70Q528 32.70 524.05 29.11Q520.09 25.52 520.09 18.65L520.09 18.65ZM576.43 32.01L561.13 32.01L547.12-16.03L562.80-16.03L566.33 0.43Q567.32 5.37 568.52 11.06Q569.72 16.76 570.67 23.50L570.67 23.50L569.12 23.50Q570.20 16.80 571.53 11.11Q572.86 5.41 573.98 0.43L573.98 0.43L577.80-16.03L591.12-16.03L594.82 0.43Q595.89 5.41 597.22 11.09Q598.55 16.76 599.63 23.50L599.63 23.50L598.17 23.50Q599.07 16.80 600.19 11.13Q601.30 5.46 602.34 0.43L602.34 0.43L605.82-16.03L621.76-16.03L607.62 32.01L592.32 32.01L587.34 14.78Q586.65 12.25 585.92 8.89Q585.19 5.54 584.50 2.08Q583.82-1.38 583.13-4.13L583.13-4.13L585.62-4.13Q584.98-1.38 584.27 2.08Q583.56 5.54 582.85 8.92Q582.14 12.29 581.41 14.78L581.41 14.78L576.43 32.01ZM640.79 32.87L640.79 32.87Q636.20 32.87 632.61 31.30Q629.02 29.73 627 26.58Q624.98 23.42 624.98 18.69L624.98 18.69Q624.98 14.70 626.38 11.95Q627.77 9.20 630.27 7.48Q632.76 5.76 635.98 4.86Q639.20 3.95 642.86 3.65L642.86 3.65Q646.94 3.31 649.43 2.90Q651.92 2.49 653.08 1.68Q654.24 0.86 654.24-0.60L654.24-0.60L654.24-0.77Q654.24-2.45 653.47-3.61Q652.70-4.77 651.23-5.37Q649.77-5.97 647.71-5.97L647.71-5.97Q645.65-5.97 644.04-5.37Q642.43-4.77 641.39-3.65Q640.36-2.54 639.93-1.03L639.93-1.03L626.36-2.79Q627.30-6.92 630.07-10.03Q632.84-13.15 637.33-14.89Q641.82-16.63 647.84-16.63L647.84-16.63Q652.31-16.63 656.20-15.58Q660.09-14.52 663.01-12.48Q665.93-10.44 667.56-7.46Q669.20-4.47 669.20-0.60L669.20-0.60L669.20 32.01L655.10 32.01L655.10 25.27L654.71 25.27Q653.43 27.76 651.43 29.43Q649.43 31.11 646.79 31.99Q644.14 32.87 640.79 32.87ZM645.35 22.95L645.35 22.95Q647.88 22.95 649.92 21.91Q651.96 20.88 653.17 19.08Q654.37 17.27 654.37 14.91L654.37 14.91L654.37 10.31Q653.73 10.66 652.76 10.96Q651.79 11.26 650.63 11.49Q649.47 11.73 648.31 11.92Q647.15 12.12 646.08 12.29L646.08 12.29Q643.89 12.59 642.34 13.32Q640.79 14.05 639.98 15.21Q639.16 16.37 639.16 18.00L639.16 18.00Q639.16 19.59 639.98 20.69Q640.79 21.79 642.17 22.37Q643.54 22.95 645.35 22.95ZM694.12 32.01L679.12 32.01L679.12-16.03L693.69-16.03L693.69-7.26L694.20-7.26Q695.49-12.03 698.48-14.33Q701.46-16.63 705.42-16.63L705.42-16.63Q706.45-16.63 707.59-16.50Q708.73-16.37 709.67-16.11L709.67-16.11L709.67-3.05Q708.60-3.44 706.86-3.63Q705.12-3.82 703.74-3.82L703.74-3.82Q700.99-3.82 698.80-2.60Q696.61-1.38 695.36 0.77Q694.12 2.92 694.12 5.80L694.12 5.80L694.12 32.01ZM738.46 32.91L738.46 32.91Q730.94 32.91 725.48 29.93Q720.03 26.94 717.13 21.40Q714.23 15.86 714.23 8.16L714.23 8.16Q714.23 0.77 717.13-4.81Q720.03-10.40 725.36-13.51Q730.68-16.63 737.90-16.63L737.90-16.63Q742.97-16.63 747.21-15.04Q751.44-13.45 754.55-10.33Q757.67-7.22 759.37-2.66Q761.06 1.89 761.06 7.86L761.06 7.86L761.06 11.64L719.55 11.64L719.55 2.92L753.93 2.92L746.93 4.98Q746.93 1.63 745.92-0.77Q744.91-3.18 742.93-4.47Q740.95-5.76 738.03-5.76L738.03-5.76Q735.11-5.76 733.09-4.45Q731.07-3.14 730.02-0.79Q728.96 1.55 728.96 4.68L728.96 4.68L728.96 10.96Q728.96 14.65 730.19 17.12Q731.41 19.59 733.61 20.82Q735.80 22.04 738.72 22.04L738.72 22.04Q740.74 22.04 742.39 21.48Q744.05 20.93 745.23 19.81Q746.41 18.69 747.01 17.10L747.01 17.10L760.38 19.29Q759.17 23.42 756.23 26.49Q753.29 29.56 748.79 31.24Q744.30 32.91 738.46 32.91Z"/></g>
  <g transform="translate(465 305)" fill="#FAFAFA"><path d="M0.86-16.03L30.85-16.03L30.85-4.90L0.86-4.90L0.86-16.03ZM7.22 18.65L7.22-27.46L22.21-27.46L22.21 17.32Q22.21 19.21 23.12 20.13Q24.02 21.05 26.04 21.05L26.04 21.05Q26.81 21.05 28.21 20.88Q29.61 20.71 30.21 20.54L30.21 20.54L32.14 31.45Q29.61 32.18 27.24 32.44Q24.88 32.70 22.77 32.70L22.77 32.70Q15.13 32.70 11.17 29.11Q7.22 25.52 7.22 18.65L7.22 18.65ZM53.54 4.60L53.54 4.60L53.54 32.01L38.54 32.01L38.54-32.01L53.24-32.01L53.24-3.91L52.29-3.91Q54.05-9.63 57.81-13.13Q61.57-16.63 67.93-16.63L67.93-16.63Q72.96-16.63 76.70-14.39Q80.44-12.16 82.50-8.08Q84.56-4.00 84.56 1.42L84.56 1.42L84.56 32.01L69.57 32.01L69.57 4.34Q69.57 0.30 67.50-2.00Q65.44-4.30 61.75-4.30L61.75-4.30Q59.34-4.30 57.47-3.24Q55.60-2.19 54.57-0.21Q53.54 1.76 53.54 4.60ZM107.89 32.87L107.89 32.87Q103.30 32.87 99.71 31.30Q96.12 29.73 94.10 26.58Q92.08 23.42 92.08 18.69L92.08 18.69Q92.08 14.70 93.48 11.95Q94.88 9.20 97.37 7.48Q99.86 5.76 103.08 4.86Q106.30 3.95 109.96 3.65L109.96 3.65Q114.04 3.31 116.53 2.90Q119.02 2.49 120.18 1.68Q121.34 0.86 121.34-0.60L121.34-0.60L121.34-0.77Q121.34-2.45 120.57-3.61Q119.80-4.77 118.34-5.37Q116.88-5.97 114.81-5.97L114.81-5.97Q112.75-5.97 111.14-5.37Q109.53-4.77 108.50-3.65Q107.46-2.54 107.04-1.03L107.04-1.03L93.46-2.79Q94.40-6.92 97.17-10.03Q99.95-13.15 104.44-14.89Q108.93-16.63 114.94-16.63L114.94-16.63Q119.41-16.63 123.30-15.58Q127.19-14.52 130.11-12.48Q133.03-10.44 134.66-7.46Q136.30-4.47 136.30-0.60L136.30-0.60L136.30 32.01L122.20 32.01L122.20 25.27L121.82 25.27Q120.53 27.76 118.53 29.43Q116.53 31.11 113.89 31.99Q111.25 32.87 107.89 32.87ZM112.45 22.95L112.45 22.95Q114.98 22.95 117.03 21.91Q119.07 20.88 120.27 19.08Q121.47 17.27 121.47 14.91L121.47 14.91L121.47 10.31Q120.83 10.66 119.86 10.96Q118.89 11.26 117.73 11.49Q116.57 11.73 115.41 11.92Q114.25 12.12 113.18 12.29L113.18 12.29Q110.99 12.59 109.44 13.32Q107.89 14.05 107.08 15.21Q106.26 16.37 106.26 18.00L106.26 18.00Q106.26 19.59 107.08 20.69Q107.89 21.79 109.27 22.37Q110.64 22.95 112.45 22.95ZM142.14-16.03L172.13-16.03L172.13-4.90L142.14-4.90L142.14-16.03ZM148.50 18.65L148.50-27.46L163.50-27.46L163.50 17.32Q163.50 19.21 164.40 20.13Q165.30 21.05 167.32 21.05L167.32 21.05Q168.09 21.05 169.49 20.88Q170.89 20.71 171.49 20.54L171.49 20.54L173.42 31.45Q170.89 32.18 168.52 32.44Q166.16 32.70 164.05 32.70L164.05 32.70Q156.41 32.70 152.45 29.11Q148.50 25.52 148.50 18.65L148.50 18.65ZM221.46 32.91L221.46 32.91Q213.94 32.91 208.48 29.93Q203.03 26.94 200.13 21.40Q197.23 15.86 197.23 8.16L197.23 8.16Q197.23 0.77 200.13-4.81Q203.03-10.40 208.36-13.51Q213.68-16.63 220.90-16.63L220.90-16.63Q225.97-16.63 230.21-15.04Q234.44-13.45 237.55-10.33Q240.67-7.22 242.37-2.66Q244.06 1.89 244.06 7.86L244.06 7.86L244.06 11.64L202.55 11.64L202.55 2.92L236.93 2.92L229.93 4.98Q229.93 1.63 228.92-0.77Q227.91-3.18 225.93-4.47Q223.95-5.76 221.03-5.76L221.03-5.76Q218.11-5.76 216.09-4.45Q214.07-3.14 213.02-0.79Q211.96 1.55 211.96 4.68L211.96 4.68L211.96 10.96Q211.96 14.65 213.19 17.12Q214.41 19.59 216.61 20.82Q218.80 22.04 221.72 22.04L221.72 22.04Q223.74 22.04 225.39 21.48Q227.05 20.93 228.23 19.81Q229.41 18.69 230.01 17.10L230.01 17.10L243.38 19.29Q242.17 23.42 239.23 26.49Q236.29 29.56 231.79 31.24Q227.30 32.91 221.46 32.91ZM265.38 32.87L265.38 32.87Q260.78 32.87 257.19 31.30Q253.60 29.73 251.58 26.58Q249.56 23.42 249.56 18.69L249.56 18.69Q249.56 14.70 250.96 11.95Q252.36 9.20 254.85 7.48Q257.34 5.76 260.56 4.86Q263.79 3.95 267.44 3.65L267.44 3.65Q271.52 3.31 274.01 2.90Q276.50 2.49 277.66 1.68Q278.82 0.86 278.82-0.60L278.82-0.60L278.82-0.77Q278.82-2.45 278.05-3.61Q277.28-4.77 275.82-5.37Q274.36-5.97 272.29-5.97L272.29-5.97Q270.23-5.97 268.62-5.37Q267.01-4.77 265.98-3.65Q264.95-2.54 264.52-1.03L264.52-1.03L250.94-2.79Q251.88-6.92 254.65-10.03Q257.43-13.15 261.92-14.89Q266.41-16.63 272.42-16.63L272.42-16.63Q276.89-16.63 280.78-15.58Q284.67-14.52 287.59-12.48Q290.51-10.44 292.14-7.46Q293.78-4.47 293.78-0.60L293.78-0.60L293.78 32.01L279.68 32.01L279.68 25.27L279.30 25.27Q278.01 27.76 276.01 29.43Q274.01 31.11 271.37 31.99Q268.73 32.87 265.38 32.87ZM269.93 22.95L269.93 22.95Q272.46 22.95 274.51 21.91Q276.55 20.88 277.75 19.08Q278.95 17.27 278.95 14.91L278.95 14.91L278.95 10.31Q278.31 10.66 277.34 10.96Q276.38 11.26 275.21 11.49Q274.05 11.73 272.89 11.92Q271.73 12.12 270.66 12.29L270.66 12.29Q268.47 12.59 266.92 13.32Q265.38 14.05 264.56 15.21Q263.74 16.37 263.74 18.00L263.74 18.00Q263.74 19.59 264.56 20.69Q265.38 21.79 266.75 22.37Q268.13 22.95 269.93 22.95ZM318.70 32.01L303.70 32.01L303.70-16.03L318.27-16.03L318.27-7.26L318.79-7.26Q320.07-12.03 323.06-14.33Q326.05-16.63 330-16.63L330-16.63Q331.03-16.63 332.17-16.50Q333.31-16.37 334.25-16.11L334.25-16.11L334.25-3.05Q333.18-3.44 331.44-3.63Q329.70-3.82 328.32-3.82L328.32-3.82Q325.57-3.82 323.38-2.60Q321.19-1.38 319.95 0.77Q318.70 2.92 318.70 5.80L318.70 5.80L318.70 32.01ZM355.65 4.60L355.65 4.60L355.65 32.01L340.66 32.01L340.66-16.03L354.75-16.03L355.05-3.91L354.41-3.91Q356.17-9.63 359.93-13.13Q363.69-16.63 370.05-16.63L370.05-16.63Q375.07-16.63 378.81-14.39Q382.55-12.16 384.61-8.08Q386.68-4.00 386.68 1.42L386.68 1.42L386.68 32.01L371.68 32.01L371.68 4.34Q371.68 0.30 369.62-2.00Q367.55-4.30 363.86-4.30L363.86-4.30Q361.45-4.30 359.58-3.24Q357.71-2.19 356.68-0.21Q355.65 1.76 355.65 4.60ZM416.80 32.91L416.80 32.91Q410.65 32.91 405.93 31.17Q401.20 29.43 398.23 26.15Q395.27 22.86 394.41 18.26L394.41 18.26L408.33 16.07Q409.23 19.21 411.38 20.80Q413.53 22.39 417.36 22.39L417.36 22.39Q420.49 22.39 422.30 21.29Q424.10 20.20 424.10 18.39L424.10 18.39Q424.10 16.71 422.66 15.71Q421.22 14.70 418.21 14.09L418.21 14.09L409.84 12.46Q402.70 11.09 399.16 7.63Q395.61 4.17 395.61-1.38L395.61-1.38Q395.61-6.19 398.21-9.58Q400.81-12.98 405.56-14.80Q410.31-16.63 416.75-16.63L416.75-16.63Q422.77-16.63 427.22-15.02Q431.66-13.41 434.39-10.42Q437.12-7.43 437.94-3.31L437.94-3.31L424.70-1.20Q424.06-3.61 422.06-4.96Q420.06-6.32 417.01-6.32L417.01-6.32Q414.30-6.32 412.44-5.22Q410.57-4.13 410.57-2.28L410.57-2.28Q410.57-0.82 411.73 0.28Q412.89 1.38 415.98 1.98L415.98 1.98L425.18 3.70Q432.31 5.07 435.81 8.25Q439.31 11.43 439.31 16.67L439.31 16.67Q439.31 21.61 436.41 25.27Q433.51 28.92 428.44 30.92Q423.37 32.91 416.80 32.91ZM481.25 32.01L466.25 32.01L466.25-16.03L481.25-16.03L481.25 32.01ZM473.73-21.66L473.73-21.66Q470.55-21.66 468.27-23.78Q466.00-25.91 466.00-28.88L466.00-28.88Q466.00-31.88 468.27-33.99Q470.55-36.09 473.73-36.09L473.73-36.09Q476.95-36.09 479.23-34.01Q481.51-31.93 481.51-28.88L481.51-28.88Q481.51-25.87 479.23-23.76Q476.95-21.66 473.73-21.66ZM487.09-16.03L517.09-16.03L517.09-4.90L487.09-4.90L487.09-16.03ZM493.45 18.65L493.45-27.46L508.45-27.46L508.45 17.32Q508.45 19.21 509.35 20.13Q510.25 21.05 512.27 21.05L512.27 21.05Q513.05 21.05 514.44 20.88Q515.84 20.71 516.44 20.54L516.44 20.54L518.38 31.45Q515.84 32.18 513.48 32.44Q511.11 32.70 509.01 32.70L509.01 32.70Q501.36 32.70 497.41 29.11Q493.45 25.52 493.45 18.65L493.45 18.65ZM545.02 32.91L545.02 32.91Q538.87 32.91 534.14 31.17Q529.42 29.43 526.45 26.15Q523.49 22.86 522.63 18.26L522.63 18.26L536.55 16.07Q537.45 19.21 539.60 20.80Q541.75 22.39 545.57 22.39L545.57 22.39Q548.71 22.39 550.52 21.29Q552.32 20.20 552.32 18.39L552.32 18.39Q552.32 16.71 550.88 15.71Q549.44 14.70 546.43 14.09L546.43 14.09L538.05 12.46Q530.92 11.09 527.38 7.63Q523.83 4.17 523.83-1.38L523.83-1.38Q523.83-6.19 526.43-9.58Q529.03-12.98 533.78-14.80Q538.53-16.63 544.97-16.63L544.97-16.63Q550.99-16.63 555.44-15.02Q559.88-13.41 562.61-10.42Q565.34-7.43 566.16-3.31L566.16-3.31L552.92-1.20Q552.28-3.61 550.28-4.96Q548.28-6.32 545.23-6.32L545.23-6.32Q542.52-6.32 540.65-5.22Q538.79-4.13 538.79-2.28L538.79-2.28Q538.79-0.82 539.95 0.28Q541.11 1.38 544.20 1.98L544.20 1.98L553.39 3.70Q560.53 5.07 564.03 8.25Q567.53 11.43 567.53 16.67L567.53 16.67Q567.53 21.61 564.63 25.27Q561.73 28.92 556.66 30.92Q551.59 32.91 545.02 32.91ZM616.86 8.59L608.01 19.25L608.01 1.33L610.16 1.33L623.91-16.03L640.96-16.03L620.81 8.59L616.86 8.59ZM609.47 32.01L594.47 32.01L594.47-32.01L609.47-32.01L609.47 32.01ZM641.65 32.01L624.34 32.01L611.53 11.95L621.41 1.29L641.65 32.01ZM669.02 32.91L669.02 32.91Q661.50 32.91 656.05 29.93Q650.59 26.94 647.69 21.40Q644.79 15.86 644.79 8.16L644.79 8.16Q644.79 0.77 647.69-4.81Q650.59-10.40 655.92-13.51Q661.25-16.63 668.46-16.63L668.46-16.63Q673.54-16.63 677.77-15.04Q682-13.45 685.12-10.33Q688.23-7.22 689.93-2.66Q691.63 1.89 691.63 7.86L691.63 7.86L691.63 11.64L650.12 11.64L650.12 2.92L684.49 2.92L677.49 4.98Q677.49 1.63 676.48-0.77Q675.47-3.18 673.49-4.47Q671.52-5.76 668.59-5.76L668.59-5.76Q665.67-5.76 663.65-4.45Q661.63-3.14 660.58-0.79Q659.53 1.55 659.53 4.68L659.53 4.68L659.53 10.96Q659.53 14.65 660.75 17.12Q661.98 19.59 664.17 20.82Q666.36 22.04 669.28 22.04L669.28 22.04Q671.30 22.04 672.96 21.48Q674.61 20.93 675.79 19.81Q676.97 18.69 677.57 17.10L677.57 17.10L690.94 19.29Q689.73 23.42 686.79 26.49Q683.85 29.56 679.36 31.24Q674.87 32.91 669.02 32.91ZM721.88 32.91L721.88 32.91Q714.36 32.91 708.90 29.93Q703.44 26.94 700.54 21.40Q697.64 15.86 697.64 8.16L697.64 8.16Q697.64 0.77 700.54-4.81Q703.44-10.40 708.77-13.51Q714.10-16.63 721.32-16.63L721.32-16.63Q726.39-16.63 730.62-15.04Q734.85-13.45 737.97-10.33Q741.08-7.22 742.78-2.66Q744.48 1.89 744.48 7.86L744.48 7.86L744.48 11.64L702.97 11.64L702.97 2.92L737.34 2.92L730.34 4.98Q730.34 1.63 729.33-0.77Q728.32-3.18 726.34-4.47Q724.37-5.76 721.45-5.76L721.45-5.76Q718.52-5.76 716.50-4.45Q714.48-3.14 713.43-0.79Q712.38 1.55 712.38 4.68L712.38 4.68L712.38 10.96Q712.38 14.65 713.60 17.12Q714.83 19.59 717.02 20.82Q719.21 22.04 722.13 22.04L722.13 22.04Q724.15 22.04 725.81 21.48Q727.46 20.93 728.64 19.81Q729.82 18.69 730.43 17.10L730.43 17.10L743.79 19.29Q742.59 23.42 739.64 26.49Q736.70 29.56 732.21 31.24Q727.72 32.91 721.88 32.91ZM767.34 49.97L752.34 49.97L752.34-16.03L767.16-16.03L767.16-7.78L767.68-7.78Q768.58-9.97 770.32-11.99Q772.06-14.01 774.75-15.32Q777.43-16.63 781.26-16.63L781.26-16.63Q786.33-16.63 790.69-13.99Q795.05-11.34 797.74-5.87Q800.42-0.39 800.42 8.04L800.42 8.04Q800.42 16.20 797.84 21.68Q795.27 27.16 790.88 29.93Q786.50 32.70 781.17 32.70L781.17 32.70Q777.52 32.70 774.83 31.47Q772.15 30.25 770.39 28.32Q768.63 26.38 767.68 24.23L767.68 24.23L767.34 24.23L767.34 49.97ZM776.06 21.01L776.06 21.01Q778.94 21.01 780.94 19.40Q782.93 17.79 783.96 14.85Q785.00 11.90 785.00 8.04L785.00 8.04Q785.00 4.13 783.96 1.22Q782.93-1.68 780.96-3.29Q778.98-4.90 776.06-4.90L776.06-4.90Q773.18-4.90 771.16-3.33Q769.14-1.76 768.07 1.14Q766.99 4.04 766.99 8.04L766.99 8.04Q766.99 11.95 768.07 14.87Q769.14 17.79 771.18 19.40Q773.22 21.01 776.06 21.01ZM819.03 32.91L819.03 32.91Q815.59 32.91 813.25 30.62Q810.91 28.32 810.91 24.92L810.91 24.92Q810.91 21.48 813.25 19.19Q815.59 16.89 819.03 16.89L819.03 16.89Q822.46 16.89 824.81 19.19Q827.15 21.48 827.15 24.92L827.15 24.92Q827.15 28.32 824.81 30.62Q822.46 32.91 819.03 32.91Z"/></g>
  <g transform="translate(465 380)" fill="#F97316"><path d="M3.10 7.28L0.54 7.28L6.34-1.00L6.34 0.67L0.91-7.28L3.50-7.28L5.42-4.40Q5.89-3.72 6.18-3.22Q6.47-2.72 6.72-2.26Q6.96-1.79 7.28-1.18L7.28-1.18L6.80-1.18Q7.10-1.78 7.35-2.25Q7.60-2.71 7.90-3.22Q8.20-3.72 8.66-4.40L8.66-4.40L10.63-7.28L13.15-7.28L7.76 0.57L7.76-1.05L13.48 7.28L10.88 7.28L8.51 3.80Q8.10 3.19 7.82 2.76Q7.55 2.32 7.32 1.90Q7.09 1.48 6.81 0.93L6.81 0.93L7.23 0.93Q6.94 1.46 6.71 1.88Q6.47 2.30 6.20 2.74Q5.93 3.18 5.50 3.80L5.50 3.80L3.10 7.28ZM25.84 7.52L25.84 7.52Q24.21 7.52 23.01 7.00Q21.81 6.48 21.13 5.52Q20.45 4.56 20.38 3.23L20.38 3.23L22.62 3.23Q22.69 4.02 23.13 4.54Q23.57 5.06 24.29 5.31Q25 5.57 25.83 5.57L25.83 5.57Q26.76 5.57 27.48 5.28Q28.19 4.99 28.61 4.46Q29.03 3.93 29.03 3.22L29.03 3.22Q29.03 2.59 28.67 2.18Q28.30 1.78 27.68 1.51Q27.06 1.24 26.27 1.04L26.27 1.04L24.57 0.57Q22.78 0.09 21.78-0.85Q20.78-1.79 20.78-3.28L20.78-3.28Q20.78-4.54 21.46-5.48Q22.14-6.43 23.31-6.95Q24.47-7.47 25.94-7.47L25.94-7.47Q27.43-7.47 28.57-6.95Q29.71-6.43 30.36-5.52Q31.01-4.61 31.04-3.45L31.04-3.45L28.87-3.45Q28.76-4.44 27.94-4.99Q27.13-5.54 25.89-5.54L25.89-5.54Q25.01-5.54 24.36-5.26Q23.71-4.99 23.35-4.51Q23.00-4.02 23.00-3.41L23.00-3.41Q23.00-2.71 23.42-2.29Q23.85-1.87 24.46-1.62Q25.07-1.37 25.63-1.22L25.63-1.22L27.04-0.85Q27.73-0.67 28.47-0.38Q29.21-0.08 29.83 0.40Q30.46 0.87 30.84 1.57Q31.23 2.27 31.23 3.25L31.23 3.25Q31.23 4.48 30.60 5.45Q29.96 6.42 28.75 6.97Q27.55 7.52 25.84 7.52ZM48.43 7.28L39.21 7.28L39.21-7.28L48.37-7.28L48.37-5.36L41.44-5.36L41.44-1.03L47.87-1.03L47.87 0.88L41.44 0.88L41.44 5.36L48.43 5.36L48.43 7.28ZM58.83 7.28L56.60 7.28L56.60-7.28L61.82-7.28Q63.50-7.28 64.62-6.69Q65.74-6.11 66.30-5.08Q66.86-4.04 66.86-2.71L66.86-2.71Q66.86-1.36 66.29-0.35Q65.73 0.66 64.61 1.22Q63.49 1.78 61.80 1.78L61.80 1.78L57.88 1.78L57.88-0.13L61.58-0.13Q62.66-0.13 63.32-0.43Q63.97-0.74 64.29-1.32Q64.60-1.89 64.60-2.71L64.60-2.71Q64.60-3.53 64.29-4.12Q63.97-4.72 63.31-5.04Q62.65-5.37 61.56-5.37L61.56-5.37L58.83-5.37L58.83 7.28ZM67.40 7.28L64.87 7.28L61.35 0.70L63.82 0.70L67.40 7.28ZM81.77 7.28L79.04 7.28L73.78-7.28L76.18-7.28L79.01 0.82Q79.33 1.76 79.73 3.12Q80.14 4.47 80.65 6.32L80.65 6.32L80.20 6.32Q80.70 4.43 81.10 3.10Q81.49 1.76 81.80 0.82L81.80 0.82L84.55-7.28L86.96-7.28L81.77 7.28ZM113.89 7.28L105.07 7.28L105.07-7.28L107.29-7.28L107.29 5.36L113.89 5.36L113.89 7.28ZM123.01 7.28L120.60 7.28L125.77-7.28L128.51-7.28L133.78 7.28L131.37 7.28L128.54-0.82Q128.20-1.81 127.81-3.14Q127.41-4.48 126.89-6.36L126.89-6.36L127.34-6.36Q126.85-4.46 126.45-3.11Q126.05-1.76 125.75-0.82L125.75-0.82L123.01 7.28ZM130.97 3.44L123.40 3.44L123.40 1.58L130.97 1.58L130.97 3.44ZM146.82 7.28L141.22 7.28L141.22-7.28L146.58-7.28Q148.13-7.28 149.15-6.77Q150.17-6.26 150.66-5.40Q151.16-4.53 151.16-3.46L151.16-3.46Q151.16-2.55 150.83-1.93Q150.50-1.31 149.94-0.93Q149.38-0.56 148.70-0.38L148.70-0.38L148.70-0.23Q149.43-0.21 150.13 0.23Q150.82 0.66 151.27 1.45Q151.73 2.24 151.73 3.36L151.73 3.36Q151.73 4.46 151.21 5.35Q150.68 6.24 149.60 6.76Q148.52 7.28 146.82 7.28L146.82 7.28ZM143.45 0.74L143.45 5.36L146.59 5.36Q148.15 5.36 148.84 4.76Q149.52 4.15 149.52 3.25L149.52 3.25Q149.52 2.55 149.17 1.98Q148.83 1.42 148.19 1.08Q147.56 0.74 146.68 0.74L146.68 0.74L143.45 0.74ZM143.45-5.37L143.45-0.98L146.37-0.98Q147.10-0.98 147.70-1.26Q148.29-1.54 148.63-2.06Q148.97-2.58 148.97-3.27L148.97-3.27Q148.97-4.17 148.35-4.77Q147.72-5.37 146.43-5.37L146.43-5.37L143.45-5.37ZM164.57 7.52L164.57 7.52Q162.94 7.52 161.74 7.00Q160.54 6.48 159.86 5.52Q159.18 4.56 159.11 3.23L159.11 3.23L161.35 3.23Q161.42 4.02 161.86 4.54Q162.30 5.06 163.02 5.31Q163.73 5.57 164.56 5.57L164.56 5.57Q165.49 5.57 166.21 5.28Q166.92 4.99 167.34 4.46Q167.76 3.93 167.76 3.22L167.76 3.22Q167.76 2.59 167.40 2.18Q167.03 1.78 166.41 1.51Q165.79 1.24 165 1.04L165 1.04L163.30 0.57Q161.51 0.09 160.51-0.85Q159.51-1.79 159.51-3.28L159.51-3.28Q159.51-4.54 160.19-5.48Q160.87-6.43 162.04-6.95Q163.20-7.47 164.67-7.47L164.67-7.47Q166.16-7.47 167.30-6.95Q168.44-6.43 169.09-5.52Q169.74-4.61 169.77-3.45L169.77-3.45L167.60-3.45Q167.49-4.44 166.67-4.99Q165.86-5.54 164.62-5.54L164.62-5.54Q163.74-5.54 163.09-5.26Q162.44-4.99 162.08-4.51Q161.73-4.02 161.73-3.41L161.73-3.41Q161.73-2.71 162.15-2.29Q162.58-1.87 163.19-1.62Q163.80-1.37 164.36-1.22L164.36-1.22L165.77-0.85Q166.46-0.67 167.20-0.38Q167.94-0.08 168.56 0.40Q169.19 0.87 169.58 1.57Q169.96 2.27 169.96 3.25L169.96 3.25Q169.96 4.48 169.33 5.45Q168.69 6.42 167.49 6.97Q166.28 7.52 164.57 7.52ZM190.03 1.81L190.03 1.81Q189.42 1.81 189.00 1.39Q188.58 0.97 188.58 0.37L188.58 0.37Q188.58-0.23 189.00-0.65Q189.42-1.06 190.03-1.06L190.03-1.06Q190.63-1.06 191.04-0.65Q191.46-0.23 191.46 0.37L191.46 0.37Q191.46 0.97 191.04 1.39Q190.63 1.81 190.03 1.81ZM215.55 7.52L215.55 7.52Q213.92 7.52 212.71 7.00Q211.51 6.48 210.83 5.52Q210.16 4.56 210.09 3.23L210.09 3.23L212.32 3.23Q212.39 4.02 212.84 4.54Q213.28 5.06 213.99 5.31Q214.71 5.57 215.54 5.57L215.54 5.57Q216.46 5.57 217.18 5.28Q217.90 4.99 218.32 4.46Q218.74 3.93 218.74 3.22L218.74 3.22Q218.74 2.59 218.37 2.18Q218.01 1.78 217.39 1.51Q216.77 1.24 215.98 1.04L215.98 1.04L214.28 0.57Q212.49 0.09 211.49-0.85Q210.49-1.79 210.49-3.28L210.49-3.28Q210.49-4.54 211.17-5.48Q211.85-6.43 213.01-6.95Q214.18-7.47 215.64-7.47L215.64-7.47Q217.14-7.47 218.28-6.95Q219.41-6.43 220.06-5.52Q220.71-4.61 220.74-3.45L220.74-3.45L218.57-3.45Q218.47-4.44 217.65-4.99Q216.84-5.54 215.60-5.54L215.60-5.54Q214.72-5.54 214.07-5.26Q213.42-4.99 213.06-4.51Q212.71-4.02 212.71-3.41L212.71-3.41Q212.71-2.71 213.13-2.29Q213.55-1.87 214.17-1.62Q214.78-1.37 215.33-1.22L215.33-1.22L216.75-0.85Q217.44-0.67 218.18-0.38Q218.92-0.08 219.54 0.40Q220.17 0.87 220.55 1.57Q220.94 2.27 220.94 3.25L220.94 3.25Q220.94 4.48 220.30 5.45Q219.67 6.42 218.46 6.97Q217.26 7.52 215.55 7.52ZM228.92-7.28L231.14-7.28L231.14 7.28L228.92 7.28L228.92-7.28ZM241.95 7.28L239.70 7.28L239.70-7.28L242.27-7.28L247.74 1.39Q248.02 1.82 248.36 2.41Q248.70 3.01 249.08 3.75Q249.46 4.50 249.83 5.38L249.83 5.38L249.56 5.38Q249.47 4.55 249.43 3.74Q249.38 2.92 249.37 2.21Q249.35 1.49 249.35 1.01L249.35 1.01L249.35-7.28L251.60-7.28L251.60 7.28L249.02 7.28L244.11-0.47Q243.72-1.10 243.34-1.75Q242.97-2.39 242.51-3.24Q242.06-4.08 241.41-5.29L241.41-5.29L241.76-5.29Q241.81-4.22 241.86-3.29Q241.90-2.35 241.93-1.64Q241.95-0.92 241.95-0.49L241.95-0.49L241.95 7.28ZM266.20 7.47L266.20 7.47Q264.32 7.47 262.83 6.58Q261.35 5.68 260.50 4.01Q259.65 2.33 259.65 0.01L259.65 0.01Q259.65-2.32 260.50-4.00Q261.35-5.67 262.83-6.57Q264.32-7.47 266.20-7.47L266.20-7.47Q267.35-7.47 268.36-7.14Q269.38-6.81 270.17-6.17Q270.97-5.54 271.49-4.63Q272.01-3.72 272.20-2.57L272.20-2.57L269.96-2.57Q269.82-3.26 269.48-3.79Q269.13-4.33 268.63-4.70Q268.13-5.07 267.52-5.25Q266.90-5.44 266.22-5.44L266.22-5.44Q264.97-5.44 263.98-4.81Q262.99-4.18 262.42-2.96Q261.86-1.75 261.86 0.01L261.86 0.01Q261.86 1.77 262.43 2.98Q263.01 4.20 263.99 4.82Q264.98 5.44 266.22 5.44L266.22 5.44Q266.90 5.44 267.51 5.25Q268.13 5.06 268.63 4.69Q269.13 4.33 269.48 3.79Q269.82 3.25 269.96 2.57L269.96 2.57L272.21 2.57Q272.04 3.64 271.53 4.54Q271.03 5.43 270.23 6.09Q269.44 6.76 268.42 7.11Q267.40 7.47 266.20 7.47ZM289.38 7.28L280.16 7.28L280.16-7.28L289.32-7.28L289.32-5.36L282.38-5.36L282.38-1.03L288.82-1.03L288.82 0.88L282.38 0.88L282.38 5.36L289.38 5.36L289.38 7.28ZM317.62 7.28L308.01 7.28L308.01 5.66L312.95 0.56Q313.71-0.24 314.22-0.86Q314.73-1.47 314.99-2.04Q315.25-2.61 315.25-3.25L315.25-3.25Q315.25-3.98 314.92-4.51Q314.58-5.04 314.00-5.32Q313.42-5.61 312.68-5.61L312.68-5.61Q311.90-5.61 311.33-5.29Q310.75-4.97 310.44-4.39Q310.13-3.82 310.13-3.04L310.13-3.04L307.99-3.04Q307.99-4.37 308.60-5.37Q309.22-6.37 310.28-6.92Q311.35-7.47 312.71-7.47L312.71-7.47Q314.10-7.47 315.15-6.92Q316.20-6.38 316.80-5.44Q317.39-4.51 317.39-3.33L317.39-3.33Q317.39-2.53 317.09-1.77Q316.80-1.01 316.05-0.05Q315.30 0.91 313.95 2.28L313.95 2.28L311.09 5.25L311.09 5.37L317.62 5.37L317.62 7.28ZM330.71 7.47L330.71 7.47Q329.01 7.47 327.82 6.59Q326.63 5.71 326.00 4.05Q325.36 2.38 325.36 0.01L325.36 0.01Q325.36-2.35 326.00-4.02Q326.63-5.69 327.83-6.58Q329.02-7.47 330.71-7.47L330.71-7.47Q332.39-7.47 333.59-6.58Q334.79-5.69 335.43-4.02Q336.06-2.35 336.06 0.01L336.06 0.01Q336.06 2.37 335.43 4.04Q334.80 5.71 333.61 6.59Q332.41 7.47 330.71 7.47ZM330.71 5.57L330.71 5.57Q331.72 5.57 332.42 4.91Q333.13 4.25 333.49 3.01Q333.86 1.77 333.86 0.01L333.86 0.01Q333.86-1.76 333.49-3.01Q333.13-4.26 332.42-4.92Q331.72-5.58 330.71-5.58L330.71-5.58Q329.71-5.58 329.00-4.91Q328.30-4.25 327.93-3.00Q327.56-1.76 327.56 0.01L327.56 0.01Q327.56 1.77 327.93 3.01Q328.30 4.25 329.00 4.91Q329.71 5.57 330.71 5.57ZM346.61-7.28L349.19-7.28L349.19 7.28L346.98 7.28L346.98-5.25L346.88-5.25L343.43-2.73L343.43-4.97L346.61-7.28ZM362.06 7.47L362.06 7.47Q360.70 7.47 359.64 6.95Q358.57 6.44 357.94 5.53Q357.31 4.62 357.27 3.47L357.27 3.47L359.43 3.47Q359.48 4.08 359.84 4.57Q360.21 5.05 360.79 5.32Q361.37 5.60 362.06 5.60L362.06 5.60Q362.89 5.60 363.54 5.21Q364.18 4.83 364.55 4.16Q364.91 3.48 364.91 2.61L364.91 2.61Q364.91 1.73 364.53 1.03Q364.15 0.33 363.49-0.06Q362.82-0.45 361.96-0.45L361.96-0.45Q361.30-0.45 360.63-0.22Q359.97 0.01 359.57 0.37L359.57 0.37L357.52 0.08L358.33-7.28L366.37-7.28L366.37-5.37L360.20-5.37L359.74-1.31L359.81-1.31Q360.24-1.73 360.96-2.00Q361.67-2.28 362.48-2.28L362.48-2.28Q363.48-2.28 364.32-1.92Q365.16-1.56 365.78-0.91Q366.40-0.25 366.74 0.63Q367.09 1.51 367.09 2.57L367.09 2.57Q367.09 3.98 366.45 5.09Q365.80 6.20 364.66 6.84Q363.53 7.47 362.06 7.47Z"/></g>

  <!-- Decorative orbits right side, pushed to corner so they don't collide with text -->
  <g transform="translate(1440 460)" fill="none" opacity="0.35">
    <circle r="260" stroke="#F97316" stroke-width="1.2"/>
    <circle r="180" stroke="#06B6D4" stroke-width="1.2"/>
    <circle r="100" stroke="#FAFAFA" stroke-width="0.8" opacity="0.5"/>
    <circle cx="-260" cy="-30" r="5" fill="#F97316"/>
    <circle cx="-180" cy="40" r="3" fill="#06B6D4"/>
  </g>
</svg>